<?xml version="1.0" encoding="utf-8"?>
<!-- Generator: Adobe Illustrator 24.0.0, SVG Export Plug-In . SVG Version: 6.00 Build 0)  -->
<svg version="1.1" id="Camada_1" xmlns="http://www.w3.org/2000/svg" xmlns:xlink="http://www.w3.org/1999/xlink" x="0px" y="0px"
	 viewBox="0 0 1241 274" style="enable-background:new 0 0 1241 274;" xml:space="preserve">
<style type="text/css">
	.st0{clip-path:url(#SVGID_2_);}
	.st1{fill:#FFFFFF;}
	.st2{fill:#F6F6F6;}
	.st3{fill:#F9DDBF;}
	.st4{fill:#EAC3A2;}
	.st5{fill:#3A3A3A;}
	.st6{fill:#E2E2E2;}
	.st7{fill:#D67330;}
	.st8{fill:#8C8C8C;}
	.st9{fill:#AFAFAF;}
	.st10{fill:#D3D3D3;}
	.st11{fill:#82B378;}
	.st12{fill:#A8D29F;}
	.st13{fill:#EA2D2D;}
	.st14{fill:#F26B6B;}
	.st15{fill:#B5453C;}
	.st16{fill:#5E5E5E;}
	.st17{fill:#E8945B;}
	.st18{fill:#FFB27D;}
</style>
<g>
	<defs>
		<rect id="SVGID_1_" y="0" width="1241" height="274"/>
	</defs>
	<clipPath id="SVGID_2_">
		<use xlink:href="#SVGID_1_"  style="overflow:visible;"/>
	</clipPath>
	<g id="room_image" class="st0">
		<rect y="0" class="st1" width="1241" height="274"/>
		<g id="Grupo_97" transform="translate(-854 65)">
			<rect id="Retângulo_2" x="854" y="17" class="st2" width="1241" height="192"/>
			<g id="room_img" transform="translate(1151.233 -57.581)">
				<g id="Grupo_84" transform="translate(21.097 26.581)">
					<g id="Grupo_56" transform="translate(394.947 189.241)">
						<path id="Caminho_180" class="st3" d="M0,0.3l7.7,16.9l0,0l14.9,32.5c0.3,0.5,0.8,0.9,1.4,0.9h0.1c0.9,0,1.7-0.8,1.7-1.7
							c0-0.1,0-0.3-0.1-0.4L13.9,6.2L12.2,0L0,0.3z"/>
					</g>
					<path id="Caminho_181" class="st4" d="M402.7,206.4c-0.7-7.7,6.2-11,6.2-11l-1.7-6.2l-12.2,0.3L402.7,206.4z"/>
					<g id="Grupo_57" transform="translate(474.731 189.241)">
						<path id="Caminho_182" class="st3" d="M0,0.3l7.7,16.9l0,0l14.9,32.5c0.3,0.5,0.8,0.9,1.4,0.9h0.1c0.9,0,1.7-0.8,1.7-1.7
							c0-0.1,0-0.3-0.1-0.4L13.9,6.2L12.2,0L0,0.3z"/>
					</g>
					<path id="Caminho_183" class="st4" d="M482.5,206.4c-0.7-7.7,6.2-11,6.2-11l-1.7-6.2l-12.2,0.3L482.5,206.4z"/>
					<path id="Caminho_184" class="st3" d="M500.5,159.5v28.2c0,1.8-1.4,3.2-3.2,3.2H144.8c-1.8,0-3.2-1.4-3.2-3.2v-28.2
						c0-1.8,1.4-3.2,3.2-3.2h352.5C499.1,156.3,500.5,157.7,500.5,159.5z"/>
					<path id="Caminho_185" class="st4" d="M157.6,189.2l-1.7,6.2L144,237.7c-0.2,0.9,0.3,1.8,1.2,2c0.1,0,0.3,0.1,0.4,0.1h0.1
						c0.6,0,1.2-0.3,1.4-0.9l14.9-32.5l0,0l7.7-16.9L157.6,189.2z"/>
					<path id="Caminho_186" class="st4" d="M220.5,189.2l-1.7,6.2l-11.8,42.3c-0.2,0.9,0.3,1.8,1.2,2c0.1,0,0.3,0.1,0.4,0.1h0.1
						c0.6,0,1.2-0.3,1.4-0.9l14.9-32.5l0,0l7.7-16.9L220.5,189.2z"/>
					<path id="Caminho_187" class="st4" d="M272.5,55.1h-132c-2,0-3.7,1.6-3.7,3.7v128.4c0,2,1.6,3.7,3.7,3.7h132
						c2,0,3.7-1.6,3.7-3.7V58.8C276.1,56.8,274.5,55.1,272.5,55.1z"/>
					<path id="Caminho_188" class="st3" d="M280.9,58.7v109c0.1,1.9-1.3,3.5-3.2,3.6H144.8c-1.9-0.1-3.3-1.7-3.2-3.6v-109
						c-0.1-1.9,1.3-3.5,3.2-3.6h132.9C279.6,55.2,281,56.8,280.9,58.7z"/>
					<path id="Caminho_189" class="st4" d="M167,165.5c0,0-24.5-1.9-25.3-2.6v-22.4c5.2-4.9,15.3-10.4,15.3-10.4L167,165.5z"/>
					<path id="Caminho_190" class="st4" d="M173.9,81.3c0.2-1.1,1.2-1.9,2.3-1.7s1.9,1.2,1.7,2.3c-0.2,1-1,1.7-2,1.7
						C174.8,83.6,173.9,82.5,173.9,81.3z"/>
					<path id="Caminho_191" class="st4" d="M254.3,81.3c0.2-1.1,1.2-1.9,2.3-1.7c1.1,0.2,1.9,1.2,1.7,2.3c-0.2,1-1,1.7-2,1.7
						C255.2,83.6,254.3,82.5,254.3,81.3z"/>
					<path id="Caminho_192" class="st5" d="M173.9,125.5c0.2-1.1,1.2-1.9,2.3-1.7s1.9,1.2,1.7,2.3c-0.2,1-1,1.7-2,1.7
						C174.8,127.8,173.9,126.8,173.9,125.5C173.9,125.6,173.9,125.5,173.9,125.5z"/>
					<path id="Caminho_193" class="st4" d="M254.3,125.5c0.2-1.1,1.2-1.9,2.3-1.7c1.1,0.2,1.9,1.2,1.7,2.3c-0.2,1-1,1.7-2,1.7
						C255.2,127.8,254.3,126.8,254.3,125.5C254.3,125.6,254.3,125.5,254.3,125.5z"/>
					<path id="Caminho_194" class="st4" d="M382.8,159.5v28.2c0,1.8-1.5,3.2-3.2,3.2H141.4c-1.8,0-3.2-1.4-3.2-3.2v-28.2
						c0-1.8,1.5-3.2,3.2-3.2h238.1C381.3,156.3,382.7,157.7,382.8,159.5z"/>
					<g id="Grupo_58" transform="translate(213.589 111.784)">
						<path id="Caminho_195" class="st6" d="M5.6,1.9c0,0-9,26-4.3,42.8h15.5C16.8,44.7,22.5,14.1,5.6,1.9z"/>
						<path id="Caminho_196" class="st1" d="M5.6,1.9c0,0,31.1-4.3,48.3,0l12.9,42.8h-50C16.8,44.7,22.5,19.1,5.6,1.9z"/>
					</g>
					<path id="Caminho_197" class="st7" d="M391,155.2c-0.3-0.2-0.5-0.3-0.5-0.3C390.7,155,390.9,155.1,391,155.2z"/>
					<g id="Grupo_59" transform="translate(152.942 111.784)">
						<path id="Caminho_198" class="st6" d="M5.6,1.9c0,0-9,26-4.3,42.8h15.5C16.8,44.7,22.5,14.1,5.6,1.9z"/>
						<path id="Caminho_199" class="st1" d="M5.6,1.9c0,0,31.1-4.3,48.3,0l12.9,42.8h-50C16.8,44.7,22.5,19.1,5.6,1.9z"/>
					</g>
					<g id="Grupo_64" transform="translate(20.952 131.019)">
						<path id="Caminho_200" class="st8" d="M100.2,1.7v2.7c0,0.9-0.3,1.7-0.7,1.7H0.7C0.3,6.2,0,5.4,0,4.4V1.7C0,0.8,0.3,0,0.7,0
							h98.8C99.9,0,100.2,0.8,100.2,1.7z"/>
						<path id="Caminho_201" class="st9" d="M100.2,1.7v2.7c0,0.9-0.3,1.7-0.6,1.7H21.1c-0.4,0-0.6-0.8-0.6-1.7V1.7
							c0-0.9,0.3-1.7,0.6-1.7h78.5C99.9,0,100.2,0.8,100.2,1.7z"/>
						<rect id="Retângulo_317" x="5" y="6.1" class="st8" width="70.2" height="102.2"/>
						<rect id="Retângulo_318" x="24.7" y="6.1" class="st10" width="70.2" height="102.2"/>
						<g id="Grupo_63" transform="translate(28.445 9.023)">
							<g id="Grupo_60">
								<path id="Caminho_202" class="st8" d="M62.6,93.7H0V0h62.6V93.7z M0.7,93h61.3V0.7H0.7L0.7,93z"/>
							</g>
							<g id="Grupo_61" transform="translate(0.35 31.022)">
								<rect id="Retângulo_319" x="0" y="0" class="st8" width="61.9" height="0.7"/>
							</g>
							<g id="Grupo_62" transform="translate(0.35 62.613)">
								<rect id="Retângulo_320" x="0" y="0" class="st8" width="61.9" height="0.7"/>
							</g>
							<path id="Caminho_203" class="st8" d="M37.7,6.1H26.2c-0.6,0-1-0.4-1-1c0,0,0,0,0,0l0,0c0-0.6,0.4-1,1-1c0,0,0,0,0,0h11.5
								c0.6,0,1,0.4,1,1c0,0,0,0,0,0l0,0C38.7,5.6,38.2,6,37.7,6.1z"/>
							<path id="Caminho_204" class="st8" d="M37.7,37H26.2c-0.6,0-1-0.4-1-1c0,0,0,0,0,0l0,0c0-0.6,0.4-1,1-1h11.5c0.6,0,1,0.4,1,1
								c0,0,0,0,0,0l0,0C38.7,36.5,38.2,37,37.7,37z"/>
							<path id="Caminho_205" class="st8" d="M37.7,69.2H26.2c-0.6,0-1-0.4-1-1c0,0,0,0,0,0l0,0c0-0.6,0.4-1,1-1c0,0,0,0,0,0h11.5
								c0.6,0,1,0.4,1,1c0,0,0,0,0,0l0,0C38.7,68.7,38.2,69.2,37.7,69.2z"/>
						</g>
					</g>
					<g id="Grupo_71" transform="translate(0 47.927)">
						<g id="Grupo_66" transform="translate(44.218 32.969)">
							<path id="Caminho_206" class="st11" d="M9.8,14c0,0-5.8-6.8-0.4-11c0,0,4-2.4,7.2-2.2c0,0-4.6,7.7-3.1,8.4S18,0.3,18,0.3
								s9-0.9,11.9,0.5c0,0-7.7,6.3-6.1,6.7s9.9-5.8,9.9-5.8s8.4,1.4,8,6.6c-0.4,5.1-3.3,6.7-4.6,6.6c-1.3-0.1-8.7-3-8.9-1.9
								c-0.2,1,4.3,4.4,7.5,4.6c0,0-5.9,6.5-9.9,4.6c-3.9-1.9-4.3-4.9-6.7-6c-2.4-1.1-4.5-1.1-3.5,0s5.4,2.3,6.9,4.7
								c1.4,2.5,2.7,4.2-1.4,3.5s-10.7-3.6-11-7L9.8,14z"/>
							<g id="Grupo_65" transform="translate(0 8.314)">
								<path id="Caminho_207" class="st11" d="M37.6,0c0,0-22.8-0.9-27.8,5.6c-1,2.5-2.5,4.6-4.5,6.4l-0.5,1.5c0,0,4-4.2,5.4-4.4
									C10,9.1,7.8,1,37.6,0z"/>
								<path id="Caminho_208" class="st11" d="M5.2,12.1C2.2,14.6,0.3,18.2,0,22.1l0.9,0.1c0,0,1.6-6.7,4.4-9.3
									C8.1,10.3,5.2,12.1,5.2,12.1z"/>
							</g>
						</g>
						<g id="Grupo_68" transform="translate(0 14.66)">
							<path id="Caminho_209" class="st12" d="M33.8,23.8c0,0,9.2-5.2,4.9-12.1c0,0-3.4-4.3-7.1-5.4c0,0,2,10.4,0,10.7
								S30.2,5.2,30.2,5.2s-9.7-4.7-13.5-4.3c0,0,6,10.2,4,9.9S12,0.3,12,0.3s-9.9-1.8-11.5,4s1,8.8,2.4,9.2s10.9,0.2,10.7,1.5
								S7,18.2,3.4,17c0,0,3.9,9.7,9.1,9.2c5.2-0.5,6.8-3.7,9.9-3.9c3.2-0.2,5.5,0.6,3.9,1.5s-7,0.3-9.6,2.5s-4.7,3.5,0.1,4.5
								s13.4,0.4,15.1-3.3L33.8,23.8z"/>
							<g id="Grupo_67" transform="translate(5.069 6.17)">
								<path id="Caminho_210" class="st11" d="M0,0c0,0,25.8,8.3,28.7,17.7c0.1,3.1,0.9,6.2,2.4,9v1.8c0,0-2.7-6.2-4.2-7.1
									C27,21.3,32.7,13.2,0,0z"/>
								<path id="Caminho_211" class="st11" d="M31.2,26.6c2.4,4,3,8.9,1.7,13.4l-1-0.3c0,0,1-8.1-1.1-12.1S31.2,26.6,31.2,26.6z"/>
							</g>
						</g>
						<g id="Grupo_70" transform="translate(40.42)">
							<path id="Caminho_212" class="st12" d="M8,31.4c0,0-12.1-6.8-6.5-16c0,0,4.5-5.7,9.4-7.1c0,0-2.6,13.7,0,14.1
								s1.8-15.5,1.8-15.5s12.8-6.1,17.8-5.7c0,0-7.9,13.4-5.3,13.1S36.6,0.4,36.6,0.4s13.1-2.4,15.2,5.3c2.1,7.8-1.3,11.6-3.2,12.1
								s-14.4,0.3-14.1,1.9c0.3,1.6,8.7,4.2,13.4,2.8c0,0-5.2,12.8-11.9,12.1c-6.8-0.7-8.9-4.9-13.1-5.2s-7.3,0.8-5.2,1.9
								s9.2,0.4,12.6,3.3s6.1,4.7-0.2,6c-6.3,1.3-17.6,0.5-19.9-4.4L8,31.4z"/>
							<g id="Grupo_69" transform="translate(1.565 8.115)">
								<path id="Caminho_213" class="st11" d="M44.2,0c0,0-33.9,11-37.8,23.3c-0.1,4.1-1.2,8.2-3.2,11.8v2.4c0,0,3.6-8.2,5.5-9.4
									C8.7,28.1,1.1,17.4,44.2,0z"/>
								<path id="Caminho_214" class="st11" d="M3.2,35.1c-3.2,5.3-4,11.7-2.3,17.6l1.4-0.4c0,0-1.3-10.7,1.4-16
									C6.5,31,3.2,35.1,3.2,35.1z"/>
							</g>
						</g>
						<path id="Caminho_215" class="st13" d="M71.7,58c0,13.1-10.6,23.7-23.7,23.7S24.2,71.2,24.2,58H71.7z"/>
						<path id="Caminho_216" class="st14" d="M56.1,58c0,8.9-2.1,18-9.4,22c-1.2,0.7-5.2-0.1-6.6,0.4C30.6,77.1,24.2,68.1,24.3,58
							H56.1z"/>
						<path id="Caminho_217" class="st13" d="M72.1,83H23.9c0-1.6,1.3-2.9,2.9-2.9c0,0,0,0,0,0h42.3C70.8,80.1,72.1,81.4,72.1,83z"
							/>
						<path id="Caminho_218" class="st14" d="M49.5,83H23.9c0-1.6,1.3-2.9,2.9-2.9c0,0,0,0,0,0h19.7C48.2,80.1,49.5,81.4,49.5,83z"
							/>
						<rect id="Retângulo_321" x="23.5" y="58" class="st15" width="48.8" height="0.7"/>
					</g>
					<g id="Grupo_81" transform="translate(80.338 102.445)">
						<path id="Caminho_219" class="st14" d="M2.3,14.8c0-6.2,5-11.2,11.2-11.2s11.2,5,11.2,11.2S19.7,26,13.5,26
							C7.3,26,2.3,21,2.3,14.8z"/>
						<g id="Grupo_72" transform="translate(4.748 22.279)">
							<path id="Caminho_220" class="st14" d="M1.4,0.7L0.1,4.8C-0.1,5.4,0.2,6,0.7,6.2c0.1,0,0.2,0,0.3,0.1h0.3
								c0.3,0,0.5-0.1,0.7-0.3l3.1-2.8c0.4-0.4,0.5-1,0.1-1.5C5.2,1.6,5.1,1.5,5,1.5l-2-1.3C2.5-0.1,1.8,0,1.5,0.5
								C1.4,0.6,1.4,0.6,1.4,0.7z"/>
							<path id="Caminho_221" class="st14" d="M16.8,0.7l1.3,4.1c0.2,0.6-0.1,1.2-0.7,1.3c-0.1,0-0.2,0-0.3,0.1h-0.3
								c-0.3,0-0.5-0.1-0.7-0.3L13,3.2c-0.4-0.4-0.5-1-0.1-1.5c0.1-0.1,0.2-0.1,0.2-0.2l2.1-1.3c0.5-0.3,1.1-0.2,1.4,0.3
								C16.7,0.6,16.7,0.7,16.8,0.7z"/>
						</g>
						<path id="Caminho_222" class="st14" d="M2.5,1.5C0.4,3.2-0.5,6,0.2,8.6c0.3,1,1.3,1.7,2.4,1.4c0.3-0.1,0.5-0.2,0.7-0.4L10.3,4
							c0.8-0.7,1-1.9,0.3-2.7c-0.2-0.2-0.3-0.4-0.6-0.5C7.6-0.5,4.7-0.2,2.5,1.5z"/>
						<path id="Caminho_223" class="st14" d="M25.1,2.5c-1.9-1.9-4.8-2.5-7.3-1.6c-1,0.4-1.5,1.5-1.2,2.5c0.1,0.3,0.3,0.5,0.5,0.7
							l6.3,6.4c0.7,0.8,2,0.8,2.7,0c0.2-0.2,0.3-0.4,0.4-0.6C27.6,7.3,27,4.4,25.1,2.5z"/>
						<path id="Caminho_224" class="st1" d="M4.4,14.8c0-5,4.1-9.1,9.1-9.1c5,0,9.1,4.1,9.1,9.1c0,5-4.1,9.1-9.1,9.1l0,0
							C8.5,23.9,4.4,19.8,4.4,14.8z"/>
						<g id="Grupo_80" transform="translate(5.87 7.165)">
							<g id="Grupo_73" transform="translate(0.943 3.902)">
								<path id="Caminho_225" class="st10" d="M13.2,7.1c0.2,0.1,0.3,0.4,0.2,0.6c-0.1,0.2-0.4,0.3-0.6,0.2
									c-0.2-0.1-0.3-0.4-0.2-0.6C12.7,7.1,13,7,13.2,7.1z"/>
								<path id="Caminho_226" class="st10" d="M0.7,0.1C0.9,0.2,1,0.4,0.8,0.7C0.7,0.9,0.5,1,0.2,0.8C0,0.7-0.1,0.4,0.1,0.2
									C0.2,0,0.5-0.1,0.7,0.1z"/>
							</g>
							<g id="Grupo_79">
								<g id="Grupo_74" transform="translate(7.188)">
									<path id="Caminho_227" class="st10" d="M0,0.5C0,0.2,0.2,0,0.5,0c0.3,0,0.5,0.2,0.5,0.5c0,0.3-0.2,0.5-0.5,0.5l0,0
										C0.2,0.9,0,0.7,0,0.5z"/>
									<path id="Caminho_228" class="st10" d="M0,14.8c0-0.3,0.2-0.5,0.5-0.5c0.3,0,0.5,0.2,0.5,0.5c0,0,0,0,0,0
										c0,0.3-0.2,0.5-0.5,0.5C0.2,15.3,0,15.1,0,14.8z"/>
								</g>
								<g id="Grupo_75" transform="translate(3.385 1.091)">
									<path id="Caminho_229" class="st10" d="M7.7,0.2C7.8,0,8.1-0.1,8.3,0.1c0.2,0.1,0.3,0.4,0.2,0.6C8.3,0.9,8,1,7.8,0.9
										C7.6,0.7,7.5,0.4,7.7,0.2C7.7,0.2,7.7,0.2,7.7,0.2z"/>
									<path id="Caminho_230" class="st10" d="M0.1,12.4c0.1-0.2,0.4-0.3,0.6-0.2c0.2,0.1,0.3,0.4,0.2,0.6
										c-0.1,0.2-0.4,0.3-0.6,0.2C0,12.9-0.1,12.6,0.1,12.4C0.1,12.4,0.1,12.4,0.1,12.4z"/>
								</g>
								<g id="Grupo_76" transform="translate(0.922 3.674)">
									<path id="Caminho_231" class="st10" d="M12.8,0.1c0.2-0.1,0.5,0,0.6,0.2c0.1,0.2,0,0.5-0.2,0.6c-0.2,0.1-0.5,0-0.6-0.2
										C12.5,0.5,12.5,0.2,12.8,0.1C12.7,0.1,12.7,0.1,12.8,0.1z"/>
									<path id="Caminho_232" class="st10" d="M0.2,7.1C0.5,7,0.7,7,0.8,7.3c0.1,0.2,0,0.5-0.2,0.6C0.5,8,0.2,7.9,0.1,7.7
										C-0.1,7.5,0,7.2,0.2,7.1C0.2,7.1,0.2,7.1,0.2,7.1z"/>
								</g>
								<g id="Grupo_77" transform="translate(0 7.188)">
									<path id="Caminho_233" class="st10" d="M14.8,0c0.3,0,0.5,0.2,0.5,0.5c0,0.2-0.2,0.5-0.4,0.5c0,0,0,0,0,0
										c-0.3,0-0.5-0.2-0.5-0.5C14.4,0.2,14.6,0,14.8,0L14.8,0L14.8,0z"/>
									<path id="Caminho_234" class="st10" d="M0.5,0c0.3,0,0.5,0.2,0.5,0.5c0,0.2-0.2,0.5-0.4,0.5c0,0,0,0,0,0
										C0.2,0.9,0,0.7,0,0.5C0,0.2,0.2,0,0.5,0C0.4,0,0.5,0,0.5,0z"/>
								</g>
								<g id="Grupo_78" transform="translate(3.674 0.725)">
									<path id="Caminho_235" class="st10" d="M7.9,12.8c0.1,0.2,0,0.5-0.2,0.6c-0.2,0.1-0.5,0-0.6-0.2C7,13,7,12.7,7.2,12.6
										C7.5,12.5,7.7,12.6,7.9,12.8C7.9,12.8,7.9,12.8,7.9,12.8z"/>
									<path id="Caminho_236" class="st10" d="M0.8,0.2c0.1,0.2,0,0.5-0.2,0.6C0.5,1,0.2,0.9,0.1,0.7c-0.1-0.2,0-0.5,0.2-0.6
										C0.4-0.1,0.7,0,0.8,0.2C0.8,0.2,0.8,0.2,0.8,0.2z"/>
								</g>
							</g>
						</g>
						<path id="Caminho_237" class="st14" d="M12.8,14.8c0-0.4,0.3-0.7,0.7-0.7s0.7,0.3,0.7,0.7c0,0.4-0.3,0.7-0.7,0.7
							C13.1,15.5,12.8,15.2,12.8,14.8z"/>
						<path id="Caminho_238" class="st14" d="M8.9,14.6c1.5-0.1,4.3-0.3,4.3-0.3v0.8l-4.3-0.4C8.8,14.7,8.8,14.6,8.9,14.6z"/>
						<path id="Caminho_239" class="st14" d="M13.7,9.7c0.1,2.1,0.2,5.1,0.2,5.1h-0.8l0.3-5.1C13.5,9.5,13.7,9.5,13.7,9.7z"/>
					</g>
					<path id="Caminho_240" class="st9" d="M481.7,156.7c0,0-49.5-22.5-58.4-22.6c-8.9-0.1-49.4,11.1-58.6,9.2
						c-9.3-1.9-60.5-17.7-67.5-17.8s-116.5,11.6-132.9,31c-3,3.6,47.8,70.8,77.6,67c19.8-2.5,64-67.7,69.5-68.6s111.8,1.3,111.8,1.3
						C447.2,156.3,481.7,156.7,481.7,156.7z"/>
					<g id="Grupo_83" transform="translate(245.331 0)">
						<path id="Caminho_241" class="st16" d="M74.5,0.6c0,0-8.5,0.6-11.8,8.9c-3.3,8.2-8.3,14.4-5.7,18c2.6,3.7,5.9,5.9,5.1,7.6
							s-6,1.7-10,5.9s-11.4,16.3,0.2,18.7c8.9,1.8,2.3,13,8.1,17.4c7.5,5.6,33.2,11.1,41.6,4.5c8.4-6.6,5.4-19.9,2.7-24.5
							c-2.7-4.6,6.1-11.1,7.4-13.4c5.4-9.2-12-10.4-9.5-15.6s5.2-10.2-3.2-15C95.4,10.8,93-2.9,74.5,0.6z"/>
						<path id="Caminho_242" class="st17" d="M166.5,140.6c-1.5,16.1-12.3,16.2-52.9,15.7c-13.1-0.2-25.5-0.3-36.2-0.6
							c-22.4-0.5-12.6-7.1-10.4-6.6c4,1.1,8.3,1,12.3-0.2c11.8-3.6,28.8-11.9,36.5-11.4c11.9,0.6,27.3-0.3,27.3-0.3
							s-41.9-5.4-43.5-12.6c-1.5-7.1-24.1-18.5-19.2-19.4c4.9-0.9,22.8,1.6,22.8,1.6c7.1,3.4,14.3,6.3,21.8,8.6
							C143.8,121.3,167.6,128.4,166.5,140.6z"/>
						<path id="Caminho_243" class="st18" d="M90,53.6c-3.6,1.7-10.7,1.4-13.8-1.1c-1.6-1.3-2.3-1.9-1.4-3.1c1.6-1.1,3.4-7.3,1.7-17
							l0.8,0l13.1,0.3c0,0,0.4,4,1,7.8c0.5,3.1,1.2,6.3,2,6.5C95.4,48,97.6,50.1,90,53.6z"/>
						<path id="Caminho_244" class="st17" d="M90.3,32.8c0,0,0.4,4,1,7.8c-7.1,1-12-4.8-14.1-8.1L90.3,32.8z"/>
						<g id="Grupo_82" transform="translate(68.018 5.438)">
							<path id="Caminho_245" class="st18" d="M26.3,28.7c0,0-15.9,6.1-19.5-3.9S-1.3,9,8.7,4.7S22,3.4,24,6.5
								C26.1,9.5,30.4,26.9,26.3,28.7z"/>
							<path id="Caminho_246" class="st16" d="M15.9,1.8c0,0-0.1,13.3-6.2,17.4S0,22.6,0,22.6c2.3-4.1,3-8.9,2.1-13.5
								C2.1,9.1,10.6-2.6,15.9,1.8z"/>
							<path id="Caminho_247" class="st16" d="M15.1,3.1c0,0,4.2,1.4,5.9,3.7c1.7,2.3,4.2,4.3,5.4,6.6c0,0,0.4-9.1-4.9-12.3
								C15.9-2.2,15.1,3.1,15.1,3.1z"/>
							<path id="Caminho_248" class="st16" d="M15.9,3.3c0,0,1.3,13.3-5.7,20.3c0,0,5.7-10.6,3.5-18.9S15.9,3.3,15.9,3.3z"/>
						</g>
						<path id="Caminho_249" class="st1" d="M88.8,29.9c0,0,5.2-2.3,5.4-2.4c0.1-0.2,0,1,0.3,1.6c0.3,0.6-1.6,1.5-2.5,1.9
							C90.8,31.5,89.4,31.1,88.8,29.9z"/>
						<path id="Caminho_250" class="st18" d="M90.5,46c0,0,7.1,1.4,16.9-6.9c3.9-3.3,20.3-13.9,25.2-17.2s20.6-9.7,20.6-9.7l3,3
							c0,0-18.1,15.4-19.8,16.1s-18.2,16-18.9,17.5c-0.6,1.4-7.2,7.3-6.6,14.7C111.3,67.7,90.5,46,90.5,46z"/>
						<path id="Caminho_251" class="st18" d="M76,47.2c-3.8,0.1-7.4-1.4-10-4.2c-3.4-3.7-20.3-13.9-25.2-17.2S15.7,15.5,15.7,15.5
							l-1.8,2.8c0,0,21.4,16.2,23.1,16.9s14.4,12.7,16.5,16.4c2,3.5,7.8,11.9,10,15.7C66.8,73.1,76,47.2,76,47.2z"/>
						<path id="Caminho_252" class="st18" d="M101,46c0,0,10.6,16.8,11.2,20.5c0.6,3.7-4.6,21.1-4.8,23.6s-4.3,16.6-4.3,16.6H71.8
							c0,0-1.6-22.7-3.9-28.6s-7.5-18.3-7.5-18.3l16.7-10.9L101,46z"/>
						<path id="Caminho_253" class="st18" d="M192.2,217l-8.2,1.4c-0.8-1.5-1.6-2.9-2.4-4.3c-7-11.7-16.9-22.7-23.4-31
							c-19.3-24.6,6-33.3-35.5-32.5c-41.5,0.7-57.6-6.3-57.8-18.5c-0.1-4.7,7.1-25.3,7.1-25.3h31.3c0,0-3.2,2.4-1.9,5.3
							c1.3,2.9,44.7,15.4,50.7,17.2c10.5,3.2,11.6,11.9,19.6,31.1c4.1,10,13.9,37.6,18.3,50.2C191.4,214.5,192.2,217,192.2,217z"/>
						<path id="Caminho_254" class="st18" d="M18.2,16.5c0,0-4.9-3.4-7.5-3.8s-5.4-1-4.9,0c0.5,1,3.6,1,3.3,2.1s-9.9-0.5-9.1,1.7
							c0.8,2.3,6.9,3.9,9.1,3.9c2.8-0.2,5.6-0.6,8.4-1.1L18.2,16.5z"/>
						<path id="Caminho_255" class="st18" d="M152.9,12.3c0,0,4.9-3.4,7.5-3.8s5.4-1,4.9,0c-0.5,1-3.6,1-3.3,2.1s9.9-0.5,9.1,1.7
							c-0.8,2.3-6.9,3.9-9.1,3.9c-2.8-0.2-5.6-0.6-8.4-1.1L152.9,12.3z"/>
						<path id="Caminho_256" class="st1" d="M73.7,47.1c0,0,9.2,19.6-8.1,24.9l4.9,19.6c0,0,9.7,7.6,36.8,0.2c0,0,6-18.2,4.9-25.4
							c-1-6.7-16.2-21-16.2-21l-1.9,0.2c0,0,7.5,10.2,7.1,13.1s-11.4,5.4-18.5,1c-2.1-1.3-6.9-12.6-6.9-12.6L73.7,47.1z"/>
						<path id="Caminho_257" class="st13" d="M103.6,106.2l18.6,8.2c0,0-1.6,4.3-9.8,4.9c-6.2,0.5-15.3-7-15.9-10.7L103.6,106.2z"/>
						<path id="Caminho_258" class="st13" d="M71.9,106.7c-0.4-0.5-0.4-1.2-0.1-1.8c10.3,3.6,21.5,3.7,31.9,0.2c0,0,0.4,0.6-0.4,1.5
							C93.2,110.4,82,110.5,71.9,106.7z"/>
						<path id="Caminho_259" class="st1" d="M204,238.4c-1.1,1.7-8.7,2-9.9,0c-1.2-2-2.3-6.4-5.4-8.5c-3.1-2.2-6.8-3.3-5.4-6.7
							s0.9-4.8,0.9-4.8c-0.8-1.5-1.6-2.9-2.4-4.3c2.9-0.8,5.8-2,8.4-3.6c1.4,4,2.3,6.4,2.3,6.4s5.5,9.2,6.6,13.6
							S205.1,236.7,204,238.4z"/>
						<path id="Caminho_260" class="st1" d="M88.2,155.9c-22.4-0.5-38.7-1.4-38.4-2.4c0.4-1.4,1.7-4.2,8.9-4.8s8.5-4.3,12.4-4.5
							s3.4,4.3,5.6,4.8c0.8,0.2,5.6-1.3,12.1-3.3C89,148.7,89.8,152.6,88.2,155.9z"/>
						<path id="Caminho_261" class="st14" d="M71.9,106.7c1.9-0.3,10.1,5.7,29.5,0.5c3.1,2.8,6.3,5.4,9.6,7.7
							c2.2,1.4,4.6,2.7,6.9,3.8c0,0,2.1,24.1-34.8,30.5c0,0-19.7-1.9-20.1-17.7C62.7,115.6,71.9,106.7,71.9,106.7z"/>
					</g>
					<path id="Caminho_262" class="st9" d="M435.3,156.3c0,0,27.1,12.6,29.8,11.4c2.7-1.2,16.6-11,16.6-11l-22.8-3.3L435.3,156.3z"
						/>
					<path id="Caminho_263" class="st9" d="M242,223.5c-1.2,2.2-1.2,4.8,0,7c1.8-0.1,3.4-0.7,4.8-1.9
						C246.7,228.7,246,223.7,242,223.5z"/>
					<path id="Caminho_264" class="st9" d="M464.6,167.2c-0.8,1.6-1,3.4-0.4,5c0,0,2.8,0.4,4.2-0.6
						C468.4,171.7,467.1,167.5,464.6,167.2z"/>
				</g>
			</g>
		</g>
	</g>
</g>
</svg>
