<?xml version="1.0" encoding="utf-8"?>
<!-- Generator: Adobe Illustrator 24.0.0, SVG Export Plug-In . SVG Version: 6.00 Build 0)  -->
<svg version="1.1" id="_x31_" xmlns="http://www.w3.org/2000/svg" xmlns:xlink="http://www.w3.org/1999/xlink" x="0px" y="0px"
	 viewBox="0 0 410.1 306.4" style="enable-background:new 0 0 410.1 306.4;" xml:space="preserve">
<style type="text/css">
	.st0{opacity:0.2;fill:#777777;enable-background:new    ;}
	.st1{clip-path:url(#SVGID_2_);}
	.st2{fill:#FFAF73;}
	.st3{clip-path:url(#SVGID_4_);}
	.st4{fill:#BC5F2B;}
	.st5{fill:#232323;}
	.st6{opacity:0.2;fill:#352836;enable-background:new    ;}
	.st7{fill:none;}
	.st8{fill:#DB6A4B;}
	.st9{fill:#512C27;}
	.st10{fill:#492622;}
	.st11{fill:#301A12;}
	.st12{fill:#FFF2EE;}
	.st13{fill:#512F2F;}
	.st14{display:none;}
	
		.st15{display:inline;fill:#FFFFFF;stroke:#BCBEC0;stroke-width:16;stroke-linecap:round;stroke-linejoin:round;stroke-miterlimit:10;}
	.st16{fill:#FFFFFF;stroke:#FFFFFF;stroke-width:14;stroke-linecap:round;stroke-linejoin:round;stroke-miterlimit:10;}
	.st17{fill-rule:evenodd;clip-rule:evenodd;fill:#C6DBE5;}
	.st18{fill:#5E0000;}
	.st19{fill-rule:evenodd;clip-rule:evenodd;fill:#7EB0BC;}
	
		.st20{fill-rule:evenodd;clip-rule:evenodd;fill:#C6DBE5;stroke:#5E0000;stroke-width:1.0453;stroke-linecap:round;stroke-linejoin:round;stroke-miterlimit:10;}
	.st21{fill-rule:evenodd;clip-rule:evenodd;fill:#D81919;}
</style>
<g>
	<g>
		<g>
			<g>
				<ellipse class="st0" cx="204.8" cy="107.5" rx="100.7" ry="100.7"/>
			</g>
			<g>
				<g>
					<g>
						<defs>
							<circle id="SVGID_1_" cx="204.8" cy="107.5" r="100.7"/>
						</defs>
						<clipPath id="SVGID_2_">
							<use xlink:href="#SVGID_1_"  style="overflow:visible;"/>
						</clipPath>
						<g class="st1">
							<path class="st2" d="M196.3,105.8l30.3-24.5c0,0-7.1,35.4-0.3,49.7c-12.4,6.6-25.1,3.7-36.9-2.9c3.3-8.7,4.6-26.2,4.6-26.2
								L196.3,105.8z"/>
						</g>
					</g>
				</g>
				<g>
					<g>
						<defs>
							<circle id="SVGID_3_" cx="204.8" cy="107.5" r="100.7"/>
						</defs>
						<clipPath id="SVGID_4_">
							<use xlink:href="#SVGID_3_"  style="overflow:visible;"/>
						</clipPath>
						<g class="st3">
							<g>
								<path class="st2" d="M274.9,162.7c0,0,3.2,29.4,3.2,39.3l-27.4,1.8v-27.7L274.9,162.7z"/>
								<path class="st4" d="M257.1,178.2c-2.1,0.8-4.3,1.6-6.4,2.3v-4.4l24.2-11.1c0,0,0.2,2.1,0.6,5.4
									C267.9,173.5,264.8,175.2,257.1,178.2z"/>
							</g>
							<g>
								<path class="st5" d="M225.8,128.5c0,0-16.9,9.2-36.4-0.4c0,0-11.6-4.8-24.1-6.4c-9-1.2-26.4-0.4-36-1.8
									c0,0-1.2,31.1,1.1,40.3l12.8,2.1c0,0-1.2,28.6-0.3,40s83,19.7,108.1,12l2.5-38.2l28.8-12.7c0,0-4-18.7-18.5-28.3
									C252.9,127.9,225.8,128.5,225.8,128.5z"/>
								<path class="st6" d="M169.4,196.1c28.6-3.5,58.1-5.5,84.1-18.7l-2.4,36.9c-25.2,7.8-107.2-0.5-108.1-12
									c-0.1-1-0.1-2.2-0.2-3.5C151.7,198.3,160.6,197.2,169.4,196.1z"/>
							</g>
						</g>
					</g>
				</g>
			</g>
			<g>
				<g>
					<path class="st2" d="M111.3,77.4c0,0,0.5-0.6,1.2-1.6c3.9-5.2,15.1-20.5,0-6.6c-18,16.5-2.4,8.8-2.4,8.8"/>
					<path class="st2" d="M94.2,44.7c3.1-1.3,2.6,7.4,2.3,10.5c0.4-3.8,2-16.1,4.8-15.7c3.2,0.5,1.2,18,1.2,18s2.9-14.6,4.3-14.6
						s0.9,16.2,0.9,16.2s1.4-10.7,4.6-10.7S106,126,106,126l23.3,2.3c-0.2,6.2-0.5,14,0.4,23.9c-13.1-1.2-43.1-5-45.1-12.1
						C81.3,128.1,92.1,45.6,94.2,44.7z"/>
					<path class="st4" d="M127.3,128l1.9,0.2c-0.2,6.2-0.5,14,0.4,23.9c-0.9-0.1-2-0.2-3.1-0.3C125.2,144.7,125.7,138.9,127.3,128z"
						/>
				</g>
			</g>
			<rect x="149.3" y="158.3" class="st7" width="104.9" height="10.2"/>
		</g>
		<g>
			<path class="st2" d="M178.4,72.6c-0.6-6.7-3.5-10.3-6.3-10.3s-4.6,3.6-4,10.3s5.3,9.8,8.2,9.8C179.1,82.4,179.1,79.3,178.4,72.6z
				"/>
			<path class="st8" d="M179.1,72.7c-0.5-4.8-3.1-7.4-5.6-7.4s-4,2.6-3.5,7.4s4.7,7,7.2,7S179.6,77.5,179.1,72.7z"/>
			<path class="st2" d="M177.7,75.5c-0.3-2.4-1.7-3.7-3.1-3.7c-1.4,0-2.2,1.3-1.9,3.7c0.3,2.4,2.6,3.5,4,3.5
				C178,79,178,77.9,177.7,75.5z"/>
			<path class="st2" d="M234.7,72.4c0.9-6.6,4-10,7-9.7c3,0.2,4.7,4,3.8,10.6c-0.9,6.6-5.9,9.3-8.9,9
				C233.6,82.1,233.8,79,234.7,72.4z"/>
			<path class="st8" d="M236.1,72.5c0.6-4.8,2.9-7.2,5.1-7c2.2,0.2,3.4,2.9,2.7,7.7c-0.6,4.8-4.3,6.7-6.4,6.5
				C235.3,79.6,235.5,77.3,236.1,72.5z"/>
			<path class="st2" d="M237,75.5c0.4-2.7,1.6-4,2.8-3.9s1.9,1.6,1.5,4.3c-0.4,2.7-2.4,3.8-3.6,3.7C236.6,79.4,236.7,78.1,237,75.5z
				"/>
			<path class="st9" d="M235.6,87.3c0,0,6.3-64.6,1.2-72.3s-35-12.7-39.7-11.5c-10.2,2.7-8.4,10.7-8.4,10.7s-5.1,0-8.6,2.6
				s-8.2,39.2-2.3,67C183.6,111.5,235.6,87.3,235.6,87.3z"/>
			<path class="st10" d="M202.9,59.7c15.6,0,29-9.6,35.8-23.5C238.4,57.7,238,87,238,87s-47.7,2.7-62.3-1.7c-0.4-12-1-26.2-0.6-37.7
				C182.3,55,192.1,59.7,202.9,59.7z"/>
			<path class="st2" d="M236.9,101.3c-0.4,3.6-14,19.1-29.5,19.1s-28.3-14.1-31-19.8s8.2-78.6,14.5-84.7s31.8-2.1,33.9,1.1
				C229.9,24.6,238.5,87.1,236.9,101.3z"/>
			<path class="st9" d="M175.7,55.1l3.5,0.8c0.3,14.9,4.9,25.1,10.5,25.1s10.5-5,15.7-5s7.3,5,18.5,5.3c11.2,0.4,9.1-8.4,10.5-24
				l2.1,1.1c0,0,6.3,27.4,1.7,43.4c-4.5,16-31.8,23.2-31.8,23.2c-20.3-1.5-30.4-21-31.4-23.2C173.9,99.6,175.7,55.1,175.7,55.1z"/>
			<path class="st2" d="M230.6,47.5c-2.2,1.1-11-22.5-12.9-26.5c-1.8-4-1.5-8.1,0.7-9.2s5.5,1.2,7.4,5.1
				C227.6,20.9,232.8,46.3,230.6,47.5z"/>
			<path class="st2" d="M183.2,45.7c-2.3-0.8,3.9-24.8,5.2-29c1.4-4.2,4.4-6.9,6.7-6c2.3,0.8,3.1,4.9,1.8,9
				C195.5,23.8,185.5,46.5,183.2,45.7z"/>
			<path class="st9" d="M195.6,13.9c0-2.5,5-4.6,11.2-4.6s11.2,2.1,11.2,4.6s-5,4.6-11.2,4.6S195.6,16.4,195.6,13.9z"/>
			<path class="st9" d="M214.1,47.5c-0.2-1.4,0-2.6,0.4-3.5c1.2-2.3,14.6,3.5,15,7.3l0.3,2.4c0.3,2.8-3.9-0.2-7.8-1
				c-3.7-0.8-7.1,0.8-7.5-1.8L214.1,47.5z"/>
			<path class="st9" d="M200.7,48.5c0.2-1.4,0.1-2.7-0.4-3.6c-1.1-2.5-14.7,1.2-15.2,5l-0.3,2.4c-0.3,2.8,3.9,0.4,7.8,0.3
				c3.7-0.2,7.1,2,7.5-0.7L200.7,48.5z"/>
			<path class="st8" d="M211.7,82.5c0,0.4-3.7,2.8-5,2.8c-2.2,0-4.9-2.3-5-3.1c-0.2-1.8,3.4-22.3,4.7-22.5
				C207.7,59.5,211.8,79.8,211.7,82.5z"/>
			<path class="st2" d="M209.4,83c0,0.5-2.1,1.2-2.8,1.2c-1.2,0-2.7-0.7-2.8-1.5c-0.1-2-1.1-24.9,2.6-24.7
				C210.5,58.3,209.4,80.1,209.4,83z"/>
			<path class="st9" d="M199.8,12.4c-4.2-2-9.9-1.8-8.3,7c0,0,2-4.5,8.9-1.8L199.8,12.4z"/>
			<g>
				<path class="st11" d="M218.2,90.2c0,0-1.9,11.3-3.7,11.9c-3.6,1.1-12.9,0.9-15.4,0.3c-2-0.5-4.2-12.9-4.2-12.9L218.2,90.2z"/>
				<path class="st12" d="M196.2,90.1l21.4,0.6l-2.8,10.8c-2.4,0.8-14.5,1.1-16.2,0L196.2,90.1z"/>
				<path class="st11" d="M193.4,88.8c0.2-0.4,0.8-0.5,1.4-0.2c0.6,0.3,0.9,0.8,0.8,1.2c-0.2,0.4-0.8,0.5-1.4,0.2
					C193.6,89.8,193.2,89.2,193.4,88.8z"/>
				<path class="st11" d="M217.2,90.6c-0.1-0.4,0.3-0.9,0.9-1c0.6-0.2,1.2,0,1.3,0.4s-0.3,0.9-0.9,1C217.9,91.2,217.3,91,217.2,90.6
					z"/>
			</g>
			<path class="st10" d="M204.2,105.9c0-0.7,1.2-1.3,2.8-1.3c1.5,0,2.8,0.6,2.8,1.3c0,0.7-1.2,0.8-2.8,0.8
				C205.4,106.7,204.2,106.6,204.2,105.9z"/>
			<path class="st10" d="M205.4,117.6c0-1.6,0.7-2.8,1.5-2.8s1.5,1.3,1.5,2.8c0,1.6-0.7,1.7-1.5,1.7
				C206.1,119.3,205.4,119.1,205.4,117.6z"/>
			<path class="st13" d="M192.4,59.1c0.1-3.5,1.6-6.1,3.3-5.9c1.7,0.2,3.1,3.3,3,6.8s-1.6,6.1-3.3,5.9
				C193.6,65.6,192.3,62.6,192.4,59.1z"/>
			<path class="st13" d="M220.7,60.4c-0.1-3.5,1.2-6.2,3-6.1c1.8,0.1,3.2,3.1,3.3,6.6s-1.2,6.2-3,6.1
				C222.3,66.9,220.8,63.9,220.7,60.4z"/>
		</g>
	</g>
	<g>
		<g class="st14">
			<path class="st15" d="M397.8,226.1l-0.3-5.2l-0.7-3.2v-0.1l-0.4-1.2v-0.1l-0.3-0.8v-0.1l-6.9-15.6h3.6l0,0h0.1
				c0.3,0,0.5-0.2,0.6-0.4l0,0l0,0c0.1-0.1,0.1-0.2,0.1-0.3c0,0,0,0,0-0.1l0,0l1.5-16.8c0-0.1,0-0.3,0-0.4l-7.8-25.6l0,0
				c0,0,0,0,0-0.1s-0.1-0.2-0.2-0.3l0,0c0,0,0,0-0.1,0c-0.1-0.1-0.1-0.1-0.2-0.1c0,0-0.1,0-0.1-0.1c-0.1,0-0.2,0-0.3,0h-0.1
				l-42.6,1.9c-0.5,0-0.9,0.4-0.9,0.8l-3.8,28l-4.6-16.8l0,0v-0.1c0-0.1-0.1-0.2-0.1-0.3l0,0c0,0,0,0-0.1,0
				c-0.1-0.1-0.1-0.1-0.2-0.1s-0.1-0.1-0.2-0.1s-0.1,0-0.2,0h-0.1l-25.1,0.2c-0.3,0-0.6,0.2-0.8,0.4l-33.2,51.8
				c-0.1,0.1-0.1,0.3-0.2,0.5l-0.9,15.7l0,0c0,0.2,0.1,0.5,0.3,0.7l0,0l0,0l0.1,0.1l18.8,12.1c0.2,0.1,0.3,0.2,0.5,0.2l0,0l10.2-0.2
				l-0.6,9.1c0,0,0,0,0,0.1s0,0.2,0,0.3v0.1c0,0.1,0.1,0.2,0.2,0.3l0,0l0,0c0.1,0.1,0.1,0.1,0.2,0.1l12.9,7.7
				c0.1,0.1,0.3,0.1,0.5,0.1l9.4,0.1c0,0,0,0,0.1,0l7-0.1h0.1h0.7l0,0c0,0,0,0,0.1,0s0.2,0,0.3-0.1c0.1,0,0.2-0.1,0.3-0.2l0.1-0.1
				l0.1-0.1c0.1-0.1,0.2-0.3,0.2-0.5c0,0,0,0,0-0.1l2.6-28.3c1.7,1.7,3.6,3.2,5.7,4.5c0.4,0.2,0.9,0.5,1.3,0.7l0,0l16.2,8.3l1.5,0.7
				l3.1,1l3.7,0.6l3.5,0.1c0,0,0,0,0.1,0l1.4-0.1l3.6-0.6l4.5-1.5l2.9-1.6l3.5-2.7c0,0,0-0.1,0.1-0.1l2.9-3.1c0,0,0-0.1,0.1-0.1
				l1.3-1.8c0,0,0,0,0.1-0.1l1.6-2.7l1.7-4l1.2-4.8l0.4-4.6v-0.3L397.8,226.1z M348.2,214.8L348.2,214.8
				C348.2,214.9,348.2,214.9,348.2,214.8l-9.5,9.4l2-21.4l14.3,14c0.2,0.2,0.6,0.3,0.9,0.3l1.6-0.3l8.1-0.7h0.4h0.2h0.4h0.2l0.7,0.1
				h0.2l0.9,0.1c-0.5,1.1-1.1,2.2-2,3c-1.5,1.4-3.1,2.3-5.1,2.6c-1.4,0.2-2.8,0.1-4.2-0.3l-7.6-6.8c0,0,0,0-0.1,0c0,0-0.1,0-0.1-0.1
				c-0.1,0-0.2-0.1-0.3-0.1h-0.1l0,0C348.7,214.6,348.4,214.6,348.2,214.8z"/>
			<path class="st15" d="M252.3,221L252.3,221L252.3,221c-0.1-0.1-0.1-0.1-0.1-0.1c-0.1-0.1-0.1-0.1-0.2-0.1c0,0,0,0-0.1,0
				s-0.2-0.1-0.3-0.1l0,0l-10.1-0.1l3.7-36.6c0-0.1,0-0.3-0.1-0.4l-9.8-21.2c0-0.1-0.1-0.1-0.1-0.2l0,0l0,0
				c-0.1-0.1-0.2-0.1-0.2-0.2c0,0,0,0-0.1,0s-0.1,0-0.2,0l0,0l-19-0.1l0,0c-0.4,0-0.8,0.3-0.8,0.7l-2.4,32.5l-3.4-11.3
				c0,0,0,0,0-0.1c0,0,0-0.1-0.1-0.1l-0.1-0.1c0,0,0,0,0-0.1c0,0,0,0-0.1,0l-0.1-0.1h-0.1c-0.1,0-0.1,0-0.2,0h-0.1l-24.9,1.3V184
				c0-0.1,0-0.2,0-0.3l-5.3-21l0,0v-0.1c0-0.1-0.1-0.1-0.1-0.2l0,0c0,0,0,0-0.1,0s-0.1-0.1-0.2-0.1c0,0,0,0-0.1,0s-0.1,0-0.2,0
				c0,0,0,0-0.1,0l-50.5-0.1l0,0c-0.4,0-0.7,0.3-0.8,0.7l-2,18.9l0,0l0,0l0,0c0,0.1,0,0.2,0,0.3v0.1c0,0.1,0.1,0.2,0.1,0.3
				l14.9,15.8l-1.2,16.1l-4-14.8l0,0c-0.6-2.1-1.3-4-2.1-5.9c-2.1-4.7-5.1-8.5-9-11.2c-3.6-2.5-8.1-3.8-13.2-3.8c-0.4,0-0.8,0-1.2,0
				c-6,0.4-11.4,2.1-15.9,5.1s-8.3,6.8-11.3,11.5c-1.6,2.6-3,5.3-4.1,8.1l0.7-9.1c0-0.1,0-0.2,0-0.3l-5.9-22.9l0,0
				c0,0,0-0.1-0.1-0.1c0-0.1-0.1-0.1-0.1-0.2l0,0c0,0-0.1,0-0.1-0.1l-0.1-0.1c0,0-0.1,0-0.1-0.1c-0.1,0-0.1,0-0.2,0H71l-19-1.1
				c-0.5,0-0.9,0.3-0.9,0.8l-1.5,18.7l-10.2-19.1c0-0.1-0.1-0.1-0.1-0.1s0,0,0-0.1l0,0c-0.1-0.1-0.2-0.1-0.3-0.2h-0.1
				c-0.1,0-0.2,0-0.3,0l0,0l-19.1,1.1c-0.4,0-0.8,0.4-0.8,0.8L13,251.4v0.1c0,0.1,0,0.1,0,0.2v0.1c0,0.1,0.1,0.1,0.1,0.2l0,0l0,0
				c0.1,0.1,0.1,0.1,0.2,0.2c0,0,0,0,0.1,0l0,0l17.3,6.9c0.1,0,0.2,0.1,0.3,0.1l0,0h16.7l0,0c0.1,0,0.2,0,0.3,0h0.1h0.1l0,0
				c0.1-0.1,0.2-0.2,0.3-0.3l0,0c0-0.1,0.1-0.1,0.1-0.2v-0.1c0,0,0,0,0-0.1l0.1-3.2l6.3,3.9c0.1,0.1,0.3,0.1,0.5,0.1h16.7l0,0l0,0
				c0.2,0,0.3-0.1,0.5-0.2l0,0c0.1,0,0.1-0.1,0.2-0.2l0,0c0.1-0.1,0.2-0.3,0.2-0.5l0,0l1.6-22c0.5,2,1.2,4,2.1,5.8
				c2.1,4.6,5.1,8.4,8.9,11.2c1.1,0.8,2.2,1.5,3.4,2c0,0,0,0,0.1,0l13.5,6.4l1.7,0.7l2.6,0.7l3.2,0.4h2.2l0,0l1.8-0.1l2.6-0.4
				l3.2-0.9l2-0.8l2.9-1.6l2.3-1.7l2.7-2.5l1.9-2.2l2.3-3.5l2.3-4.5l0.9-2.4l1.5-5l0.1-0.8l11.3,5.4c0.1,0,0.2,0.1,0.3,0.1l13.9,0.8
				l0,0l0,0c0.5,0,0.8-0.4,0.8-0.8c0,0,0,0,0-0.1l2.1-24.6l-1.5,39.9c0,0,0,0,0,0.1s0,0.1,0,0.2v0.1c0,0.1,0.1,0.1,0.1,0.1
				s0,0.1,0.1,0.1l0.1,0.1c0,0,0.1,0,0.1,0.1l0,0l14.8,6.4c0.1,0,0.2,0.1,0.3,0.1l29.2,1.4l0,0l0,0c0.1,0,0.1,0,0.1,0h0.1l0,0
				c0.3-0.1,0.4-0.3,0.5-0.6l0,0l0,0v-0.1l0,0l2.6-15.2c0-0.2,0-0.4-0.1-0.6l-5.7-8.2l-0.3-11c0-0.1,0-0.3-0.1-0.4l-5.3-9.3h8.2
				l-1.2,16.7c0,0,0,0,0,0.1s0,0.1,0,0.2v0.1c0,0.1,0.1,0.1,0.1,0.2c0,0,0,0,0,0.1l0,0c0.1,0.1,0.1,0.1,0.2,0.2l0,0l0,0l14.7,6.1
				c0.1,0,0.2,0.1,0.3,0.1l0,0l32-0.3c0.1,0,0.2,0,0.3,0l0,0l0,0c0.1-0.1,0.2-0.1,0.3-0.2l0,0c0-0.1,0.1-0.1,0.1-0.2s0-0.1,0-0.2
				l0,0l1.2-13.1c0-0.2,0-0.4-0.1-0.5L252.3,221z M189.5,240l-3.8-3.7h13.2l2.8,3.7H189.5z M113.4,218.2l0.1-0.1
				c-0.3,3.3-1,6.6-1.9,9.8c-0.9,3-2,5.4-3.3,7.4V235v-0.3v-0.2v-0.3V234l0.4-4l0.4-2v-0.1l0.1-0.4v-0.1v-0.2l1.2-3.9l1.2-2.6
				l0.8-1.3c0,0,0-0.1,0.1-0.1L113.4,218.2z"/>
		</g>
		<g>
			<path class="st16" d="M397.8,226.1l-0.3-5.2l-0.7-3.2v-0.1l-0.4-1.2v-0.1l-0.3-0.8v-0.1l-6.9-15.6h3.6l0,0h0.1
				c0.3,0,0.5-0.2,0.6-0.4l0,0l0,0c0.1-0.1,0.1-0.2,0.1-0.3c0,0,0,0,0-0.1l0,0l1.5-16.8c0-0.1,0-0.3,0-0.4l-7.8-25.6l0,0
				c0,0,0,0,0-0.1s-0.1-0.2-0.2-0.3l0,0c0,0,0,0-0.1,0c-0.1-0.1-0.1-0.1-0.2-0.1c0,0-0.1,0-0.1-0.1c-0.1,0-0.2,0-0.3,0h-0.1
				l-42.6,1.9c-0.5,0-0.9,0.4-0.9,0.8l-3.8,28l-4.6-16.8l0,0v-0.1c0-0.1-0.1-0.2-0.1-0.3l0,0c0,0,0,0-0.1,0
				c-0.1-0.1-0.1-0.1-0.2-0.1s-0.1-0.1-0.2-0.1s-0.1,0-0.2,0h-0.1l-25.1,0.2c-0.3,0-0.6,0.2-0.8,0.4l-33.2,51.8
				c-0.1,0.1-0.1,0.3-0.2,0.5l-0.9,15.7l0,0c0,0.2,0.1,0.5,0.3,0.7l0,0l0,0l0.1,0.1l18.8,12.1c0.2,0.1,0.3,0.2,0.5,0.2l0,0l10.2-0.2
				l-0.6,9.1c0,0,0,0,0,0.1s0,0.2,0,0.3v0.1c0,0.1,0.1,0.2,0.2,0.3l0,0l0,0c0.1,0.1,0.1,0.1,0.2,0.1l12.9,7.7
				c0.1,0.1,0.3,0.1,0.5,0.1l9.4,0.1c0,0,0,0,0.1,0l7-0.1h0.1h0.7l0,0c0,0,0,0,0.1,0s0.2,0,0.3-0.1c0.1,0,0.2-0.1,0.3-0.2l0.1-0.1
				l0.1-0.1c0.1-0.1,0.2-0.3,0.2-0.5c0,0,0,0,0-0.1l2.6-28.3c1.7,1.7,3.6,3.2,5.7,4.5c0.4,0.2,0.9,0.5,1.3,0.7l0,0l16.2,8.3l1.5,0.7
				l3.1,1l3.7,0.6l3.5,0.1c0,0,0,0,0.1,0l1.4-0.1l3.6-0.6l4.5-1.5l2.9-1.6l3.5-2.7c0,0,0-0.1,0.1-0.1l2.9-3.1c0,0,0-0.1,0.1-0.1
				l1.3-1.8c0,0,0,0,0.1-0.1l1.6-2.7l1.7-4l1.2-4.8l0.4-4.6v-0.3L397.8,226.1z M348.2,214.8L348.2,214.8
				C348.2,214.9,348.2,214.9,348.2,214.8l-9.5,9.4l2-21.4l14.3,14c0.2,0.2,0.6,0.3,0.9,0.3l1.6-0.3l8.1-0.7h0.4h0.2h0.4h0.2l0.7,0.1
				h0.2l0.9,0.1c-0.5,1.1-1.1,2.2-2,3c-1.5,1.4-3.1,2.3-5.1,2.6c-1.4,0.2-2.8,0.1-4.2-0.3l-7.6-6.8c0,0,0,0-0.1,0c0,0-0.1,0-0.1-0.1
				c-0.1,0-0.2-0.1-0.3-0.1h-0.1l0,0C348.7,214.6,348.4,214.6,348.2,214.8z"/>
			<path class="st16" d="M252.3,221L252.3,221L252.3,221c-0.1-0.1-0.1-0.1-0.1-0.1c-0.1-0.1-0.1-0.1-0.2-0.1c0,0,0,0-0.1,0
				s-0.2-0.1-0.3-0.1l0,0l-10.1-0.1l3.7-36.6c0-0.1,0-0.3-0.1-0.4l-9.8-21.2c0-0.1-0.1-0.1-0.1-0.2l0,0l0,0
				c-0.1-0.1-0.2-0.1-0.2-0.2c0,0,0,0-0.1,0s-0.1,0-0.2,0l0,0l-19-0.1l0,0c-0.4,0-0.8,0.3-0.8,0.7l-2.4,32.5l-3.4-11.3
				c0,0,0,0,0-0.1c0,0,0-0.1-0.1-0.1l-0.1-0.1c0,0,0,0,0-0.1c0,0,0,0-0.1,0l-0.1-0.1h-0.1c-0.1,0-0.1,0-0.2,0h-0.1l-24.9,1.3V184
				c0-0.1,0-0.2,0-0.3l-5.3-21l0,0v-0.1c0-0.1-0.1-0.1-0.1-0.2l0,0c0,0,0,0-0.1,0s-0.1-0.1-0.2-0.1c0,0,0,0-0.1,0s-0.1,0-0.2,0
				c0,0,0,0-0.1,0l-50.5-0.1l0,0c-0.4,0-0.7,0.3-0.8,0.7l-2,18.9l0,0l0,0l0,0c0,0.1,0,0.2,0,0.3v0.1c0,0.1,0.1,0.2,0.1,0.3
				l14.9,15.8l-1.2,16.1l-4-14.8l0,0c-0.6-2.1-1.3-4-2.1-5.9c-2.1-4.7-5.1-8.5-9-11.2c-3.6-2.5-8.1-3.8-13.2-3.8c-0.4,0-0.8,0-1.2,0
				c-6,0.4-11.4,2.1-15.9,5.1s-8.3,6.8-11.3,11.5c-1.6,2.6-3,5.3-4.1,8.1l0.7-9.1c0-0.1,0-0.2,0-0.3l-5.9-22.9l0,0
				c0,0,0-0.1-0.1-0.1c0-0.1-0.1-0.1-0.1-0.2l0,0c0,0-0.1,0-0.1-0.1l-0.1-0.1c0,0-0.1,0-0.1-0.1c-0.1,0-0.1,0-0.2,0H71l-19-1.1
				c-0.5,0-0.9,0.3-0.9,0.8l-1.5,18.7l-10.2-19.1c0-0.1-0.1-0.1-0.1-0.1s0,0,0-0.1l0,0c-0.1-0.1-0.2-0.1-0.3-0.2h-0.1
				c-0.1,0-0.2,0-0.3,0l0,0l-19.1,1.1c-0.4,0-0.8,0.4-0.8,0.8L13,251.4v0.1c0,0.1,0,0.1,0,0.2v0.1c0,0.1,0.1,0.1,0.1,0.2l0,0l0,0
				c0.1,0.1,0.1,0.1,0.2,0.2c0,0,0,0,0.1,0l0,0l17.3,6.9c0.1,0,0.2,0.1,0.3,0.1l0,0h16.7l0,0c0.1,0,0.2,0,0.3,0h0.1h0.1l0,0
				c0.1-0.1,0.2-0.2,0.3-0.3l0,0c0-0.1,0.1-0.1,0.1-0.2v-0.1c0,0,0,0,0-0.1l0.1-3.2l6.3,3.9c0.1,0.1,0.3,0.1,0.5,0.1h16.7l0,0l0,0
				c0.2,0,0.3-0.1,0.5-0.2l0,0c0.1,0,0.1-0.1,0.2-0.2l0,0c0.1-0.1,0.2-0.3,0.2-0.5l0,0l1.6-22c0.5,2,1.2,4,2.1,5.8
				c2.1,4.6,5.1,8.4,8.9,11.2c1.1,0.8,2.2,1.5,3.4,2c0,0,0,0,0.1,0l13.5,6.4l1.7,0.7l2.6,0.7l3.2,0.4h2.2l0,0l1.8-0.1l2.6-0.4
				l3.2-0.9l2-0.8l2.9-1.6l2.3-1.7l2.7-2.5l1.9-2.2l2.3-3.5l2.3-4.5l0.9-2.4l1.5-5l0.1-0.8l11.3,5.4c0.1,0,0.2,0.1,0.3,0.1l13.9,0.8
				l0,0l0,0c0.5,0,0.8-0.4,0.8-0.8c0,0,0,0,0-0.1l2.1-24.6l-1.5,39.9c0,0,0,0,0,0.1s0,0.1,0,0.2v0.1c0,0.1,0.1,0.1,0.1,0.1
				s0,0.1,0.1,0.1l0.1,0.1c0,0,0.1,0,0.1,0.1l0,0l14.8,6.4c0.1,0,0.2,0.1,0.3,0.1l29.2,1.4l0,0l0,0c0.1,0,0.1,0,0.1,0h0.1l0,0
				c0.3-0.1,0.4-0.3,0.5-0.6l0,0l0,0v-0.1l0,0l2.6-15.2c0-0.2,0-0.4-0.1-0.6l-5.7-8.2l-0.3-11c0-0.1,0-0.3-0.1-0.4l-5.3-9.3h8.2
				l-1.2,16.7c0,0,0,0,0,0.1s0,0.1,0,0.2v0.1c0,0.1,0.1,0.1,0.1,0.2c0,0,0,0,0,0.1l0,0c0.1,0.1,0.1,0.1,0.2,0.2l0,0l0,0l14.7,6.1
				c0.1,0,0.2,0.1,0.3,0.1l0,0l32-0.3c0.1,0,0.2,0,0.3,0l0,0l0,0c0.1-0.1,0.2-0.1,0.3-0.2l0,0c0-0.1,0.1-0.1,0.1-0.2s0-0.1,0-0.2
				l0,0l1.2-13.1c0-0.2,0-0.4-0.1-0.5L252.3,221z M189.5,240l-3.8-3.7h13.2l2.8,3.7H189.5z M113.4,218.2l0.1-0.1
				c-0.3,3.3-1,6.6-1.9,9.8c-0.9,3-2,5.4-3.3,7.4V235v-0.3v-0.2v-0.3V234l0.4-4l0.4-2v-0.1l0.1-0.4v-0.1v-0.2l1.2-3.9l1.2-2.6
				l0.8-1.3c0,0,0-0.1,0.1-0.1L113.4,218.2z"/>
		</g>
		<g>
			<g>
				<g>
					<g>
						<g>
							<g>
								<g>
									<polygon class="st17" points="38.6,170.3 50.9,193.4 49.3,220.9 36.5,204.6 									"/>
								</g>
							</g>
						</g>
					</g>
					<g>
						<g>
							<g>
								<g>
									<path class="st18" d="M49.3,221.7c-0.3,0-0.5-0.1-0.7-0.3l-12.7-16.2c-0.1-0.2-0.2-0.4-0.2-0.6l2-34.3
										c0-0.4,0.3-0.7,0.7-0.8s0.8,0.1,1,0.4L51.7,193c0.1,0.1,0.1,0.3,0.1,0.5L50.2,221c0,0.4-0.3,0.7-0.6,0.8
										C49.4,221.7,49.3,221.7,49.3,221.7z M37.4,204.3l11.1,14.2l1.5-24.9l-10.8-20.2L37.4,204.3z"/>
								</g>
							</g>
						</g>
					</g>
				</g>
				<g>
					<g>
						<g>
							<g>
								<g>
									<polygon class="st17" points="70.9,171.4 76.8,194.2 72.1,258.3 65.1,251.5 									"/>
								</g>
							</g>
						</g>
					</g>
					<g>
						<g>
							<g>
								<g>
									<path class="st18" d="M72.1,259.2c-0.2,0-0.4-0.1-0.6-0.3l-7-6.9c-0.2-0.2-0.3-0.4-0.3-0.7l5.8-80.1c0-0.4,0.4-0.8,0.8-0.8
										s0.8,0.2,0.9,0.7l5.9,22.9c0,0.1,0,0.2,0,0.3L73,258.4c0,0.3-0.2,0.6-0.6,0.7C72.3,259.2,72.2,259.2,72.1,259.2z M66,251.1
										l5.4,5.3l4.5-62.1l-4.5-17.6L66,251.1z"/>
								</g>
							</g>
						</g>
					</g>
				</g>
				<g>
					<g>
						<g>
							<g>
								<g>
									<polygon class="st17" points="35.2,225.6 48.2,237.6 47.8,258.3 34.7,251.4 									"/>
								</g>
							</g>
						</g>
					</g>
					<g>
						<g>
							<g>
								<g>
									<path class="st18" d="M47.8,259.2c-0.1,0-0.3,0-0.4-0.1l-13.1-6.9c-0.3-0.1-0.5-0.5-0.5-0.8l0.5-25.8
										c0-0.3,0.2-0.7,0.5-0.8s0.7-0.1,0.9,0.2l13,12c0.2,0.2,0.3,0.4,0.3,0.7l-0.4,20.6c0,0.3-0.2,0.6-0.4,0.7
										C48.1,259.1,47.9,259.2,47.8,259.2z M35.5,250.9l11.4,6l0.4-18.9L36,227.5L35.5,250.9z"/>
								</g>
							</g>
						</g>
					</g>
				</g>
				<g>
					<g>
						<g>
							<g>
								<g>
									<polygon class="st19" points="47.5,225.6 58,237.6 53.1,237.6 48.2,237.6 35.2,225.6 41.3,225.6 									"/>
								</g>
							</g>
						</g>
					</g>
					<g>
						<g>
							<g>
								<g>
									<path class="st18" d="M58,238.5L58,238.5h-9.8c-0.2,0-0.4-0.1-0.6-0.2l-13-12c-0.3-0.2-0.4-0.6-0.2-1
										c0.1-0.3,0.5-0.6,0.8-0.6h12.3c0.2,0,0.5,0.1,0.7,0.3l10.5,11.9c0.2,0.2,0.3,0.4,0.3,0.7C58.9,238.1,58.5,238.5,58,238.5z
										 M48.6,236.7h7.5l-9-10.3h-9.6L48.6,236.7z"/>
								</g>
							</g>
						</g>
					</g>
				</g>
				<g>
					<g>
						<g>
							<g>
								<g>
									<polygon class="st19" points="65.1,251.5 72.1,258.3 55.5,258.3 44.3,251.4 									"/>
								</g>
							</g>
						</g>
					</g>
					<g>
						<g>
							<g>
								<g>
									<path class="st18" d="M72.1,259.2L72.1,259.2H55.4c-0.2,0-0.3,0-0.5-0.1l-11.2-6.9c-0.3-0.2-0.5-0.6-0.4-1s0.5-0.6,0.8-0.6
										l0,0h20.8c0.2,0,0.4,0.1,0.6,0.3l6.9,6.8c0.2,0.2,0.4,0.4,0.4,0.7C73,258.8,72.6,259.2,72.1,259.2
										C72.2,259.2,72.1,259.2,72.1,259.2z M55.7,257.4H70l-5.2-5.1H47.4L55.7,257.4z"/>
								</g>
							</g>
						</g>
					</g>
				</g>
				<g>
					<g>
						<g>
							<g>
								<g>
									<polygon class="st19" points="34.7,251.4 47.8,258.3 31.1,258.3 13.9,251.5 									"/>
								</g>
							</g>
						</g>
					</g>
					<g>
						<g>
							<g>
								<g>
									<path class="st18" d="M31.1,259.2c-0.1,0-0.2,0-0.3-0.1l-17.3-6.8c-0.4-0.2-0.6-0.6-0.5-1s0.4-0.7,0.9-0.7h20.8l0,0
										c0.1,0,0.3,0,0.4,0.1l13.1,6.9c0.4,0.2,0.5,0.6,0.4,1s-0.4,0.7-0.8,0.7L31.1,259.2L31.1,259.2z M18.4,252.3l12.9,5.1h13
										l-9.8-5.1H18.4z"/>
								</g>
							</g>
						</g>
					</g>
				</g>
				<g>
					<g>
						<g>
							<g>
								<g>
									<path class="st20" d="M49.1,204.6"/>
								</g>
							</g>
						</g>
					</g>
				</g>
				<g>
					<g>
						<g>
							<g>
								<g>
									<g>
										<g>
											<polygon class="st21" points="49.1,204.6 49.1,204.6 51.9,170.3 70.9,171.4 65.1,251.5 44.3,251.4 47.5,225.6 
												41.3,225.6 35.2,225.6 34.7,251.4 13.9,251.5 19.4,171.4 38.6,170.3 36.5,204.6 42.8,204.9 											"/>
										</g>
									</g>
								</g>
							</g>
						</g>
					</g>
					<g>
						<g>
							<g>
								<g>
									<g>
										<path class="st18" d="M65.1,252.3L65.1,252.3H44.3c-0.2,0-0.5-0.1-0.6-0.3c-0.2-0.2-0.2-0.4-0.2-0.7l3-24.9H36.1l-0.5,25
											c0,0.5-0.4,0.9-0.9,0.9H13.9l0,0c-0.2,0-0.5-0.1-0.6-0.3c-0.2-0.2-0.2-0.4-0.2-0.7l5.6-80.1c0-0.4,0.4-0.8,0.8-0.8
											l19.1-1.1c0.2,0,0.5,0.1,0.7,0.3s0.3,0.4,0.3,0.7l-2,33.4l5.4,0.2l5.5-0.2l2.7-33.6c0-0.5,0.5-0.8,0.9-0.8l19,1.1
											c0.2,0,0.5,0.1,0.6,0.3c0.2,0.2,0.2,0.4,0.2,0.6L66,251.5C66,252,65.6,252.3,65.1,252.3z M45.3,250.6h19l5.7-78.4l-17.3-1
											L50,204.7c0,0.4-0.4,0.8-0.8,0.8l-6.4,0.3l-6.3-0.3c-0.2,0-0.5-0.1-0.6-0.3c-0.2-0.2-0.2-0.4-0.2-0.6l2-33.3l-17.4,1
											l-5.4,78.4h19l0.5-25c0-0.5,0.4-0.9,0.9-0.9h12.3c0.2,0,0.5,0.1,0.7,0.3s0.2,0.4,0.2,0.7L45.3,250.6z"/>
									</g>
								</g>
							</g>
						</g>
					</g>
				</g>
			</g>
			<g>
				<g>
					<g>
						<g>
							<g>
								<g>
									<path class="st20" d="M108.4,179.4"/>
								</g>
							</g>
						</g>
					</g>
				</g>
				<g>
					<g>
						<g>
							<g>
								<g>
									<polygon class="st19" points="133.1,199.8 137.8,217.1 137.9,217.5 138,217.9 138.1,218.3 138.2,218.7 138.3,219 
										138.4,219.4 138.4,219.8 138.5,220.2 138.6,220.6 138.7,221 138.7,221.4 138.8,221.8 138.8,222.2 138.9,222.6 138.9,223 
										138.9,223.4 139,223.8 139,224.2 139,224.6 139.1,225.1 139.1,225.5 139.1,225.9 139.1,226.3 139.1,226.7 139.1,227.2 
										139.1,227.6 139.1,228 139.1,228.4 139.1,228.8 139.1,229.3 139.1,229.7 139.1,230.1 139,230.5 139,230.9 139,231.4 
										138.9,231.8 138.9,232.2 138.9,232.6 138.8,233 138.7,233.4 138.7,233.9 138.6,234.3 138.6,234.7 138.5,235.1 138.4,235.6 
										138.4,236 138.3,236.4 138.2,236.8 138.1,237.2 138,237.7 137.9,238.1 137.8,238.5 137.7,238.9 137.6,239.3 137.5,239.7 
										137.4,240.2 137.3,240.6 137.1,241 137,241.4 136.9,241.8 136.8,242.2 136.6,242.6 136.5,243 136.3,243.4 136.2,243.8 
										136,244.1 135.9,244.5 135.7,244.9 135.6,245.3 135.4,245.7 135.2,246.1 135.1,246.4 134.9,246.8 134.7,247.2 134.5,247.6 
										134.3,247.9 134.1,248.3 133.9,248.6 133.7,249 133.5,249.4 133.3,249.7 133.1,250.1 132.9,250.4 132.7,250.8 132.4,251.1 
										132.2,251.5 132,251.8 131.7,252.1 131.5,252.5 131.3,252.8 131,253.1 130.8,253.4 130.5,253.7 130.3,254 130,254.3 
										129.7,254.6 129.5,254.9 129.2,255.2 128.9,255.5 128.6,255.8 128.3,256.1 128.1,256.3 127.8,256.6 127.5,256.9 
										127.2,257.1 126.9,257.4 126.6,257.6 126.3,257.9 126,258.1 125.6,258.3 125.3,258.6 125,258.8 124.7,259 124.3,259.2 
										124,259.5 123.7,259.7 123.3,259.9 123,260.1 122.6,260.2 122.3,260.4 121.9,260.6 121.6,260.8 121.2,260.9 120.8,261.1 
										120.5,261.2 120.1,261.4 119.7,261.5 119.3,261.6 118.9,261.8 118.6,261.9 118.2,262 117.8,262.1 117.4,262.2 117,262.3 
										116.5,262.4 116.1,262.4 115.7,262.5 115.3,262.6 114.9,262.6 114.5,262.7 114.1,262.7 113.6,262.8 113.2,262.8 
										112.7,262.8 112.3,262.9 111.8,262.9 111.4,262.9 111,262.9 110.6,262.8 110.2,262.8 109.8,262.8 109.4,262.7 109,262.7 
										108.6,262.6 108.2,262.6 107.8,262.5 107.4,262.4 107.1,262.4 106.7,262.3 106.3,262.2 106,262.1 105.6,262 105.3,261.9 
										104.9,261.8 104.6,261.7 104.2,261.5 103.9,261.4 103.6,261.3 103.2,261.1 102.9,261 89.4,254.6 89.8,254.8 90.2,255 
										90.6,255.2 91.1,255.3 91.5,255.5 91.9,255.6 92.3,255.8 92.8,255.9 93.2,256 93.7,256.1 94.2,256.3 94.6,256.3 
										95.1,256.5 95.5,256.5 96,256.6 96.5,256.7 97,256.8 97.5,256.8 98,256.8 98.5,256.9 99,256.9 99.5,257 100,257 100.6,257 
										101.1,257 101.7,256.9 102.2,256.9 102.8,256.9 103.3,256.8 103.9,256.8 104.4,256.7 104.9,256.6 105.4,256.5 105.9,256.5 
										106.5,256.3 107,256.3 107.5,256.1 108,256 108.5,255.9 109,255.8 109.4,255.6 109.9,255.4 110.4,255.3 110.9,255.1 
										111.3,254.9 111.8,254.7 112.3,254.6 112.7,254.4 113.2,254.1 113.6,253.9 114.1,253.7 114.5,253.5 114.9,253.2 115.4,253 
										115.8,252.7 116.2,252.5 116.6,252.2 117,251.9 117.4,251.6 117.8,251.3 118.2,251 118.6,250.7 119,250.4 119.4,250.1 
										119.7,249.8 120.1,249.5 120.5,249.1 120.9,248.8 121.2,248.5 121.6,248.1 121.9,247.8 122.2,247.4 122.6,247.1 
										122.9,246.7 123.3,246.3 123.6,245.9 123.9,245.6 124.2,245.2 124.5,244.8 124.8,244.4 125.1,244 125.4,243.6 125.7,243.2 
										126,242.7 126.3,242.3 126.6,241.9 126.9,241.4 127.1,241 127.4,240.6 127.7,240.1 127.9,239.7 128.2,239.2 128.4,238.8 
										128.7,238.3 128.9,237.8 129.1,237.4 129.4,236.9 129.6,236.4 129.8,236 130,235.5 130.2,235 130.4,234.6 130.6,234.1 
										130.8,233.6 131,233.1 131.2,232.6 131.4,232.1 131.5,231.6 131.7,231.1 131.9,230.6 132,230.1 132.2,229.6 132.4,229.1 
										132.5,228.6 132.6,228.1 132.8,227.6 132.9,227 133.1,226.5 133.2,226 133.3,225.5 133.4,224.9 133.5,224.4 133.6,223.9 
										133.7,223.4 133.8,222.8 133.9,222.3 134,221.8 134.1,221.3 134.1,220.7 134.2,220.2 134.3,219.7 134.3,219.2 134.4,218.6 
										134.4,218.1 134.5,217.6 134.5,217.1 134.6,216.5 134.6,216 134.6,215.5 134.6,215 134.7,214.4 134.7,213.9 134.7,213.4 
										134.7,212.9 134.7,212.4 134.7,211.8 134.7,211.3 134.6,210.8 134.6,210.3 134.6,209.7 134.6,209.2 134.5,208.7 
										134.5,208.2 134.4,207.7 134.4,207.2 134.3,206.6 134.3,206.1 134.2,205.6 134.2,205.1 134.1,204.6 134,204.1 133.9,203.6 
										133.8,203.2 133.7,202.7 133.6,202.2 133.5,201.7 133.4,201.2 133.3,200.8 133.2,200.3 									"/>
								</g>
							</g>
						</g>
					</g>
					<g>
						<g>
							<g>
								<g>
									<path class="st18" d="M112.3,263.6h-2.2l-3.2-0.4l-2.6-0.7l-1.7-0.7l-13.5-6.4c-0.4-0.2-0.6-0.7-0.4-1.1s0.7-0.6,1-0.4
										l2,0.8l2.6,0.7l2.8,0.5l2.9,0.2l3.2-0.2l2.6-0.3l2.9-0.7l2.3-0.8l2.6-1.2l3.3-2.1l2.6-2.1l2.7-2.7l1.6-1.9l2-2.8l2.7-4.9
										l1.4-3.3l1.7-4.9l0.9-3.6l0.9-5.7l0.3-4.7v-1v-0.6l-0.1-3.1l-0.4-4.5l-0.8-4.3l-0.2-0.9c-0.1-0.4,0.2-0.8,0.6-0.9
										c0.4-0.1,0.8,0.1,1,0.5l5.3,19.3l0.7,4.9l0.1,5.1l-0.3,4.3l-0.9,5.1l-1.5,5l-0.9,2.4L134,250l-2.3,3.5l-1.9,2.2l-2.7,2.5
										l-2.3,1.7l-2.9,1.6l-2,0.8l-3.2,0.9l-2.6,0.4H112.3L112.3,263.6z M97.6,257.6l7.3,3.3l2.7,0.7l2.7,0.4h0.8h2.1l3.3-0.4
										l2.3-0.6l2.5-1l2.7-1.5l2.2-1.6l2.5-2.3l1.8-2l1.8-2.6l2.3-4.3l1.8-4.6l1.2-4.5l0.8-6.2l0.1-1.7l-0.1-4.9l-0.5-3.6l-0.7-3
										l-1.6-5.8l-0.1,4.5l-0.5,5.3l-0.8,4.3l-1.6,5.7l-1.7,4.5l-2.4,4.7l-1.7,2.7l-2.5,3.3l-2.1,2.2l-2.6,2.3l-2.9,2.1l-2.6,1.5
										l-2.8,1.2l-2.5,0.8l-3.1,0.7l-2.7,0.3l-2.8,0.1L97.6,257.6z"/>
								</g>
							</g>
						</g>
					</g>
				</g>
				<g>
					<g>
						<g>
							<g>
								<g>
									<polygon class="st17" points="112.4,200.9 121.3,218.1 121.3,217.9 121.2,217.7 121.1,217.6 121,217.4 120.8,217.2 
										120.6,216.9 120.4,216.7 120.2,216.5 120,216.3 119.8,216.1 119.6,215.9 119.3,215.8 119.1,215.7 118.8,215.6 118.6,215.5 
										118.3,215.4 118,215.4 117.7,215.3 117.4,215.3 117.1,215.3 116.8,215.4 116.4,215.4 116.1,215.5 115.7,215.6 115.4,215.8 
										115.1,215.9 114.8,216.1 114.5,216.2 114.2,216.4 113.9,216.7 113.6,216.9 113.3,217.1 113.1,217.4 112.8,217.7 112.5,218 
										112.3,218.3 112.1,218.5 112,218.6 111.9,218.8 111.8,219 111.7,219.2 111.6,219.3 111.4,219.5 111.3,219.7 111.2,219.9 
										111.1,220.1 111,220.3 110.9,220.5 110.8,220.7 110.7,220.9 110.6,221.1 110.5,221.3 110.4,221.5 110.3,221.7 110.2,221.9 
										110.1,222.1 110,222.4 109.9,222.6 109.8,222.8 109.7,223 109.6,223.3 109.5,223.5 109.5,223.7 109.4,224 109.3,224.2 
										109.2,224.4 109.1,224.7 109.1,224.9 109,225.2 108.9,225.4 108.9,225.7 108.8,225.9 108.7,226.2 108.7,226.4 108.6,226.7 
										108.5,226.9 108.5,227.2 108.4,227.5 108.4,227.7 108.3,228 108.3,228.2 108.2,228.5 108.2,228.8 108.1,229 108.1,229.3 
										108,229.5 108,229.8 107.9,230.1 107.9,230.3 107.9,230.6 107.8,230.9 107.8,231.1 107.8,231.4 107.7,231.7 107.7,231.9 
										107.7,232.2 107.7,232.5 107.6,232.7 107.6,233 107.6,233.3 107.6,233.6 107.5,233.8 107.5,234.1 107.5,234.4 107.5,234.6 
										107.5,234.9 107.5,235.2 107.5,235.4 107.5,235.7 107.5,235.9 107.5,236.2 107.5,236.5 107.5,236.7 107.5,237 107.5,237.3 
										107.5,237.5 107.5,237.8 107.5,238 107.5,238.3 107.6,238.5 107.6,238.8 107.6,239 107.6,239.3 107.6,239.5 107.7,239.7 
										107.7,240 107.7,240.2 107.7,240.5 107.8,240.7 107.8,240.9 107.9,241.2 107.9,241.4 107.9,241.7 108,241.9 108,242.1 
										108.1,242.3 108.1,242.6 108.2,242.8 108.2,243 108.2,243.2 108.3,243.4 108.4,243.6 108.4,243.8 108.5,244 108.5,244.2 
										108.6,244.4 108.7,244.6 108.7,244.8 108.8,245 108.9,245.2 108.9,245.4 109,245.5 109.1,245.7 109.2,245.9 109.3,246.1 
										109.3,246.2 109.4,246.4 109.5,246.6 109.6,246.7 109.7,246.8 109.8,247 109.9,247.1 110,247.3 110,247.4 110.2,247.7 
										110.5,247.9 110.7,248.2 110.9,248.4 111.1,248.6 99.6,239.1 99.4,238.9 99.1,238.6 98.8,238.3 98.6,238 98.3,237.7 
										98.2,237.5 98.1,237.3 98,237.1 97.9,237 97.8,236.8 97.6,236.6 97.5,236.4 97.4,236.2 97.3,236 97.2,235.8 97.1,235.5 
										97,235.3 96.9,235.1 96.9,234.9 96.8,234.6 96.7,234.4 96.6,234.2 96.5,233.9 96.4,233.7 96.4,233.4 96.3,233.2 96.2,233 
										96.1,232.7 96.1,232.4 96,232.1 96,231.9 95.9,231.6 95.8,231.3 95.8,231 95.7,230.8 95.7,230.5 95.6,230.2 95.6,229.9 
										95.5,229.6 95.5,229.3 95.5,229 95.4,228.7 95.4,228.4 95.3,228.1 95.3,227.8 95.3,227.5 95.3,227.1 95.2,226.9 
										95.2,226.5 95.2,226.2 95.2,225.9 95.2,225.6 95.2,225.3 95.1,225 95.1,224.6 95.1,224.3 95.1,224 95.1,223.7 95.1,223.3 
										95.1,223 95.1,222.7 95.1,222.4 95.1,222 95.2,221.7 95.2,221.4 95.2,221 95.2,220.7 95.2,220.3 95.3,220 95.3,219.7 
										95.3,219.3 95.3,219 95.4,218.6 95.4,218.3 95.4,218 95.5,217.6 95.5,217.3 95.5,217 95.6,216.6 95.6,216.3 95.7,216 
										95.7,215.6 95.8,215.3 95.8,215 95.9,214.7 96,214.3 96,214 96.1,213.7 96.2,213.4 96.2,213.1 96.3,212.7 96.4,212.4 
										96.4,212.1 96.5,211.8 96.6,211.5 96.7,211.1 96.8,210.8 96.9,210.5 96.9,210.2 97,209.9 97.1,209.6 97.2,209.2 97.3,209 
										97.4,208.6 97.5,208.4 97.6,208.1 97.7,207.8 97.8,207.5 97.9,207.2 98,206.9 98.1,206.6 98.2,206.3 98.4,206.1 
										98.5,205.8 98.6,205.5 98.7,205.3 98.8,205 99,204.7 99.1,204.5 99.2,204.2 99.4,204 99.5,203.8 99.6,203.5 99.8,203.3 
										99.9,203 100,202.8 100.2,202.6 100.3,202.3 100.5,202.1 100.6,201.9 100.8,201.7 100.9,201.5 101.1,201.3 101.4,200.9 
										101.7,200.5 102.1,200.1 102.4,199.8 102.8,199.5 103.1,199.2 103.5,198.9 103.9,198.7 104.3,198.5 104.6,198.3 105,198.1 
										105.4,197.9 105.9,197.8 106.3,197.7 106.7,197.6 107.1,197.6 107.5,197.5 107.9,197.6 108.3,197.6 108.6,197.7 109,197.7 
										109.3,197.9 109.6,198 109.9,198.1 110.2,198.3 110.5,198.5 110.8,198.7 111.1,199 111.3,199.3 111.6,199.5 111.8,199.9 
										112,200.2 112.1,200.4 112.2,200.6 112.3,200.8 									"/>
								</g>
							</g>
						</g>
					</g>
					<g>
						<g>
							<g>
								<g>
									<path class="st18" d="M111.1,249.4c-0.2,0-0.4-0.1-0.5-0.2l-0.2-0.2c0,0,0,0-0.1-0.1l0,0l-11.7-9.7l-0.1-0.1l-1.3-1.8
										l-1.1-2.2l-0.3-0.7v-0.1l-0.4-1.5v-0.1l-0.9-6.2l-0.1-3.6v-0.4v-0.6v-0.4v-0.3l0.5-5.5l1.4-6.2l1.5-4.2v-0.1l0.3-0.7v-0.1
										l0.5-1c0,0,0,0,0-0.1l0.8-1.4c0,0,0,0,0-0.1l1.3-1.7l0.7-0.8l0.8-0.7l1.2-0.9l0.8-0.5h0.1l1.3-0.5l0.9-0.2h0.1l0.8-0.1h0.1
										l1.1,0.1h0.1l1.1,0.3h0.1l0.7,0.4l0.7,0.5l0.6,0.6l0.5,0.7l0.7,1.2l8.8,17c0.1,0.1,0.2,0.3,0.2,0.5c0,0.4-0.4,0.8-0.8,0.8
										l0,0c-0.3,0-0.6-0.1-0.7-0.4l-0.5-0.8l-0.7-0.7l-0.3-0.3l-0.6-0.3l-0.5-0.1l-0.9-0.1l-0.6,0.1l-0.8,0.3l-0.9,0.4l-0.8,0.6
										l-0.7,0.7l-0.8,1c0,0,0,0.1-0.1,0.1l-0.8,1.3l-1.2,2.6l-1.2,3.9v0.2c0,0,0,0,0,0.1l-0.1,0.4v0.1l-0.4,2l-0.4,4v0.2v0.3v0.2
										v0.3v1v0.3l0.8,7v0.1l0.1,0.3v0.1l0.6,1.7c0,0,0,0,0,0.1l0.1,0.2v0.1l0.7,1.2l0.7,0.8l0.1,0.1c0.2,0.1,0.4,0.4,0.4,0.7
										C111.9,249,111.6,249.4,111.1,249.4L111.1,249.4z M99.6,238.1l0.5,0.5l7.8,6.4l-0.2-0.6v-0.1l-0.1-0.3v-0.1l-0.1-0.3v-0.1
										l-0.7-4.3l-0.1-2.8v-0.1V236v-1v-0.3v-0.2v-0.3V234l0.6-5.2l0.2-0.8c0,0,0,0,0-0.1l0.1-0.4v-0.1l0.1-0.4v-0.1l1.5-4.7
										l1.9-3.5c0,0,0-0.1,0.1-0.1l1.6-1.9l0.9-0.8l0.3-0.2c0,0,0.1,0,0.1-0.1l0.9-0.5h0.1l1.1-0.3l0.8-0.1h0.1h0.6h0.1l0.9,0.2
										l-7.4-14.1l-0.6-0.8l-0.4-0.4l-0.8-0.5l-0.8-0.3l-0.9-0.1h-0.3l-0.7,0.1L106,199l-1.1,0.4l-1,0.6l-1,0.8l-0.6,0.6l-1.1,1.5
										c0,0,0,0.1-0.1,0.1l-1.1,1.7l-0.7,1.5v0.1l-0.7,1.5l-1,3l-1.4,7l-0.3,4v0.3v0.4v0.6v0.4l0.3,5.8l0.9,4.6l1.2,2.8l0.7,0.6
										L99.6,238.1z"/>
								</g>
							</g>
						</g>
					</g>
				</g>
				<g>
					<g>
						<g>
							<g>
								<g>
									<path class="st20" d="M103.4,240.1"/>
								</g>
							</g>
						</g>
					</g>
				</g>
				<g>
					<g>
						<g>
							<g>
								<g>
									<g>
										<g>
											<path class="st21" d="M108.4,179.4L108.4,179.4c5.5-0.2,10.2,1,13.9,3.7c3.8,2.6,6.6,6.3,8.7,10.9
												c2,4.6,3.2,9.7,3.6,15.3c0.4,5.6-0.1,11.2-1.4,16.8c-1.3,5.6-3.4,10.8-6.3,15.4c-2.9,4.7-6.6,8.5-11.1,11.3
												s-9.7,4.3-15.8,4.3c-5.6-0.2-10.2-1.6-14-4.3c-3.8-2.7-6.6-6.4-8.6-10.9s-3.2-9.4-3.5-14.8c-0.3-5.4,0.2-10.8,1.5-16.2
												s3.5-10.4,6.4-15.1c2.9-4.6,6.6-8.4,11-11.3C97.3,181.5,102.5,179.8,108.4,179.4L108.4,179.4z M103.4,240.1L103.4,240.1
												c1.9-0.4,3.7-1.6,5.2-3.8c1.5-2.2,2.7-4.9,3.7-8.2s1.6-6.7,2-10.3s0.4-6.9,0-10.1c-0.4-3.1-1.1-5.6-2.3-7.5
												c-1.2-1.9-2.8-2.7-4.9-2.6c-2.3,0.3-4.4,1.5-6,3.7c-1.7,2.2-3,5-4,8.3s-1.6,6.8-1.9,10.4c-0.2,3.6-0.1,7,0.4,10.2
												s1.4,5.7,2.7,7.5C99.6,239.6,101.3,240.4,103.4,240.1L103.4,240.1z"/>
										</g>
									</g>
								</g>
							</g>
						</g>
					</g>
					<g>
						<g>
							<g>
								<g>
									<g>
										<path class="st18" d="M100,257.8L100,257.8c-5.7-0.2-10.6-1.7-14.4-4.5s-6.8-6.6-8.9-11.2c-2-4.6-3.2-9.6-3.6-15.1
											c-0.3-5.4,0.2-11,1.6-16.4c1.3-5.4,3.5-10.6,6.5-15.3s6.8-8.6,11.3-11.5c4.5-3,9.9-4.7,15.9-5.1c0.4,0,0.8,0,1.2,0
											c5.2,0,9.6,1.3,13.2,3.8c3.8,2.7,6.9,6.5,9,11.2c2.1,4.7,3.3,9.9,3.6,15.5c0.4,5.6-0.1,11.3-1.4,17
											c-1.3,5.6-3.4,10.9-6.4,15.7c-3,4.8-6.8,8.7-11.4,11.5C111.6,256.3,106.2,257.7,100,257.8L100,257.8z M109.5,180.2
											c-0.4,0-0.8,0-1.1,0c-5.7,0.4-10.8,2-15.1,4.9c-4.3,2.8-7.9,6.6-10.8,11c-2.9,4.6-5,9.5-6.3,14.8s-1.8,10.7-1.5,16
											s1.5,10.1,3.4,14.5c1.9,4.3,4.8,7.9,8.4,10.5c3.6,2.7,8.1,4,13.5,4.2c5.9,0,11-1.4,15.3-4.2c4.4-2.7,8-6.4,10.8-11
											c2.9-4.6,5-9.7,6.2-15.2c1.3-5.5,1.7-11.1,1.4-16.5c-0.3-5.5-1.5-10.5-3.5-15s-4.8-8-8.4-10.5
											C118.5,181.4,114.4,180.2,109.5,180.2z M102.7,241L102.7,241c-2,0-3.7-0.9-5-2.8c-1.4-1.9-2.3-4.6-2.8-7.8
											c-0.5-3.1-0.6-6.6-0.4-10.4c0.2-3.6,0.9-7.2,1.9-10.6c1-3.4,2.4-6.3,4.1-8.5c1.8-2.4,4-3.7,6.6-4c0.2,0,0.3,0,0.4,0
											c2.2,0,3.9,1,5.2,3c1.3,2,2.1,4.6,2.4,7.9c0.4,3.2,0.4,6.6,0,10.2c-0.3,3.5-1,7.1-2,10.5c-1,3.4-2.3,6.2-3.8,8.4
											c-1.6,2.4-3.6,3.8-5.7,4.2C103.2,240.9,102.9,241,102.7,241z M107.5,198.4c-0.1,0-0.2,0-0.3,0c-2.1,0.2-3.9,1.4-5.4,3.4
											c-1.6,2.1-2.9,4.8-3.9,8c-1,3.3-1.6,6.8-1.8,10.3c-0.2,3.6-0.1,7,0.4,10c0.5,3,1.3,5.4,2.5,7.2c1,1.4,2.2,2.1,3.7,2.1l0,0
											c0.2,0,0.4,0,0.6,0c1.7-0.3,3.2-1.5,4.6-3.5c1.4-2.1,2.7-4.8,3.6-8c1-3.3,1.6-6.7,2-10.2s0.4-6.8,0-9.9
											c-0.3-3-1.1-5.4-2.2-7.2C110.4,199.1,109.1,198.4,107.5,198.4z"/>
									</g>
								</g>
							</g>
						</g>
					</g>
				</g>
			</g>
			<g>
				<g>
					<g>
						<g>
							<g>
								<g>
									<path class="st20" d="M124.9,181.6"/>
								</g>
							</g>
						</g>
					</g>
				</g>
				<g>
					<g>
						<g>
							<g>
								<g>
									<polygon class="st17" points="177.4,162.8 182.7,183.8 181.5,200.3 175.9,183.5 									"/>
								</g>
							</g>
						</g>
					</g>
					<g>
						<g>
							<g>
								<g>
									<path class="st18" d="M181.5,201.1c-0.3,0-0.6-0.2-0.8-0.5l-5.6-16.9c0-0.1,0-0.2,0-0.3l1.5-20.6c0-0.4,0.3-0.7,0.7-0.7
										s0.7,0.2,0.8,0.6l5.3,21c0,0.1,0,0.2,0,0.3l-1.2,16.5C182.3,200.8,182,201.1,181.5,201.1
										C181.6,201.1,181.5,201.1,181.5,201.1z M176.7,183.4l4.3,13l0.9-12.4l-4.1-16.1L176.7,183.4z"/>
								</g>
							</g>
						</g>
					</g>
				</g>
				<g>
					<g>
						<g>
							<g>
								<g>
									<polygon class="st19" points="175.9,183.5 181.5,200.3 181.1,200.3 180.6,200.3 180.2,200.3 179.8,200.2 179.4,200.2 
										179,200.2 178.6,200.1 178.1,200.1 177.7,200.1 177.3,200 176.9,200 176.5,200 176,200 175.6,199.9 175.2,199.9 
										174.8,199.9 174.4,199.9 173.9,199.8 173.5,199.8 173.1,199.8 172.7,199.8 172.3,199.7 171.9,199.7 171.4,199.7 171,199.7 
										170.6,199.7 170.2,199.6 169.8,199.6 169.3,199.6 168.9,199.6 168.5,199.6 168.1,199.5 159.2,182.5 159.7,182.5 
										160.2,182.5 160.7,182.5 161.3,182.5 161.8,182.6 162.3,182.6 162.8,182.6 163.3,182.6 163.9,182.7 164.4,182.7 
										164.9,182.7 165.4,182.7 165.9,182.8 166.5,182.8 167,182.8 167.5,182.9 168,182.9 168.6,182.9 169.1,183 169.6,183 
										170.1,183 170.7,183.1 171.2,183.1 171.7,183.2 172.2,183.2 172.7,183.2 173.3,183.3 173.8,183.3 174.3,183.3 174.9,183.4 
										175.4,183.4 									"/>
								</g>
							</g>
						</g>
					</g>
					<g>
						<g>
							<g>
								<g>
									<path class="st18" d="M181.5,201.1L181.5,201.1l-12.2-0.8h-0.4H168c-0.3,0-0.5-0.2-0.7-0.4l-8.9-17.1
										c-0.1-0.2-0.1-0.6,0-0.8c0.2-0.2,0.4-0.4,0.7-0.4l16.8,1c0.3,0,0.6,0.2,0.7,0.5l5.6,16.7c0.1,0.1,0.1,0.2,0.1,0.4
										C182.3,200.8,182,201.1,181.5,201.1L181.5,201.1z M169.3,198.8l11,0.7l-5.1-15.3l-14.8-0.9l8.1,15.5h0.4H169.3z"/>
								</g>
							</g>
						</g>
					</g>
				</g>
				<g>
					<g>
						<g>
							<g>
								<g>
									<polygon class="st17" points="159.2,182.5 168.1,199.5 168,200.8 167.9,201.9 167.7,203.2 167.6,204.4 167.5,205.6 
										167.4,206.8 167.3,208 167.2,209.2 167.1,210.4 167,211.6 166.8,212.8 166.7,214 166.6,215.2 166.5,216.4 166.4,217.6 
										166.3,218.8 166.2,220 166.1,221.2 166,222.5 165.9,223.7 165.8,224.9 165.7,226.1 165.6,227.3 165.5,228.5 165.4,229.7 
										165.3,230.9 165.2,232.1 165.1,233.4 165,234.6 164.9,235.8 164.8,237 164.7,238.2 164.7,238.5 164.6,238.8 164.6,239.1 
										164.6,239.4 164.6,239.7 164.6,240 164.5,240.3 164.5,240.6 164.5,240.8 164.5,241.1 164.4,241.4 164.4,241.7 164.4,242 
										164.4,242.3 164.4,242.6 164.3,242.9 154.4,236.7 154.5,236.3 154.5,235.9 154.5,235.6 154.6,235.2 154.6,234.8 
										154.6,234.5 154.6,234.1 154.7,233.7 154.7,233.4 154.7,233 154.8,232.6 154.8,232.2 154.8,231.9 154.9,231.5 154.9,231.1 
										154.9,230.8 155,229.3 155.1,227.7 155.3,226.2 155.4,224.7 155.5,223.2 155.6,221.7 155.7,220.2 155.9,218.7 156,217.1 
										156.1,215.6 156.3,214.1 156.4,212.6 156.5,211.1 156.6,209.6 156.8,208.1 156.9,206.6 157.1,205.1 157.2,203.5 157.3,202 
										157.5,200.5 157.6,199 157.7,197.5 157.9,196 158,194.5 158.2,193 158.3,191.5 158.4,190 158.6,188.5 158.7,187 
										158.9,185.5 159,184 									"/>
								</g>
							</g>
						</g>
					</g>
					<g>
						<g>
							<g>
								<g>
									<path class="st18" d="M164.3,243.7c-0.1,0-0.3,0-0.4-0.1l-9.9-6.3c-0.2-0.2-0.4-0.4-0.4-0.7l0.8-10.5l3.9-43.8
										c0-0.3,0.3-0.6,0.6-0.7c0.3-0.1,0.7,0.1,0.9,0.4l8.9,17.1c0.1,0.1,0.1,0.3,0.1,0.4l-3.8,43.4c0,0.3-0.2,0.5-0.4,0.7
										C164.6,243.7,164.4,243.7,164.3,243.7z M155.3,236.2l8.4,5.3l3.4-39.7l0.2-2.2l-7.6-14.5l-2.5,27.5L155.3,236.2z"/>
								</g>
							</g>
						</g>
					</g>
				</g>
				<g>
					<g>
						<g>
							<g>
								<g>
									<polygon class="st19" points="154.4,236.7 164.3,242.9 150.5,242.1 137.1,235.7 									"/>
								</g>
							</g>
						</g>
					</g>
					<g>
						<g>
							<g>
								<g>
									<path class="st18" d="M164.3,243.7L164.3,243.7l-13.9-0.8c-0.1,0-0.2,0-0.3-0.1l-13.3-6.4c-0.3-0.2-0.5-0.5-0.4-0.9
										s0.4-0.6,0.8-0.6l17.3,1c0.1,0,0.3,0,0.4,0.1l9.8,6.2c0.3,0.1,0.5,0.4,0.5,0.7C165.1,243.4,164.8,243.7,164.3,243.7
										L164.3,243.7z M150.7,241.3l10.7,0.6l-7.1-4.5l-13.2-0.7L150.7,241.3z"/>
								</g>
							</g>
						</g>
					</g>
				</g>
				<g>
					<g>
						<g>
							<g>
								<g>
									<polygon class="st19" points="141,181.9 153.6,199.1 153.2,199.1 152.8,199.1 152.4,199.1 152,199.1 151.6,199.1 
										151.2,199 150.8,199 150.4,199 150,199 149.6,199 149.2,199 148.7,199 148.4,199 148,199 147.6,199 147.1,199 146.7,199 
										146.3,199 145.9,199 145.5,199 145.1,199 144.7,199 144.3,199 143.9,198.9 143.5,198.9 143.1,198.9 142.7,198.9 
										142.3,198.9 141.9,198.9 141.5,198.9 141.1,198.9 140.7,198.9 124.9,181.6 125.4,181.7 125.9,181.7 126.4,181.7 
										126.9,181.7 127.4,181.7 127.9,181.7 128.4,181.7 128.9,181.7 129.4,181.7 129.9,181.7 130.4,181.7 131,181.7 131.5,181.7 
										132,181.7 132.5,181.8 133,181.8 133.5,181.8 134,181.8 134.5,181.8 135,181.8 135.5,181.8 136,181.8 136.5,181.8 
										137,181.8 137.5,181.8 138,181.8 138.5,181.8 139,181.9 139.5,181.9 140,181.9 140.5,181.9 									"/>
								</g>
							</g>
						</g>
					</g>
					<g>
						<g>
							<g>
								<g>
									<path class="st18" d="M153.6,199.9L153.6,199.9l-12.9-0.2c-0.2,0-0.4-0.1-0.6-0.3l-15.8-17.3c-0.2-0.2-0.3-0.6-0.1-0.9
										c0.1-0.3,0.4-0.5,0.8-0.5h0.5h1.5h0.5h1.5h0.5h1h0.6h1h0.6h1h0.5h1h0.5h0.5h0.6h1h0.6h0.5h0.5h1h0.5h0.5
										c0.3,0,0.5,0.1,0.6,0.3l12.5,17.1c0.2,0.2,0.2,0.3,0.2,0.6C154.4,199.5,154,199.9,153.6,199.9z M150.8,198.3h1.2
										l-11.4-15.6l-13.9-0.2l14.3,15.7L150.8,198.3z"/>
								</g>
							</g>
						</g>
					</g>
				</g>
				<g>
					<g>
						<g>
							<g>
								<g>
									<g>
										<g>
											<path class="st21" d="M124.9,181.6L124.9,181.6l2-18.9c8.4,0,16.7,0,25,0.1c8.5,0,17,0,25.5,0.1l-1.5,20.6
												c-5.6-0.5-11.2-0.8-16.7-1c-1.6,16.1-3,32.1-4.2,48.3c-0.2,2-0.3,3.9-0.5,5.9l-17.3-1l3.9-53.8
												C135.7,181.8,130.3,181.7,124.9,181.6L124.9,181.6z"/>
										</g>
									</g>
								</g>
							</g>
						</g>
					</g>
					<g>
						<g>
							<g>
								<g>
									<g>
										<path class="st18" d="M154.4,237.5L154.4,237.5l-17.4-1c-0.2,0-0.4-0.1-0.6-0.3c-0.1-0.2-0.2-0.4-0.2-0.6l3.8-53
											c-5.1-0.1-10.2-0.2-15.3-0.2c-0.2,0-0.4-0.1-0.6-0.3s-0.2-0.4-0.2-0.6l2-18.9c0-0.4,0.4-0.7,0.8-0.7l0,0l50.5,0.1
											c0.2,0,0.4,0.1,0.6,0.2c0.2,0.2,0.2,0.4,0.2,0.6l-1.5,20.6c0,0.2-0.1,0.4-0.3,0.5s-0.4,0.2-0.6,0.2
											c-5.3-0.4-10.7-0.8-15.9-1c-1.6,15.7-3,31.7-4.2,47.5l-0.2,1.9c-0.1,1.3-0.2,2.6-0.3,4
											C155.2,237.1,154.9,237.5,154.4,237.5z M138,234.9l15.7,0.9c0.1-1.1,0.2-2.1,0.3-3.2l0.2-1.9c1.2-16.1,2.7-32.3,4.3-48.3
											c0-0.4,0.4-0.7,0.8-0.7c5.3,0.2,10.6,0.5,16,0.9l1.4-19l-49-0.1l-1.8,17.4c5.1,0.1,10.2,0.2,15.3,0.2
											c0.2,0,0.4,0.1,0.6,0.3c0.1,0.2,0.2,0.4,0.2,0.6L138,234.9z"/>
									</g>
								</g>
							</g>
						</g>
					</g>
				</g>
			</g>
			<g>
				<g>
					<g>
						<g>
							<g>
								<g>
									<path class="st20" d="M275.3,221.8"/>
								</g>
							</g>
						</g>
					</g>
				</g>
				<g>
					<g>
						<g>
							<g>
								<g>
									<polygon class="st17" points="333.5,169.8 340.4,195.3 333.7,267.1 325.1,259.4 									"/>
								</g>
							</g>
						</g>
					</g>
					<g>
						<g>
							<g>
								<g>
									<path class="st18" d="M333.7,268.1c-0.2,0-0.5-0.1-0.6-0.2l-8.6-7.7c-0.2-0.2-0.3-0.5-0.3-0.8l8.3-89.7
										c0-0.5,0.4-0.8,0.9-0.9c0.5,0,0.9,0.3,1,0.7l6.9,25.6c0,0.1,0,0.2,0,0.3l-6.7,71.8c0,0.4-0.3,0.7-0.6,0.8
										C334,268,333.8,268.1,333.7,268.1z M326.2,259l6.8,6.1l6.5-69.7l-5.5-20.2L326.2,259z"/>
								</g>
							</g>
						</g>
					</g>
				</g>
				<g>
					<g>
						<g>
							<g>
								<g>
									<polygon class="st19" points="325.1,259.4 333.7,267.1 333.5,267.1 333.3,267.1 333.1,267.1 332.9,267.1 332.7,267.1 
										332.5,267.1 332.3,267.1 332.1,267.1 331.6,267.1 331.2,267.1 330.7,267.2 330.2,267.2 329.7,267.2 329.3,267.2 
										328.8,267.2 328.3,267.2 327.8,267.2 327.4,267.2 326.9,267.2 326.4,267.2 325.9,267.2 325.4,267.2 324.9,267.2 
										324.5,267.2 324,267.2 323.5,267.2 323,267.2 322.5,267.2 322,267.2 321.5,267.2 321,267.2 320.5,267.2 320,267.2 
										319.5,267.2 319,267.2 318.5,267.2 318,267.2 317.5,267.2 317,267.2 316.5,267.2 303.6,259.5 304.3,259.5 304.9,259.5 
										305.5,259.5 306.1,259.5 306.8,259.5 307.4,259.5 308,259.5 308.6,259.6 309.3,259.6 309.9,259.6 310.5,259.6 311.1,259.6 
										311.7,259.6 312.3,259.6 312.9,259.6 313.5,259.6 314.1,259.6 314.7,259.6 315.4,259.6 316,259.6 316.6,259.6 317.2,259.5 
										317.8,259.5 318.4,259.5 319,259.5 319.6,259.5 320.2,259.5 320.8,259.5 321.4,259.5 321.9,259.5 322.5,259.5 323.1,259.5 
										323.4,259.5 323.6,259.5 323.9,259.5 324.1,259.5 324.4,259.5 324.6,259.5 324.9,259.4 									"/>
								</g>
							</g>
						</g>
					</g>
					<g>
						<g>
							<g>
								<g>
									<path class="st18" d="M325.9,268.2l-9.4-0.1c-0.2,0-0.3,0-0.5-0.1l-12.9-7.7c-0.4-0.2-0.6-0.7-0.4-1.1
										c0.1-0.4,0.5-0.7,0.9-0.7l21.5-0.1c0.2,0,0.5,0.1,0.6,0.2l8.5,7.6c0.3,0.2,0.5,0.5,0.5,0.8c0,0.5-0.5,0.9-1,1l0,0H333h-0.1
										L325.9,268.2L325.9,268.2z M318.5,266.2l12.7-0.1l-6.4-5.8h-2.2l-13.9,0.1H308h-0.7l9.6,5.7L318.5,266.2z"/>
								</g>
							</g>
						</g>
					</g>
				</g>
				<g>
					<g>
						<g>
							<g>
								<g>
									<polygon class="st19" points="305.2,236.9 317.8,249.1 293.1,249.5 274.3,237.5 									"/>
								</g>
							</g>
						</g>
					</g>
					<g>
						<g>
							<g>
								<g>
									<path class="st18" d="M293.1,250.5c-0.2,0-0.4-0.1-0.5-0.2l-18.8-12c-0.4-0.2-0.5-0.7-0.4-1.1s0.5-0.7,0.9-0.7l30.9-0.5
										c0.3,0,0.5,0.1,0.7,0.3l12.6,12.2c0.3,0.3,0.4,0.7,0.2,1.1c-0.1,0.4-0.5,0.6-0.9,0.6L293.1,250.5L293.1,250.5z
										 M277.5,238.4l15.8,10.2l22.1-0.4l-10.6-10.3L277.5,238.4z"/>
								</g>
							</g>
						</g>
					</g>
				</g>
				<g>
					<g>
						<g>
							<g>
								<g>
									<path class="st20" d="M307,219.7"/>
								</g>
							</g>
						</g>
					</g>
				</g>
				<g>
					<g>
						<g>
							<g>
								<g>
									<polygon class="st19" points="308.8,203.8 320.7,222.6 313.1,235.5 299.4,219.9 									"/>
								</g>
							</g>
						</g>
					</g>
					<g>
						<g>
							<g>
								<g>
									<path class="st18" d="M313.1,236.5c-0.3,0-0.5-0.1-0.7-0.3l-13.7-15.6c-0.3-0.3-0.3-0.8-0.1-1.1l9.4-16.2
										c0.2-0.3,0.5-0.5,0.8-0.5s0.7,0.2,0.8,0.4l11.9,18.8c0.2,0.3,0.2,0.7,0,1l-7.6,12.9C313.8,236.3,313.5,236.4,313.1,236.5
										C313.2,236.5,313.1,236.5,313.1,236.5z M300.6,219.8l12.4,14.1l6.6-11.3l-10.7-17L300.6,219.8z"/>
								</g>
							</g>
						</g>
					</g>
				</g>
				<g>
					<g>
						<g>
							<g>
								<g>
									<g>
										<g>
											<path class="st21" d="M275.3,221.8L275.3,221.8l33.2-51.8l25.1-0.2l-8.3,89.7c-0.7,0-1.3,0-2,0
												c-6.3,0.1-12.8,0.1-19.5,0.1l1.5-22.6l-30.9,0.5L275.3,221.8z M307,219.7L307,219.7l1.8-16l-9.4,16.1L307,219.7z"/>
										</g>
									</g>
								</g>
							</g>
						</g>
					</g>
					<g>
						<g>
							<g>
								<g>
									<g>
										<path class="st18" d="M312.3,260.5c-2.8,0-5.7,0-8.7-0.1c-0.3,0-0.5-0.1-0.7-0.3c-0.2-0.2-0.3-0.5-0.3-0.7l1.5-21.5
											l-29.8,0.5c-0.3,0-0.5-0.1-0.7-0.3c-0.2-0.2-0.3-0.5-0.3-0.7l0.9-15.7c0-0.2,0.1-0.3,0.2-0.5l33.2-51.8
											c0.2-0.3,0.5-0.4,0.8-0.4l25.1-0.2c0.3,0,0.5,0.1,0.7,0.3s0.3,0.5,0.3,0.7l-8.3,89.7c0,0.5-0.4,0.9-0.9,0.9
											c-0.7,0-1.4,0-2.1,0C319.7,260.5,316.2,260.5,312.3,260.5z M304.7,258.5c2.6,0,5.1,0,7.6,0c3.8,0,7.4,0,10.8-0.1
											c0.4,0,0.8,0,1.2,0l8.2-87.7l-23.5,0.2L276.3,222l-0.9,14.4l29.8-0.5c0.3,0,0.5,0.1,0.7,0.3c0.2,0.2,0.3,0.5,0.3,0.7
											L304.7,258.5z M299.4,220.9c-0.3,0-0.7-0.2-0.8-0.5c-0.2-0.3-0.2-0.7,0-1l9.4-16.1c0.2-0.4,0.7-0.6,1.1-0.4
											c0.4,0.1,0.7,0.6,0.7,1l-1.8,16c-0.1,0.5-0.5,0.9-0.9,0.9L299.4,220.9L299.4,220.9z M307.3,208.2l-6.3,10.7l5.1-0.1
											L307.3,208.2z"/>
									</g>
								</g>
							</g>
						</g>
					</g>
				</g>
			</g>
			<g>
				<g>
					<g>
						<g>
							<g>
								<g>
									<path class="st20" d="M360.2,182.3"/>
								</g>
							</g>
						</g>
					</g>
				</g>
				<g>
					<g>
						<g>
							<g>
								<g>
									<polygon class="st19" points="384.5,177.3 392.7,198.7 373.8,199 360.9,177.6 									"/>
								</g>
							</g>
						</g>
					</g>
					<g>
						<g>
							<g>
								<g>
									<path class="st18" d="M373.8,199.9c-0.3,0-0.7-0.2-0.8-0.5l-12.9-21.3c-0.2-0.3-0.2-0.7,0-1s0.5-0.5,0.8-0.5l23.6-0.3
										c0.4,0,0.8,0.2,0.9,0.6l8.2,21.4c0.1,0.3,0.1,0.6-0.1,0.9c-0.2,0.3-0.5,0.4-0.8,0.4L373.8,199.9L373.8,199.9z M362.6,178.6
										l11.8,19.4l16.9-0.2l-7.5-19.5L362.6,178.6z"/>
								</g>
							</g>
						</g>
					</g>
				</g>
				<g>
					<g>
						<g>
							<g>
								<g>
									<polygon class="st17" points="348.8,215.5 364.2,229.3 364.4,229.7 364.7,230.1 365,230.5 365.2,230.9 365.5,231.3 
										365.8,231.6 366.1,232 366.4,232.3 366.7,232.6 367,232.9 352.3,220 352,219.7 351.6,219.3 351.2,218.9 350.9,218.5 
										350.5,218 350.2,217.6 349.8,217.1 349.5,216.6 349.2,216.1 									"/>
								</g>
							</g>
						</g>
					</g>
					<g>
						<g>
							<g>
								<g>
									<path class="st18" d="M367,233.8c-0.2,0-0.5-0.1-0.6-0.2L351,220l-0.8-0.9l-1.5-2L348,216c-0.2-0.4-0.2-0.9,0.2-1.2
										c0.4-0.3,0.9-0.3,1.3,0l15.4,13.7c0.1,0.1,0.1,0.1,0.2,0.2l1,1.5l1.5,1.7c0.3,0.2,0.4,0.5,0.4,0.8
										C368,233.4,367.5,233.8,367,233.8L367,233.8z"/>
								</g>
							</g>
						</g>
					</g>
				</g>
				<g>
					<g>
						<g>
							<g>
								<g>
									<polygon class="st19" points="368.4,204.8 379.8,220.7 379.7,220.5 379.5,220.3 379.2,220 378.9,219.6 378.6,219.3 
										378.3,219 377.9,218.7 377.6,218.4 377.2,218.1 376.8,217.9 376.4,217.6 376,217.4 375.5,217.2 375.1,216.9 374.6,216.8 
										374.2,216.6 373.7,216.4 373.2,216.2 372.9,216.1 372.7,216.1 372.4,216 372.2,216 371.9,215.9 371.6,215.8 371.4,215.8 
										371.1,215.7 370.8,215.7 370.6,215.6 370.3,215.5 370.1,215.5 369.8,215.4 369.5,215.4 369.2,215.4 369,215.3 368.7,215.3 
										368.4,215.2 368.1,215.2 367.9,215.2 367.6,215.2 367.3,215.2 367,215.1 366.7,215.1 366.5,215.1 366.2,215.1 365.9,215.1 
										365.6,215.1 365.3,215.1 365,215.1 364.7,215.1 364.5,215.1 364.2,215.1 363.9,215.1 363.6,215.1 363.3,215.1 363,215.1 
										362.7,215.1 362.4,215.1 362.2,215.1 361.9,215.2 361.6,215.2 361.3,215.2 361,215.2 360.8,215.2 360.5,215.3 360.2,215.3 
										359.9,215.3 359.7,215.4 359.4,215.4 359.1,215.4 358.8,215.5 358.6,215.5 358.3,215.6 358,215.6 357.8,215.7 357.5,215.7 
										357.2,215.7 357,215.8 356.7,215.8 356.4,215.9 356.2,216 355.9,216 355.7,216.1 338.2,199 338.5,199 338.9,198.9 
										339.2,198.8 339.5,198.7 339.8,198.7 340.2,198.6 340.5,198.5 340.8,198.5 341.1,198.4 341.5,198.4 341.8,198.3 
										342.2,198.3 342.5,198.2 342.8,198.2 343.2,198.1 343.5,198.1 343.9,198.1 344.2,198 344.5,198 344.9,198 345.3,197.9 
										345.6,197.9 345.9,197.9 346.3,197.9 346.7,197.8 347,197.8 347.4,197.8 347.7,197.8 348.1,197.8 348.4,197.8 348.8,197.7 
										349.2,197.7 349.5,197.7 349.9,197.7 350.3,197.7 350.6,197.7 351,197.8 351.3,197.8 351.7,197.8 352,197.8 352.4,197.8 
										352.7,197.9 353.1,197.9 353.4,197.9 353.8,198 354.1,198 354.5,198.1 354.8,198.1 355.2,198.1 355.5,198.2 355.8,198.2 
										356.2,198.3 356.5,198.4 356.8,198.4 357.2,198.5 357.5,198.6 357.8,198.6 358.1,198.7 358.5,198.8 358.8,198.9 359.1,199 
										359.4,199 359.8,199.1 360.1,199.2 360.7,199.4 361.3,199.6 361.9,199.9 362.5,200.1 363.1,200.4 363.6,200.7 364.1,201 
										364.6,201.3 365.1,201.6 365.6,201.9 366,202.3 366.5,202.7 366.9,203.1 367.3,203.5 367.7,203.9 368,204.3 368.2,204.5 
																			"/>
								</g>
							</g>
						</g>
					</g>
					<g>
						<g>
							<g>
								<g>
									<path class="st18" d="M379.8,221.6c-0.3,0-0.6-0.1-0.8-0.4l-0.8-0.9l-1.3-1.2l-1.5-0.9l-1.7-0.8l-1.3-0.4h-0.1l-2.9-0.6
										l-1.9-0.3h-0.2l-0.7-0.1h-0.2H366h-0.2h-0.4l-8.1,0.7l-1.6,0.3c-0.3,0.1-0.7,0-0.9-0.3l-17.5-17c-0.3-0.2-0.3-0.6-0.3-0.9
										c0.1-0.3,0.4-0.6,0.7-0.7l4-0.8l8.6-0.5h0.4h0.3l0.8,0.1h0.3l4.3,0.5l4.3,1.1l2.4,1c0,0,0.1,0,0.1,0.1l2.1,1.3l1,0.7
										l1.3,1.2l1.2,1.4l11.5,15.9c0.3,0.4,0.2,1-0.2,1.4C380.2,221.6,380,221.6,379.8,221.6z M372.9,215.2h0.2h0.1l2,0.7
										l-8.3-11.5l-1.1-1.1l-0.8-0.7l-1.4-0.9l-2.6-1.2l-4-1.1l-4.6-0.6h-0.3l-0.8-0.1H351h-0.4l-7.6,0.4l-2.8,0.5L356,215
										l1.3-0.3h0.1l8.2-0.6h0.4h0.2h0.4h0.2l0.7,0.1h0.2l4.5,0.7l0.5,0.1h0.1L372.9,215.2z"/>
								</g>
							</g>
						</g>
					</g>
				</g>
				<g>
					<g>
						<g>
							<g>
								<g>
									<polygon class="st17" points="386.3,156.3 394.2,181.9 392.7,198.7 384.5,177.3 									"/>
								</g>
							</g>
						</g>
					</g>
					<g>
						<g>
							<g>
								<g>
									<path class="st18" d="M392.7,199.7c-0.4,0-0.8-0.2-0.9-0.6l-8.2-21.4c-0.1-0.1-0.1-0.3-0.1-0.4l1.8-21
										c0-0.5,0.4-0.8,0.9-0.9c0.5-0.1,0.9,0.2,1,0.7l7.8,25.6c0,0.1,0.1,0.2,0,0.4l-1.5,16.8c0,0.4-0.4,0.8-0.8,0.9
										C392.8,199.7,392.7,199.7,392.7,199.7z M385.5,177.2l6.6,17.3l1.1-12.5l-6.3-20.7L385.5,177.2z"/>
								</g>
							</g>
						</g>
					</g>
				</g>
				<g>
					<g>
						<g>
							<g>
								<g>
									<polygon class="st19" points="387.3,197.9 394.9,215.2 395,215.5 395.2,215.8 395.3,216.1 395.4,216.4 395.5,216.7 
										395.6,217 395.7,217.3 395.8,217.7 395.9,218 396,218.3 396.1,218.6 396.2,218.9 396.3,219.3 396.3,219.6 396.4,220 
										396.5,220.3 396.5,220.7 396.6,221 396.6,221.4 396.7,221.8 396.7,222.1 396.8,222.5 396.8,222.9 396.8,223.3 396.8,223.7 
										396.8,224 396.9,224.4 396.9,224.8 396.9,225.3 396.9,225.7 396.9,226.1 396.8,226.5 396.8,226.9 396.8,227.3 396.8,227.7 
										396.8,228.2 396.7,228.6 396.7,229.1 396.6,229.4 396.6,229.8 396.6,230.2 396.5,230.6 396.5,230.9 396.4,231.3 
										396.3,231.7 396.3,232 396.2,232.4 396.1,232.8 396,233.1 395.9,233.5 395.8,233.9 395.7,234.2 395.6,234.6 395.5,234.9 
										395.4,235.3 395.3,235.6 395.2,236 395.1,236.4 394.9,236.7 394.8,237.1 394.6,237.4 394.5,237.8 394.4,238.1 394.2,238.4 
										394,238.8 393.9,239.2 393.7,239.5 393.6,239.8 393.4,240.2 393.2,240.5 393,240.9 392.8,241.2 392.6,241.5 392.4,241.8 
										392.2,242.2 392,242.5 391.8,242.8 391.6,243.1 391.4,243.4 391.1,243.7 390.9,244 390.7,244.3 390.4,244.6 390.2,244.9 
										389.9,245.2 389.7,245.5 389.4,245.8 389.2,246 388.9,246.3 388.6,246.6 388.3,246.9 388.1,247.1 387.8,247.4 387.5,247.6 
										387.2,247.9 386.9,248.1 386.6,248.4 386.3,248.6 386,248.9 385.7,249.1 385.3,249.3 385,249.5 384.7,249.8 384.4,250 
										384,250.2 383.7,250.4 383.4,250.6 383,250.8 382.6,251 382.3,251.1 381.9,251.3 381.6,251.5 381.2,251.6 380.8,251.8 
										380.4,252 380,252.1 379.6,252.2 379.3,252.3 378.8,252.5 378.5,252.6 378.1,252.7 377.6,252.8 377.2,252.9 376.8,253 
										376.4,253.1 376,253.2 375.5,253.2 375.1,253.3 374.7,253.4 374.2,253.4 373.8,253.5 373.3,253.5 372.8,253.6 372.4,253.6 
										371.9,253.6 371.5,253.6 371.1,253.6 370.7,253.6 370.2,253.6 369.8,253.6 369.4,253.6 369,253.5 368.6,253.5 368.2,253.4 
										367.7,253.4 367.3,253.3 366.9,253.2 366.5,253.2 366.2,253.1 365.8,253 365.4,252.9 365,252.8 364.6,252.7 364.2,252.6 
										363.9,252.5 363.5,252.3 363.1,252.2 362.8,252.1 362.4,251.9 362,251.8 361.7,251.6 361.3,251.4 361,251.3 344.9,243 
										345.3,243.2 345.7,243.5 346.2,243.7 346.6,243.8 347.1,244 347.5,244.2 348,244.4 348.4,244.5 348.9,244.7 349.4,244.8 
										349.9,244.9 350.3,245.1 350.8,245.2 351.3,245.3 351.8,245.4 352.3,245.5 352.8,245.6 353.3,245.7 353.8,245.7 
										354.3,245.8 354.8,245.8 355.3,245.9 355.9,245.9 356.4,245.9 356.9,246 357.5,246 358,246 358.6,246 359.1,245.9 
										359.7,245.9 360.3,245.8 360.8,245.8 361.4,245.7 361.9,245.7 362.5,245.6 363,245.5 363.6,245.4 364.1,245.3 364.6,245.2 
										365.2,245.1 365.7,244.9 366.2,244.8 366.7,244.7 367.2,244.5 367.7,244.4 368.2,244.2 368.7,244 369.1,243.9 369.6,243.7 
										370.1,243.5 370.6,243.3 371,243.1 371.5,242.9 371.9,242.6 372.4,242.4 372.8,242.2 373.2,241.9 373.7,241.7 374.1,241.4 
										374.5,241.1 374.9,240.9 375.3,240.6 375.7,240.3 376.1,240 376.5,239.7 376.9,239.4 377.3,239.1 377.6,238.8 378,238.5 
										378.4,238.1 378.7,237.8 379,237.5 379.4,237.2 379.7,236.8 380.1,236.5 380.4,236.1 380.7,235.8 381,235.4 381.3,235.1 
										381.6,234.7 382,234.4 382.3,234 382.5,233.6 382.8,233.2 383.1,232.8 383.4,232.4 383.6,232 383.9,231.6 384.1,231.2 
										384.4,230.8 384.6,230.4 384.9,230 385.1,229.6 385.3,229.1 385.5,228.7 385.8,228.3 386,227.9 386.2,227.4 386.4,227 
										386.6,226.6 386.7,226.1 386.9,225.7 387.1,225.3 387.3,224.8 387.4,224.4 387.6,223.9 387.7,223.5 387.9,223.1 388,222.6 
										388.2,222.1 388.3,221.7 388.4,221.2 388.5,220.8 388.6,220.3 388.7,219.9 388.9,219.4 388.9,219 389,218.5 389.1,218.1 
										389.2,217.6 389.2,217.1 389.3,216.7 389.4,216.2 389.4,215.7 389.5,215.3 389.5,214.7 389.6,214.2 389.6,213.6 
										389.6,213.1 389.7,212.6 389.7,212 389.7,211.5 389.7,211 389.7,210.5 389.7,210 389.7,209.5 389.7,209 389.7,208.5 
										389.6,208 389.6,207.5 389.6,207.1 389.5,206.6 389.5,206.1 389.4,205.7 389.4,205.2 389.3,204.8 389.2,204.3 389.1,203.9 
										389,203.5 388.9,203 388.9,202.6 388.7,202.2 388.6,201.8 388.5,201.4 388.4,201 388.3,200.6 388.2,200.2 388,199.8 
										387.9,199.4 387.7,199.1 387.6,198.7 387.4,198.3 									"/>
								</g>
							</g>
						</g>
					</g>
					<g>
						<g>
							<g>
								<g>
									<path class="st18" d="M372.4,254.6l-3.5-0.1l-3.7-0.6l-3.1-1l-1.5-0.7l-16.2-8.3c-0.5-0.2-0.7-0.8-0.4-1.3
										c0.2-0.5,0.8-0.7,1.3-0.4l2.2,1l3.1,1l2.8,0.5l3.5,0.3l2.6-0.1l3.8-0.5l3.5-0.9l3.3-1.2l3-1.6l3.5-2.5l3.7-3.6l2-2.5
										l2.8-4.8l1.6-3.8l1.2-4.4l0.7-5.1l0.1-2.6l-0.1-4.3l-0.5-3.5l-1.3-4.3l-0.4-1.1c-0.2-0.5,0-1.1,0.5-1.3s1.1,0,1.3,0.5
										l7.9,17.8v0.1l0.3,0.8v0.1l0.4,1.2v0.1l0.7,3.2l0.3,5.2v0.5v0.3l-0.4,4.6l-1.2,4.8l-1.7,4l-1.6,2.7c0,0,0,0.1-0.1,0.1
										l-1.3,1.8c0,0,0,0.1-0.1,0.1l-2.9,3.1c0,0,0,0-0.1,0.1l-3.5,2.7l-2.9,1.6l-4.5,1.5l-3.6,0.6L372.4,254.6L372.4,254.6z
										 M354.3,246.8l8.8,4.4l2.9,0.9l2.3,0.4l2,0.2l3.8-0.2l2.9-0.5l3-0.9l3.1-1.5l2.8-1.9l2.5-2.3l2.1-2.5l1.8-2.8l2.5-6.1
										l1-5.4l0.1-1.7v-0.4V226l-0.2-4.1l-0.7-3.7l-0.8-2.3v-0.1l-0.1-0.3l-3.4-7.7l0.1,3.7l-0.4,5.3l-0.9,4.7L388,226l-2.1,4.4
										l-1.8,2.9l-3.2,3.8l-2.1,2l-4.5,3.3l-3.2,1.7l-2.5,1h-0.1l-4.7,1.2l-4,0.5l-2.8,0.1L354.3,246.8z"/>
								</g>
							</g>
						</g>
					</g>
				</g>
				<g>
					<g>
						<g>
							<g>
								<g>
									<polygon class="st17" points="360.9,177.6 373.8,199 373.2,202.7 360.2,182.3 									"/>
								</g>
							</g>
						</g>
					</g>
					<g>
						<g>
							<g>
								<g>
									<path class="st18" d="M373.2,203.6c-0.3,0-0.6-0.2-0.8-0.4l-13.1-20.4c-0.1-0.2-0.2-0.4-0.1-0.7l0.7-4.6
										c0.1-0.4,0.4-0.7,0.8-0.8s0.8,0.1,1,0.4l12.9,21.3c0.1,0.2,0.2,0.4,0.1,0.7l-0.6,3.7c-0.1,0.4-0.4,0.7-0.8,0.8
										C373.4,203.6,373.3,203.6,373.2,203.6z M361.2,182l11.5,18l0.1-0.9l-11.4-18.8L361.2,182z"/>
								</g>
							</g>
						</g>
					</g>
				</g>
				<g>
					<g>
						<g>
							<g>
								<g>
									<g>
										<g>
											<path class="st21" d="M360.2,182.3L360.2,182.3c4,0.1,7.9,0.8,11.6,2.1c3.7,1.2,7,3.2,9.9,5.8s5,6,6.5,10.1
												c1.4,4.1,1.9,9.1,1.3,15.1c-0.5,5-1.9,9.8-4.4,14.3c-2.4,4.5-5.8,8.3-10.2,11.3c-4.3,3-9.6,4.7-15.8,5.1
												c-5.9,0.2-11-1-15.5-3.6c-4.5-2.7-8-6.4-10.6-11.2l15.9-15.6c1.7,3,3.7,5,5.9,6.2c2.2,1.1,4.4,1.5,6.6,1.1
												s4.1-1.3,5.7-2.9c1.6-1.6,2.6-3.6,3-6c0.5-4-0.1-7.2-2.1-9.6c-1.9-2.4-4.5-4.1-7.9-5.1s-7-1.5-10.9-1.5
												c-3.9,0.1-7.5,0.5-11,1.3l5.5-40.8l42.6-1.9l-1.8,21l-23.6,0.3L360.2,182.3z"/>
										</g>
									</g>
								</g>
							</g>
						</g>
					</g>
					<g>
						<g>
							<g>
								<g>
									<g>
										<path class="st18" d="M357.8,246.9c-5.4,0-10.4-1.3-14.7-3.7c-4.6-2.8-8.3-6.6-11-11.5c-0.2-0.4-0.1-0.8,0.2-1.2
											l15.9-15.6c0.2-0.2,0.5-0.3,0.8-0.3s0.6,0.2,0.7,0.5c1.7,2.8,3.5,4.7,5.5,5.8c2,1,4.1,1.4,6,1c2-0.4,3.7-1.2,5.1-2.6
											c1.4-1.4,2.4-3.3,2.8-5.5c0.5-3.7-0.1-6.7-1.9-8.8c-1.8-2.2-4.2-3.8-7.5-4.8c-3.1-0.9-6.5-1.4-10.1-1.4H349
											c-3.9,0.1-7.4,0.5-10.8,1.3c-0.3,0.1-0.6,0-0.9-0.2c-0.2-0.2-0.4-0.5-0.3-0.9l5.5-40.8c0.1-0.5,0.4-0.8,0.9-0.8l42.6-1.9
											c0.3,0,0.5,0.1,0.7,0.3s0.3,0.5,0.3,0.8l-1.8,21c0,0.5-0.5,0.9-1,0.9l-22.8,0.3l-0.4,2.8c3.7,0.2,7.4,0.9,10.8,2.1
											c3.9,1.3,7.3,3.3,10.2,6c3,2.7,5.2,6.2,6.7,10.5c1.5,4.2,2,9.4,1.4,15.5c-0.5,5.2-1.9,10-4.5,14.7
											c-2.5,4.6-6,8.5-10.5,11.6c-4.4,3.1-9.9,4.8-16.3,5.2C358.7,246.9,358.2,246.9,357.8,246.9z M334.2,231.3
											c2.5,4.3,5.8,7.7,9.9,10.2c4.4,2.5,9.4,3.7,15,3.5c6-0.4,11.1-2,15.3-4.9c4.2-2.9,7.5-6.6,9.9-10.9
											c2.4-4.5,3.8-9,4.2-13.9c0.6-5.8,0.1-10.7-1.3-14.6c-1.4-4-3.4-7.2-6.2-9.7c-2.7-2.5-5.9-4.4-9.5-5.6
											c-3.6-1.2-7.4-1.9-11.4-2c-0.3,0-0.5-0.1-0.7-0.3s-0.3-0.5-0.2-0.8l0.7-4.6c0.1-0.5,0.5-0.8,0.9-0.8l22.7-0.3l1.7-19
											l-40.7,1.8l-5.2,38.7c3-0.6,6.3-1,9.8-1h0.6c3.7,0,7.3,0.5,10.6,1.5c3.6,1.1,6.4,2.9,8.4,5.4c2.1,2.6,2.8,6,2.3,10.3
											c-0.5,2.7-1.6,4.9-3.3,6.6c-1.7,1.7-3.8,2.7-6.2,3.2c-2.4,0.4-4.8,0-7.2-1.2c-2.1-1.1-4-2.9-5.7-5.5L334.2,231.3z"/>
									</g>
								</g>
							</g>
						</g>
					</g>
				</g>
			</g>
			<g>
				<g>
					<g>
						<g>
							<g>
								<g>
									<path class="st20" d="M209,203.1"/>
								</g>
							</g>
						</g>
					</g>
				</g>
				<g>
					<g>
						<g>
							<g>
								<g>
									<polygon class="st19" points="203,260 210.5,266 181.3,264.6 166.6,258.3 									"/>
								</g>
							</g>
						</g>
					</g>
					<g>
						<g>
							<g>
								<g>
									<path class="st18" d="M210.5,266.8L210.5,266.8l-29.2-1.4c-0.1,0-0.2,0-0.3-0.1l-14.8-6.4c-0.4-0.2-0.5-0.5-0.5-0.9
										c0.1-0.4,0.4-0.6,0.8-0.6l36.5,1.7c0.2,0,0.3,0.1,0.5,0.2l7.4,6c0.2,0.1,0.4,0.4,0.4,0.7
										C211.3,266.4,211,266.8,210.5,266.8L210.5,266.8z M181.5,263.9l26.6,1.2l-5.4-4.3l-31.9-1.5L181.5,263.9z"/>
								</g>
							</g>
						</g>
					</g>
				</g>
				<g>
					<g>
						<g>
							<g>
								<g>
									<polygon class="st17" points="208.4,184 214.8,205.2 215.3,220.5 209,203.1 									"/>
								</g>
							</g>
						</g>
					</g>
					<g>
						<g>
							<g>
								<g>
									<path class="st18" d="M215.3,221.3c-0.3,0-0.6-0.2-0.7-0.5l-6.3-17.4c0-0.1,0-0.2,0-0.2l-0.6-19.2c0-0.4,0.3-0.7,0.7-0.8
										s0.8,0.2,0.9,0.6l6.4,21.3c0,0.1,0,0.1,0,0.2l0.4,15.2c0,0.1,0,0.1,0,0.2C216.1,221,215.7,221.3,215.3,221.3L215.3,221.3z
										 M209.8,203l4.6,12.6l-0.4-10.3l-4.7-15.4L209.8,203z"/>
								</g>
							</g>
						</g>
					</g>
				</g>
				<g>
					<g>
						<g>
							<g>
								<g>
									<g>
										<polygon class="st17" points="198.7,216.3 207.1,231.1 207.5,246.4 199.2,235.5 										"/>
									</g>
								</g>
							</g>
						</g>
						<g>
							<g>
								<g>
									<g>
										<path class="st18" d="M207.5,247.2c-0.2,0-0.5-0.1-0.6-0.3l-8.2-10.9c-0.1-0.1-0.2-0.3-0.2-0.5l-0.5-19.2
											c0-0.4,0.2-0.7,0.6-0.8c0.3-0.1,0.7,0.1,0.9,0.4l8.4,14.8c0.1,0.1,0.1,0.2,0.1,0.4l0.4,15.2c0,0.1,0,0.1,0,0.2
											C208.3,246.9,207.9,247.2,207.5,247.2L207.5,247.2z M200,235.2l6.6,8.7l-0.4-12.7l-6.7-11.8L200,235.2z"/>
									</g>
								</g>
							</g>
						</g>
					</g>
					<g>
						<g>
							<g>
								<g>
									<g>
										<polygon class="st19" points="209,203.1 215.3,220.5 196.7,220.6 185.7,203.2 										"/>
									</g>
								</g>
							</g>
						</g>
						<g>
							<g>
								<g>
									<g>
										<path class="st18" d="M196.7,221.4c-0.3,0-0.5-0.1-0.7-0.4l-11-17.4c-0.2-0.2-0.2-0.6,0-0.8c0.1-0.3,0.4-0.4,0.7-0.4H209
											l0,0c0.3,0,0.6,0.2,0.7,0.5l6.3,17.4c0.1,0.2,0.1,0.5-0.1,0.7c-0.1,0.2-0.4,0.3-0.7,0.3L196.7,221.4L196.7,221.4z
											 M187.2,204l9.9,15.8h17l-5.7-15.8H187.2z"/>
									</g>
								</g>
							</g>
						</g>
					</g>
					<g>
						<g>
							<g>
								<g>
									<g>
										<polygon class="st17" points="185.7,203.2 196.7,220.6 196,231.5 184.8,216.9 										"/>
									</g>
								</g>
							</g>
						</g>
						<g>
							<g>
								<g>
									<g>
										<path class="st18" d="M196,232.3c-0.2,0-0.5-0.1-0.6-0.3l-11.2-14.7c-0.1-0.2-0.2-0.3-0.2-0.5l0.9-13.7
											c0-0.3,0.3-0.6,0.6-0.7c0.3-0.1,0.7,0.1,0.9,0.3l10.9,17.4c0.1,0.1,0.1,0.3,0.1,0.5l-0.7,10.9
											C196.7,231.8,196.5,232.1,196,232.3C196.1,232.3,196,232.3,196,232.3z M185.7,216.6l9.7,12.7l0.5-8.6l-9.5-15.1
											L185.7,216.6z"/>
									</g>
								</g>
							</g>
						</g>
					</g>
					<g>
						<g>
							<g>
								<g>
									<g>
										<polygon class="st17" points="183.6,235.5 195,246.4 194.8,250.6 183.3,240.8 										"/>
									</g>
								</g>
							</g>
						</g>
						<g>
							<g>
								<g>
									<g>
										<path class="st18" d="M194.8,251.4c-0.2,0-0.4-0.1-0.5-0.2l-11.4-9.9c-0.2-0.2-0.3-0.4-0.3-0.7l0.3-5.3
											c0-0.3,0.2-0.6,0.5-0.7s0.6,0,0.8,0.2l11.4,10.9c0.2,0.2,0.3,0.4,0.2,0.6l-0.2,4.2c0,0.3-0.2,0.6-0.5,0.7
											C195,251.4,194.9,251.4,194.8,251.4z M184.1,240.4l9.9,8.6l0.1-2.3l-9.9-9.5L184.1,240.4z"/>
									</g>
								</g>
							</g>
						</g>
					</g>
					<g>
						<g>
							<g>
								<g>
									<g>
										<g>
											<g>
												<polygon class="st21" points="209,203.1 209,203.1 185.7,203.2 184.8,216.9 198.7,216.3 199.2,235.5 183.6,235.5 
													183.3,240.8 206.3,240.8 203,260 166.6,258.3 169.3,186.1 208.4,184 												"/>
											</g>
										</g>
									</g>
								</g>
							</g>
						</g>
						<g>
							<g>
								<g>
									<g>
										<g>
											<path class="st18" d="M203,260.8L203,260.8l-36.5-1.7c-0.4,0-0.8-0.4-0.8-0.8l2.7-72.2c0-0.4,0.3-0.7,0.8-0.8l39.1-2.1
												c0.2,0,0.4,0.1,0.6,0.2c0.2,0.2,0.2,0.3,0.3,0.6l0.6,19.2c0,0.2-0.1,0.4-0.2,0.6c-0.2,0.2-0.4,0.2-0.6,0.2h-22.5
												l-0.8,12.1l13-0.5c0.2,0,0.4,0.1,0.6,0.2c0.2,0.1,0.2,0.3,0.3,0.6l0.5,19.2c0,0.2-0.1,0.4-0.2,0.6
												c-0.2,0.2-0.3,0.2-0.6,0.2h-14.9l-0.2,3.7h22.2c0.2,0,0.5,0.1,0.6,0.3c0.1,0.2,0.2,0.4,0.2,0.6l-3.3,19.2
												C203.7,260.5,203.4,260.8,203,260.8z M167.4,257.5l35,1.6l3-17.6h-22.1c-0.2,0-0.4-0.1-0.6-0.2c-0.1-0.2-0.2-0.4-0.2-0.6
												l0.3-5.3c0-0.4,0.4-0.7,0.8-0.7l0,0h14.8l-0.5-17.6l-13.1,0.5c-0.2,0-0.4-0.1-0.6-0.2c-0.2-0.2-0.2-0.4-0.2-0.6l0.9-13.7
												c0-0.4,0.4-0.7,0.8-0.7h22.4l-0.5-17.5l-37.6,2L167.4,257.5z"/>
										</g>
									</g>
								</g>
							</g>
						</g>
					</g>
				</g>
				<g>
					<g>
						<g>
							<g>
								<g>
									<polygon class="st17" points="206.3,240.8 213.2,250.7 210.5,266 203,260 									"/>
								</g>
							</g>
						</g>
					</g>
					<g>
						<g>
							<g>
								<g>
									<path class="st18" d="M210.5,266.8c-0.2,0-0.4-0.1-0.5-0.2l-7.5-6c-0.2-0.2-0.3-0.5-0.3-0.8l3.3-19.2
										c0.1-0.3,0.3-0.6,0.6-0.6c0.3-0.1,0.6,0.1,0.8,0.3l6.8,9.9c0.1,0.2,0.2,0.4,0.1,0.6l-2.7,15.3c-0.1,0.3-0.2,0.5-0.5,0.6
										C210.7,266.8,210.6,266.8,210.5,266.8z M203.9,259.6l6.1,4.9l2.4-13.7l-5.5-8L203.9,259.6z"/>
								</g>
							</g>
						</g>
					</g>
				</g>
			</g>
			<g>
				<g>
					<g>
						<g>
							<g>
								<g>
									<path class="st20" d="M234.8,162.7"/>
								</g>
							</g>
						</g>
					</g>
				</g>
				<g>
					<g>
						<g>
							<g>
								<g>
									<polygon class="st17" points="234.8,162.7 244.5,183.9 239.8,230.8 228.8,221.3 									"/>
								</g>
							</g>
						</g>
					</g>
					<g>
						<g>
							<g>
								<g>
									<path class="st18" d="M239.8,231.6c-0.2,0-0.4-0.1-0.5-0.2l-11-9.5c-0.2-0.2-0.3-0.4-0.3-0.7l6-58.6c0-0.4,0.3-0.6,0.7-0.7
										c0.3-0.1,0.7,0.1,0.9,0.5l9.8,21.2c0.1,0.1,0.1,0.3,0.1,0.4l-4.8,46.9c0,0.3-0.2,0.5-0.5,0.7
										C240,231.6,239.9,231.6,239.8,231.6z M229.6,221l9.5,8.2l4.6-45.2l-8.5-18.3L229.6,221z"/>
								</g>
							</g>
						</g>
					</g>
				</g>
				<g>
					<g>
						<g>
							<g>
								<g>
									<polygon class="st17" points="251.7,221.5 258.1,230.9 256.9,244 250.2,237.8 									"/>
								</g>
							</g>
						</g>
					</g>
					<g>
						<g>
							<g>
								<g>
									<path class="st18" d="M256.9,244.8c-0.2,0-0.4-0.1-0.5-0.2l-6.7-6.1c-0.2-0.2-0.3-0.4-0.3-0.7l1.5-16.3
										c0-0.3,0.3-0.6,0.6-0.7c0.3-0.1,0.7,0,0.9,0.3l6.4,9.4c0.1,0.2,0.2,0.3,0.1,0.5l-1.2,13.1c0,0.3-0.2,0.6-0.5,0.7
										C257.1,244.8,257,244.8,256.9,244.8z M251,237.5l5.2,4.8l1-11.2l-5-7.4L251,237.5z"/>
								</g>
							</g>
						</g>
					</g>
				</g>
				<g>
					<g>
						<g>
							<g>
								<g>
									<polygon class="st19" points="250.2,237.8 256.9,244 224.9,244.2 210.2,238.1 									"/>
								</g>
							</g>
						</g>
					</g>
					<g>
						<g>
							<g>
								<g>
									<path class="st18" d="M224.9,245c-0.1,0-0.2,0-0.3-0.1l-14.7-6.1c-0.4-0.1-0.5-0.5-0.5-0.9c0.1-0.4,0.4-0.6,0.8-0.6l40-0.3
										c0.2,0,0.4,0.1,0.5,0.2l6.7,6.1c0.2,0.2,0.3,0.6,0.2,0.9c-0.1,0.3-0.4,0.5-0.7,0.5L224.9,245L224.9,245z M214.1,238.9
										l10.9,4.5l29.8-0.2l-5-4.6L214.1,238.9z"/>
								</g>
							</g>
						</g>
					</g>
				</g>
				<g>
					<g>
						<g>
							<g>
								<g>
									<g>
										<g>
											<polygon class="st21" points="234.8,162.7 234.8,162.7 228.8,221.3 251.7,221.5 250.2,237.8 210.2,238.1 215.8,162.6 
																							"/>
										</g>
									</g>
								</g>
							</g>
						</g>
					</g>
					<g>
						<g>
							<g>
								<g>
									<g>
										<path class="st18" d="M210.2,238.9c-0.2,0-0.4-0.1-0.6-0.3c-0.2-0.2-0.2-0.4-0.2-0.6l5.6-75.5c0-0.4,0.4-0.7,0.8-0.7l0,0
											l19,0.1c0.2,0,0.4,0.1,0.6,0.3c0.2,0.2,0.2,0.4,0.2,0.6l-5.9,57.8l22,0.2c0.2,0,0.4,0.1,0.6,0.3c0.2,0.2,0.2,0.4,0.2,0.6
											L251,238c0,0.4-0.4,0.7-0.8,0.7L210.2,238.9L210.2,238.9z M216.5,163.4l-5.5,73.9l38.4-0.3l1.3-14.8l-22-0.2
											c-0.2,0-0.4-0.1-0.6-0.3c-0.1-0.2-0.2-0.4-0.2-0.6l5.9-57.7H216.5z"/>
									</g>
								</g>
							</g>
						</g>
					</g>
				</g>
			</g>
		</g>
	</g>
</g>
</svg>
