<?xml version="1.0" encoding="utf-8"?>
<!-- Generator: Adobe Illustrator 24.0.0, SVG Export Plug-In . SVG Version: 6.00 Build 0)  -->
<svg version="1.1" id="Camada_1" xmlns="http://www.w3.org/2000/svg" xmlns:xlink="http://www.w3.org/1999/xlink" x="0px" y="0px"
	 viewBox="0 0 1241 274" style="enable-background:new 0 0 1241 274;" xml:space="preserve">
<style type="text/css">
	.st0{clip-path:url(#SVGID_2_);}
	.st1{fill:#FFFFFF;}
	.st2{fill:#F6F6F6;}
	.st3{fill:#F9DDBF;}
	.st4{fill:#EAC3A2;}
	.st5{fill:#3A3A3A;}
	.st6{fill:#E2E2E2;}
	.st7{fill:#D67330;}
	.st8{fill:#8C8C8C;}
	.st9{fill:#AFAFAF;}
	.st10{fill:#D3D3D3;}
	.st11{fill:#FE5722;}
	.st12{fill:#FC8F24;}
	.st13{fill:#ECECEE;}
	.st14{opacity:0.3;fill:#C9C8CD;}
	.st15{fill:#FBC900;}
	.st16{fill:#333333;}
	.st17{opacity:0.32;fill:#FFFFFF;}
	.st18{fill:#DB5800;}
	.st19{fill:#DD0A0A;}
	.st20{fill:#BFB8B8;}
	.st21{fill:#DDAC9E;}
	.st22{fill:#300901;}
	.st23{fill:#E24949;}
	.st24{fill:#D8D8D8;}
	.st25{fill:#232121;}
	.st26{fill:#FFB000;}
	.st27{fill:#FFD400;}
	.st28{fill:#EA8500;}
</style>
<g>
	<defs>
		<rect id="SVGID_1_" y="0" width="1241" height="274"/>
	</defs>
	<clipPath id="SVGID_2_">
		<use xlink:href="#SVGID_1_"  style="overflow:visible;"/>
	</clipPath>
	<g id="room_image" class="st0">
		<rect y="0" class="st1" width="1241" height="274"/>
		<g id="Grupo_97" transform="translate(-854 65)">
			<rect id="Retângulo_2" x="854" y="17" class="st2" width="1241" height="192"/>
			<g id="room_img" transform="translate(1151.233 -57.581)">
				<g id="Grupo_84" transform="translate(21.097 26.581)">
					<g id="Grupo_56" transform="translate(394.947 189.241)">
						<path id="Caminho_180" class="st3" d="M0,0.3l7.7,16.9l0,0l14.9,32.5c0.3,0.5,0.8,0.9,1.4,0.9h0.1c0.9,0,1.7-0.8,1.7-1.7
							c0-0.1,0-0.3-0.1-0.4L13.9,6.2L12.2,0L0,0.3z"/>
					</g>
					<path id="Caminho_181" class="st4" d="M402.7,206.4c-0.7-7.7,6.2-11,6.2-11l-1.7-6.2l-12.2,0.3L402.7,206.4z"/>
					<g id="Grupo_57" transform="translate(474.731 189.241)">
						<path id="Caminho_182" class="st3" d="M0,0.3l7.7,16.9l0,0l14.9,32.5c0.3,0.5,0.8,0.9,1.4,0.9h0.1c0.9,0,1.7-0.8,1.7-1.7
							c0-0.1,0-0.3-0.1-0.4L13.9,6.2L12.2,0L0,0.3z"/>
					</g>
					<path id="Caminho_183" class="st4" d="M482.5,206.4c-0.7-7.7,6.2-11,6.2-11l-1.7-6.2l-12.2,0.3L482.5,206.4z"/>
					<path id="Caminho_184" class="st3" d="M500.5,159.5v28.2c0,1.8-1.4,3.2-3.2,3.2H144.8c-1.8,0-3.2-1.4-3.2-3.2v-28.2
						c0-1.8,1.4-3.2,3.2-3.2h352.5C499.1,156.3,500.5,157.7,500.5,159.5z"/>
					<path id="Caminho_185" class="st4" d="M157.6,189.2l-1.7,6.2L144,237.7c-0.2,0.9,0.3,1.8,1.2,2c0.1,0,0.3,0.1,0.4,0.1h0.1
						c0.6,0,1.2-0.3,1.4-0.9l14.9-32.5l0,0l7.7-16.9L157.6,189.2z"/>
					<path id="Caminho_186" class="st4" d="M220.5,189.2l-1.7,6.2l-11.8,42.3c-0.2,0.9,0.3,1.8,1.2,2c0.1,0,0.3,0.1,0.4,0.1h0.1
						c0.6,0,1.2-0.3,1.4-0.9l14.9-32.5l0,0l7.7-16.9L220.5,189.2z"/>
					<path id="Caminho_187" class="st4" d="M272.5,55.1h-132c-2,0-3.7,1.6-3.7,3.7v128.4c0,2,1.6,3.7,3.7,3.7h132
						c2,0,3.7-1.6,3.7-3.7V58.8C276.1,56.8,274.5,55.1,272.5,55.1z"/>
					<path id="Caminho_188" class="st3" d="M280.9,58.7v109c0.1,1.9-1.3,3.5-3.2,3.6H144.8c-1.9-0.1-3.3-1.7-3.2-3.6v-109
						c-0.1-1.9,1.3-3.5,3.2-3.6h132.9C279.6,55.2,281,56.8,280.9,58.7z"/>
					<path id="Caminho_189" class="st4" d="M167,165.5c0,0-24.5-1.9-25.3-2.6v-22.4c5.2-4.9,15.3-10.4,15.3-10.4L167,165.5z"/>
					<path id="Caminho_190" class="st4" d="M173.9,81.3c0.2-1.1,1.2-1.9,2.3-1.7s1.9,1.2,1.7,2.3c-0.2,1-1,1.7-2,1.7
						C174.8,83.6,173.9,82.5,173.9,81.3z"/>
					<path id="Caminho_191" class="st4" d="M254.3,81.3c0.2-1.1,1.2-1.9,2.3-1.7c1.1,0.2,1.9,1.2,1.7,2.3c-0.2,1-1,1.7-2,1.7
						C255.2,83.6,254.3,82.5,254.3,81.3z"/>
					<path id="Caminho_192" class="st5" d="M173.9,125.5c0.2-1.1,1.2-1.9,2.3-1.7s1.9,1.2,1.7,2.3c-0.2,1-1,1.7-2,1.7
						C174.8,127.8,173.9,126.8,173.9,125.5C173.9,125.6,173.9,125.5,173.9,125.5z"/>
					<path id="Caminho_193" class="st4" d="M254.3,125.5c0.2-1.1,1.2-1.9,2.3-1.7c1.1,0.2,1.9,1.2,1.7,2.3c-0.2,1-1,1.7-2,1.7
						C255.2,127.8,254.3,126.8,254.3,125.5C254.3,125.6,254.3,125.5,254.3,125.5z"/>
					<path id="Caminho_194" class="st4" d="M382.8,159.5v28.2c0,1.8-1.5,3.2-3.2,3.2H141.4c-1.8,0-3.2-1.4-3.2-3.2v-28.2
						c0-1.8,1.5-3.2,3.2-3.2h238.1C381.3,156.3,382.7,157.7,382.8,159.5z"/>
					<g id="Grupo_58" transform="translate(213.589 111.784)">
						<path id="Caminho_195" class="st6" d="M5.6,1.9c0,0-9,26-4.3,42.8h15.5C16.8,44.7,22.5,14.1,5.6,1.9z"/>
						<path id="Caminho_196" class="st1" d="M5.6,1.9c0,0,31.1-4.3,48.3,0l12.9,42.8h-50C16.8,44.7,22.5,19.1,5.6,1.9z"/>
					</g>
					<path id="Caminho_197" class="st7" d="M391,155.2c-0.3-0.2-0.5-0.3-0.5-0.3C390.7,155,390.9,155.1,391,155.2z"/>
					<g id="Grupo_59" transform="translate(152.942 111.784)">
						<path id="Caminho_198" class="st6" d="M5.6,1.9c0,0-9,26-4.3,42.8h15.5C16.8,44.7,22.5,14.1,5.6,1.9z"/>
						<path id="Caminho_199" class="st1" d="M5.6,1.9c0,0,31.1-4.3,48.3,0l12.9,42.8h-50C16.8,44.7,22.5,19.1,5.6,1.9z"/>
					</g>
					<g id="Grupo_64" transform="translate(20.952 131.019)">
						<path id="Caminho_200" class="st8" d="M100.2,1.7v2.7c0,0.9-0.3,1.7-0.7,1.7H0.7C0.3,6.2,0,5.4,0,4.4V1.7C0,0.8,0.3,0,0.7,0
							h98.8C99.9,0,100.2,0.8,100.2,1.7z"/>
						<path id="Caminho_201" class="st9" d="M100.2,1.7v2.7c0,0.9-0.3,1.7-0.6,1.7H21.1c-0.4,0-0.6-0.8-0.6-1.7V1.7
							c0-0.9,0.3-1.7,0.6-1.7h78.5C99.9,0,100.2,0.8,100.2,1.7z"/>
						<rect id="Retângulo_317" x="5" y="6.1" class="st8" width="70.2" height="102.2"/>
						<rect id="Retângulo_318" x="24.7" y="6.1" class="st10" width="70.2" height="102.2"/>
						<g id="Grupo_63" transform="translate(28.445 9.023)">
							<g id="Grupo_60">
								<path id="Caminho_202" class="st8" d="M62.6,93.7H0V0h62.6V93.7z M0.7,93h61.3V0.7H0.7L0.7,93z"/>
							</g>
							<g id="Grupo_61" transform="translate(0.35 31.022)">
								<rect id="Retângulo_319" x="0" y="0" class="st8" width="61.9" height="0.7"/>
							</g>
							<g id="Grupo_62" transform="translate(0.35 62.613)">
								<rect id="Retângulo_320" x="0" y="0" class="st8" width="61.9" height="0.7"/>
							</g>
							<path id="Caminho_203" class="st8" d="M37.7,6.1H26.2c-0.6,0-1-0.4-1-1c0,0,0,0,0,0l0,0c0-0.6,0.4-1,1-1c0,0,0,0,0,0h11.5
								c0.6,0,1,0.4,1,1c0,0,0,0,0,0l0,0C38.7,5.6,38.2,6,37.7,6.1z"/>
							<path id="Caminho_204" class="st8" d="M37.7,37H26.2c-0.6,0-1-0.4-1-1c0,0,0,0,0,0l0,0c0-0.6,0.4-1,1-1h11.5c0.6,0,1,0.4,1,1
								c0,0,0,0,0,0l0,0C38.7,36.5,38.2,37,37.7,37z"/>
							<path id="Caminho_205" class="st8" d="M37.7,69.2H26.2c-0.6,0-1-0.4-1-1c0,0,0,0,0,0l0,0c0-0.6,0.4-1,1-1c0,0,0,0,0,0h11.5
								c0.6,0,1,0.4,1,1c0,0,0,0,0,0l0,0C38.7,68.7,38.2,69.2,37.7,69.2z"/>
						</g>
					</g>
				</g>
			</g>
		</g>
	</g>
</g>
<g>
	<polygon class="st11" points="338.4,258.5 288.3,258.5 291.8,245.4 297.8,223.2 301,211.5 307,189.2 310.4,176.5 316.3,176.5 
		319.7,189.2 325.7,211.5 328.9,223.2 334.9,245.4 	"/>
	<rect x="277.1" y="267.9" class="st11" width="72.4" height="6.3"/>
	<polygon class="st12" points="349.6,267.9 277.1,267.9 288.3,258.5 338.4,258.5 	"/>
	<polygon class="st13" points="325.7,211.5 301,211.5 307,189.2 319.7,189.2 	"/>
	<polygon class="st13" points="334.9,245.4 291.8,245.4 297.8,223.2 328.9,223.2 	"/>
	<polygon class="st14" points="313.3,176.5 313.3,274.2 277.1,274.2 277.1,267.9 288.3,258.5 291.8,245.4 297.8,223.2 301,211.5 
		307,189.2 310.4,176.5 	"/>
</g>
<g>
	
		<rect x="570.3" y="63.8" transform="matrix(0.1826 -0.9832 0.9832 0.1826 287.7592 720.1663)" class="st15" width="13.4" height="246.4"/>
	<polygon class="st16" points="476,175.1 460.6,172.2 476.3,161.5 491.8,164.4 	"/>
	<polygon class="st16" points="504.8,180.4 489.3,177.5 505,166.8 520.5,169.7 	"/>
	<polygon class="st16" points="533.5,185.8 518,182.9 533.7,172.2 549.2,175 	"/>
	<polygon class="st16" points="562.2,191.1 546.8,188.2 562.5,177.5 577.9,180.4 	"/>
	<polygon class="st16" points="590.9,196.4 575.5,193.6 591.2,182.8 606.7,185.7 	"/>
	<polygon class="st16" points="619.7,201.8 604.2,198.9 619.9,188.2 635.4,191 	"/>
	<polygon class="st16" points="648.4,207.1 632.9,204.2 648.6,193.5 664.1,196.4 	"/>
	<polygon class="st16" points="677.1,212.4 661.7,209.6 677.4,198.8 692.8,201.7 	"/>
	
		<rect x="575" y="61" transform="matrix(0.1826 -0.9832 0.9832 0.1826 290.9099 718.4043)" class="st17" width="5.1" height="246.4"/>
</g>
<g>
	
		<rect x="697.9" y="203.4" transform="matrix(1 -9.939341e-03 9.939341e-03 1 -2.0505 7.5576)" class="st15" width="122.9" height="13.4"/>
	<polygon class="st16" points="708.8,217.3 701,217.4 707.6,203.9 715.4,203.8 	"/>
	<polygon class="st16" points="723.4,217.1 715.5,217.2 722.1,203.7 730,203.7 	"/>
	<polygon class="st16" points="737.9,217 730.1,217.1 736.7,203.6 744.5,203.5 	"/>
	<polygon class="st16" points="752.5,216.9 744.7,216.9 751.3,203.5 759.1,203.4 	"/>
	<polygon class="st16" points="767.1,216.7 759.2,216.8 765.8,203.3 773.7,203.2 	"/>
	<polygon class="st16" points="781.7,216.6 773.8,216.6 780.4,203.2 788.2,203.1 	"/>
	<polygon class="st16" points="796.2,216.4 788.4,216.5 795,203 802.8,202.9 	"/>
	<polygon class="st16" points="810.8,216.3 803,216.4 809.5,202.9 817.4,202.8 	"/>
	
		<rect x="697.8" y="204.7" transform="matrix(1 -9.939341e-03 9.939341e-03 1 -2.0225 7.5572)" class="st17" width="122.9" height="5.1"/>
</g>
<g>
	<path class="st18" d="M884.7,213.8c-3.1,3.6-5.1,3.9-7.8,4.8c-2.7,0.9-4.9,1-6.7,2.9c-4,4-10,8-8.8,8.9c2.9,2.2,5-0.5,6.7-1.5
		c1.7-1.1,3.5-2.9,3.5-2.9s-5.9,5.3-5.5,6.2c0.4,0.9,11.6,3.7,13.9,3.2c2.3-0.5,3.8-5.8,5.6-7.6c1.8-1.8,5.7-3.2,6.8-4
		C893.6,223.1,884.7,213.8,884.7,213.8z"/>
	<path d="M917.9,254.8c0.5,6.3,4.3,18.1,0,17.7c-4.3-0.4-6-0.2-12,0.4c-6,0.6-23.5,2.4-23.1-2.1c0.4-4.5,3.2-6.1,6.4-6.2
		c7.6-0.4,14.7-12,17.4-10.9C910.2,255.1,917.9,254.8,917.9,254.8z"/>
	<path class="st19" d="M939.3,207.8c-7.2,0.1-38-21-51.4-13.1c-7.2,4.2-4.7,19.4,4.2,36.7c5.9,11.4,8.9,29.1,12.1,29.9
		c5.3,1.3,22.3,0.3,24.6-1c2.3-1.3-12.2-33.5-14.1-34.9c-1.9-1.3,15.2,17,24.6,12.8V207.8z"/>
	<path class="st20" d="M920.2,153c-4.3,5.1-10.2,28.6-22,42.7c-5.9,7.1-22,22.5-22,22.5l9.2,12.6c0,0,18.7-15.2,22.6-18.2
		c16.9-13,28.2-42.9,28.2-42.9L920.2,153z"/>
	<g>
		<path class="st21" d="M918,158.2c-6.8-4-15.2-8.6-15.2-8.6l4.4-13.7c0,0,19.9,5.8,22.2,6.8C931.7,143.8,918,158.2,918,158.2z"/>
		<path class="st21" d="M906.9,114.4c-1.8-2.8-4.1-4.5-6.5-5.2c-10.4-4.1-24.6,8.3-24.5,17.9c0.1,5.5,3.1,12.8,7,18.9
			c0.2,1.6,0.2,3.4,0.2,5.8c0.4,1.5,2.7,1.2,4.7,0.8c3.2,3.6,6.4,5.9,8.9,5.8c2.4-0.1,3.9-0.5,5.5-1.2c0,0,0,0,0,0
			c0.6-0.3,6.2-3,6.9-3.3C909.1,153.9,924.6,141.7,906.9,114.4z"/>
		<path class="st22" d="M895.9,109.4c-3.4-1.8-5.7,0.6-12.6,4.9c-6.7,4.2-7.5,1.4-9.2,8.9c-0.8,3.9,2.3,9.1,2.3,9.1s2.3-2.1,4.1-2.6
			c1.9-0.5,0,0.3,4,2.2c3.3,1.6,5,3.4,5,3.4s12.6-3.6,14.1-1.3c1,1.5,8.8,3.6,12.9,4.3c0,0,0.6-7.6-3.3-15.8
			C907.9,111.5,896.7,109.9,895.9,109.4z"/>
		<path class="st21" d="M897.1,134.3c0.5-1.8,0.8-4.6,3-4.2c3.3,0.5,7,4.6,5.6,8.4C904.3,142.2,897.1,134.3,897.1,134.3z"/>
		<g>
			<g>
				<path class="st19" d="M913.7,123.2c-2.7,1.1-20.3,4.6-20.3,4.6s-3.5,9.9-7.6,12.2c-4.1,2.3-19,8.6-17.7,5.2
					c2.8-4.4,6.3-10.4,6.3-10.4s-5.2-8.2-1.4-14.6c2.4-3.9,9.9-9,13-10c5.6-1.7,11.6-3.8,18.2,0.9
					C910.9,115.8,913.7,123.2,913.7,123.2z"/>
			</g>
			<g>
				<path class="st23" d="M903.4,110.3c6.6,4.7,10.4,12.9,10.4,12.9c-2.3,0.9-15.2,3.6-19.2,4.4c-1.2-6.3-5.2-14-9.9-16.8
					c0.3-0.1,0.9-0.4,1.1-0.5C889,109.1,896.8,105.7,903.4,110.3z"/>
			</g>
		</g>
	</g>
	<path class="st24" d="M922.5,140.1c6.4,1.4,30.8,3,48.3,60.5c0,0-25.2,26.3-30.3,26.3c-4.4-7.6-24.8-43.9-25.5-64.2
		C914.7,153.4,922.5,140.1,922.5,140.1z"/>
	<path class="st25" d="M971,246.3c4.9-4.5,7.6-7.9,13-7.4c5.4,0.6,6.7,3.8,6.7,8.4c0,4.5,1.7,11.8,1.5,17.1
		c-0.2,3.8-3.7,12.2-16.1,10.5c-8.1-1.1,1.1-7.8,2.2-12.3C979.3,258.1,971,246.3,971,246.3z"/>
	<path class="st23" d="M946.4,162.9c0-0.7,5.9-4.6,6.2-4.2c21.7,30.7,29.2,63,22.7,77.6c-5.4,12.1-38,20-40.9,21.6
		c-0.7,0.4,40.7-16.6,43.2-12.2c3,5.4,7.7,19.7,2.6,22.8c-12.7,7.6-44.6,2.9-50.8,2.9c-10.2-0.1-17.6-1.3-17.6-6.6
		c0-21.2,36.7-42.7,36.7-42.7l-25.1-38.8C923.3,183.4,946.3,192.7,946.4,162.9z"/>
	<g>
		<path class="st19" d="M977.5,271.5c-21.1,3.4-47.4,1.6-63.3,1.4c-10.2-0.1-17.2-8.3-12.9-16.1c9.8-17.8,33.2-30.2,33.2-30.2
			l-16.4-42.1c0,0,16.8,3.6,25.5-8c2.2,4.5,13,31.3,14.3,37.1c0.7,2.8,4.1,10.1-8,23.4c-8.9,9.7-34.3,25.4-24.3,27.1
			c15.1,2.6,46.2-2,55.9-7.3C984.7,265.4,979.6,271.2,977.5,271.5z"/>
	</g>
	<path class="st23" d="M956.5,171.3c-1.2-6.1-14.5-20.5-20.7-23c-9.4-3.7-17.1-0.8-18.4,11.5c-1.3,12.3,5,24.9,5,24.9l4.6-1
		c0,0-9.7-19.3-6.4-27.1c2.6-6.1,17.1-13.4,29.7,14.3C954,178.7,956.5,171.3,956.5,171.3z"/>
	<g>
		<g>
			<polygon class="st26" points="833.2,218 920.6,253.9 922.3,251.1 831.2,213.7 			"/>
			<g>
				<g>
					<path d="M825.8,218.2c0,0.1,0,0.2,0.1,0.2l2.5-0.7c0.1,0,0.2-0.1,0.2-0.1l1-2.2c0.1-0.1,0.1-0.2,0-0.3l-2.3,0.2
						c-0.2,0-0.2,0-0.3,0.2L825.8,218.2z"/>
					<polygon class="st16" points="836,219.3 836,218.1 831.2,213.7 827.2,215.2 827.1,215.3 					"/>
				</g>
			</g>
		</g>
		<g>
			<path d="M919.1,251.6c-0.6-2.4-0.5-5.1,0.7-7.9c3.3-8,10.6-11.1,17.8-8.1c7.1,3,10.5,11.3,7.4,18.6c-0.1,0.2-2,4.7-2,4.7
				c-1.7,4-6.1,5.9-10,4.3l-15.6-6.5c0,0-1-2.1-0.3-3.9c0.6-1.5,0.8-1.8,0.8-1.8C917.9,251,919.1,251.6,919.1,251.6z"/>
			<path class="st27" d="M926.6,256L926.6,256c0.5,0.3,1.1,0.6,1.7,0.9c3.1,1.3,6.4,0.9,9-0.7c0.2,0.3,0.3,0.5,0.3,0.5
				c0.2,0.2,0.4,0.2,0.6,0l1.1-0.9c0.2-0.1,0.2-0.4,0.1-0.6l-0.3-0.5c0.4-0.4,0.7-0.7,1-1.2l0.6,0.2c0.2,0.1,0.5,0,0.5-0.2l0.7-1.2
				c0.1-0.2,0.1-0.4-0.1-0.6l-0.5-0.4c0,0,0,0,0,0c0.2-0.5,0.4-1,0.5-1.5l0.6,0c0.2,0,0.4-0.2,0.4-0.4l0.2-1.4
				c0-0.2-0.1-0.4-0.3-0.5l-0.6-0.1c0-0.6-0.1-1.1-0.2-1.7l0.5-0.2c0.2-0.1,0.3-0.3,0.2-0.5l-0.4-1.3c0-0.2-0.3-0.3-0.5-0.3
				l-0.6,0.1c-0.2-0.5-0.5-0.9-0.7-1.4l0.4-0.4c0.2-0.2,0.2-0.4,0-0.6l-0.8-1.1c-0.1-0.2-0.4-0.2-0.6-0.1l-0.6,0.3
				c-0.4-0.3-0.7-0.6-1.1-0.9l0.2-0.6c0.1-0.2,0-0.5-0.2-0.5l-1.2-0.7c-0.2-0.1-0.4-0.1-0.6,0.1l-0.5,0.6c-0.5-0.2-0.9-0.3-1.4-0.4
				l0-0.7c0-0.2-0.2-0.4-0.4-0.4l-1.4-0.2c-0.2,0-0.4,0.1-0.5,0.3l-0.2,0.8c-0.4,0-0.8,0-1.1,0.1l-0.8-3.2
				c-4.1,0.6-8.6,4.2-10.3,8.3c-1.3,3-1.7,5.4-0.8,8.3l0.4,0.2c0,0,1.4-1,2.4-0.7c1,0.3,1.6,0.4,2.2,2.4
				C924,254,925.5,255.2,926.6,256z"/>
		</g>
		<g>
			<g>
				<path class="st28" d="M926,245.1c-1.4,3.5,0.2,7.4,3.6,8.9c3.5,1.4,7.4-0.2,8.9-3.6c1.4-3.5-0.2-7.4-3.6-8.9
					C931.4,240,927.4,241.6,926,245.1z"/>
			</g>
			<path d="M926,245.1c-1.4,3.5,0.2,7.4,3.6,8.9c3.5,1.4,7.4-0.2,8.9-3.6L926,245.1z"/>
		</g>
	</g>
	<g>
		<path class="st28" d="M878.2,236.8c-1.7,0.5-2.7,1-3.3,0.1c-0.6-0.9-1.1-1.4,0.2-3.8c1.2-2.4,2-3.8,3-3.5c1.6,0.5,0.2,4.5,0.1,5.1
			C877.9,236.2,878.2,236.8,878.2,236.8z"/>
		<path class="st28" d="M875.9,237.1c-1.5,1.6-4,1.4-4.5,1c-0.5-0.5-1-3.1-0.1-5c0.9-1.9,2.1-4.3,3-4.6c0.9-0.3,1.8-0.1,1.7,1.2
			c-0.1,1.3-0.6,5.1-0.6,5.1L875.9,237.1z"/>
		<path class="st28" d="M872.1,237.4c1.8-0.1-1.9,1.2-2.9,0.3c-1.1-1-1.7-3.3-1.6-4c0.1-0.8,1.9-3.7,2.5-4.5
			c0.8-0.9,2.4-0.7,2.2,0.4c-0.2,1-0.9,4.8-0.9,4.8S871.8,237.4,872.1,237.4z"/>
		<path class="st28" d="M868.5,235.8c-1.6,1-2.1,1.7-3.1,1.3c-1-0.3-2.3-2.1-1.4-3.4c0.8-1.3,2.9-3.9,3.8-4.2
			c0.9-0.3,1.3,0.7,1.2,1.7C868.9,232.3,868.5,235.8,868.5,235.8z"/>
	</g>
	<g>
		<g>
			<path class="st28" d="M903.1,229.1c-2.2,0.8-16.4,4.4-16.9,5.8c-0.5,1.4,1.3,1.6,3.4,1.9c2.1,0.3,4.2-0.8,4.2-0.8
				s-2.6,2.9-5.2,8.4c-1.3,2.8-0.3,5.9,2.4,1.9c-0.7,2.4,0.1,5.2,2.6,2.5c-0.5,2.1,0.8,3.8,2.9,1.5c-0.4,1.2,0.4,2.3,2.1,1.6
				c1.1-0.5,4.8-2.1,7.9-7.6c3-5.5,5.4-9.2,5.4-9.2L903.1,229.1z"/>
			<g>
				<path class="st18" d="M906.5,244.1c-3.1,5.5-6.8,7.2-7.9,7.6c-1.7,0.7-2.6-0.4-2.1-1.6c-1.7,1.8-2.8,1.2-3-0.2
					c5.5-4.3,10.7-12,13.5-18.3l4.9,3.2C911.9,234.8,909.5,238.5,906.5,244.1z"/>
			</g>
		</g>
		<path class="st24" d="M938.3,155.3c2.9,4.5,4,15.8,4,15.8c-0.6,12.9,1,40.5-6.1,48.5c-7,8.1-23.4,20.6-23.4,20.6l-13.3-10.8
			c0,0,21-21.7,22.8-25.4c2-4.3-1.7-35.4-1.7-41.1C920.7,150.5,934.3,149.1,938.3,155.3z"/>
	</g>
</g>
</svg>
