<svg xmlns="http://www.w3.org/2000/svg" xmlns:xlink="http://www.w3.org/1999/xlink" width="1241" height="274" viewBox="0 0 1241 274">
  <defs>
    <clipPath id="clip-customer_image">
      <rect width="1241" height="274"/>
    </clipPath>
  </defs>
  <g id="customer_image" clip-path="url(#clip-customer_image)">
    <rect width="1241" height="274" fill="#fff"/>
    <rect id="Retângulo_330" data-name="Retângulo 330" width="1241" height="192" transform="translate(0 82)" fill="#f6f6f6"/>
    <g id="customers_img" transform="translate(80.954 -254.151)">
      <g id="Grupo_24" data-name="Grupo 24" transform="translate(295.67 305.286)">
        <path id="Caminho_10" data-name="Caminho 10" d="M1105.823,1489.715a1.919,1.919,0,0,1-1.073,1.754h-.021c-1.259.7-3.466.763-5.859.66-.31-.021-.578-.021-.825-.021h-.33c-2.373.062-2.125.763-6.643,1.155-5.158.433-7.056-1.135-7.344-1.857-.248-.619,1.96-1.3,4.415-2.084.124-.041.247-.083.351-.124.33-.1.66-.206.99-.33,2.95-.97,5.839-2.146,6.561-5.117.763-3.156-1.527-11.966-1.527-11.966l8.17-.887s.784,9.2,1.3,12.09a30.268,30.268,0,0,0,1.382,4.064c.021.083.062.186.083.268A11.581,11.581,0,0,1,1105.823,1489.715Z" transform="translate(-1030.824 -1311.914)" fill="#e49963"/>
        <path id="Caminho_11" data-name="Caminho 11" d="M1105.823,1551.941a1.919,1.919,0,0,1-1.073,1.754h-.021c-1.341.619-3.507.7-5.859.64h-1.155c-2.373.062-2.125.763-6.643,1.155-5.158.433-7.056-1.135-7.344-1.857-.248-.619,1.96-1.3,4.415-2.084a15.235,15.235,0,0,0,7.9.681c3.445-.64,6.849-2.352,9.3-2.929.021.082.062.186.083.268A10.013,10.013,0,0,1,1105.823,1551.941Z" transform="translate(-1030.824 -1374.14)" fill="#c65447"/>
        <path id="Caminho_12" data-name="Caminho 12" d="M849.411,1450.724c-.454,2.269-3.693,1.9-7.3,1.011s-2.744.165-7.881-.392c-5.137-.578-6.705-2.476-6.849-3.239-.144-.681,2.393-.908,5.116-1.238l1.031-.124c3.074-.392,5.323-2.372,8.129-4,2.641-1.547,6.6-7.84,6.6-7.84l7.056.557s-3.693,5.611-5.137,8.067a8.525,8.525,0,0,0-.7,4.807A10.385,10.385,0,0,1,849.411,1450.724Z" transform="translate(-827.372 -1283.341)" fill="#e49963"/>
        <path id="Caminho_13" data-name="Caminho 13" d="M842.108,1497.669c-3.61-.887-2.744.165-7.881-.392-5.137-.578-6.705-2.476-6.849-3.239-.144-.681,2.393-.908,5.116-1.238l.021.062a14.454,14.454,0,0,0,7.365,2.29c3.487.083,7.18-.908,9.593-.866a8.606,8.606,0,0,1-.062,2.414C848.957,1498.927,845.718,1498.556,842.108,1497.669Z" transform="translate(-827.372 -1329.296)" fill="#c65447"/>
        <path id="Caminho_14" data-name="Caminho 14" d="M964.683,991.089s-1.671-4.106-3.528-4.291c-1.857-.165-7.716-1.093-8.149-.248a5.828,5.828,0,0,0,1.258,4.951c1.258,1.093,9.057,2.847,9.057,2.847Z" transform="translate(-926.964 -927.211)" fill="#ffb27d"/>
        <path id="Caminho_15" data-name="Caminho 15" d="M1065.1,1249.654l15.184,40.87a14.031,14.031,0,0,0,4.58-.413,19.858,19.858,0,0,0,4.415-2.146s-3.776-39.24-10.666-47.41C1071.681,1232.386,1065.1,1249.654,1065.1,1249.654Z" transform="translate(-1016.055 -1127.35)" fill="#7f7f7f"/>
        <path id="Caminho_16" data-name="Caminho 16" d="M1001.023,1166.632s-43.634-14.751-53.372-11.615S908.7,1216.29,908.7,1216.29a5.519,5.519,0,0,0,2.455,1.547c1.671.619,5.735.578,5.735.578s26.366-22.611,29.523-29.193,4.394-12.874,7.53-12.255,40.5,15.391,48.977,6.6,6.251-20.218,6.251-20.218Z" transform="translate(-891.921 -1060.853)" fill="#7f7f7f"/>
        <path id="Caminho_17" data-name="Caminho 17" d="M1211.069,737.4c-.7-1.444-1.485-4-1.857-8.541.062.454.846,6.189,3.053,9.449,9.078,5.962,26.469,25.85,26.119,29.626,0,0,6.127-10.4,6.23-10.46,0,0,11.306-14.38-2.084-22.611-6.808-4.188-6.767-9.552-6.5-14.215.289-4.663-1.857-24.757-15.494-19.5a8.909,8.909,0,0,0-3.177-.825,2.6,2.6,0,0,1,1.217.578,10.517,10.517,0,0,0-5.735,1.093C1207.851,704.842,1203.374,730.341,1211.069,737.4Z" transform="translate(-1128.623 -700.278)" fill="#b74b42"/>
        <path id="Caminho_18" data-name="Caminho 18" d="M1235.4,834.251c-.041.021,4.374,2.311,7.716,1.4,3.136-.846,5.178-4.91,5.137-4.931-1.32-.268-1.712-2.084-1.671-9.923l-.6.124-10.089,2s.227,3.177.227,6.169C1236.121,831.61,1235.977,833.983,1235.4,834.251Z" transform="translate(-1151.219 -795.935)" fill="#ffb27d"/>
        <path id="Caminho_19" data-name="Caminho 19" d="M1237.7,823.5s.227,3.177.227,6.169c5.653-.165,8.624-5.3,9.841-8.17Z" transform="translate(-1153.046 -796.491)" fill="#e8945b"/>
        <path id="Caminho_20" data-name="Caminho 20" d="M1224.387,736.493s2.95-4.663,3.672-8.665c.516-2.847-.949-13.431-11.574-11.9a14.421,14.421,0,0,0-5.983,2.269c-2.311,1.568-5.632,4.931-1.919,14.153l.97,3.115Z" transform="translate(-1128.613 -712.577)" fill="#b74b42"/>
        <path id="Caminho_21" data-name="Caminho 21" d="M1211.518,758.269s13.348.227,13.369-8.087c0-8.314,1.733-13.884-6.787-14.38s-10.192,2.682-10.852,5.447C1206.546,744.013,1208.032,758,1211.518,758.269Z" transform="translate(-1128.742 -728.432)" fill="#ffb27d"/>
        <path id="Caminho_22" data-name="Caminho 22" d="M1220.539,730.17s-9.119-6.231-12.007-1.919c-.867-.743-2.434-1.3-4.5,1.2-3.095,3.755-.351,10.377-.351,10.377,1.279.144,1.568-4.209,2.228-6.334a10.867,10.867,0,0,1,2.971-3.94c1.155,2.62,4.374,8.912,8.789,10.047,5.612,1.444,8.046-.062,8.046-.062A15.724,15.724,0,0,1,1220.539,730.17Z" transform="translate(-1125.157 -721.274)" fill="#b74b42"/>
        <path id="Caminho_23" data-name="Caminho 23" d="M1075.436,908.4c1.32-5.529-3.156-16.236-7.84-25.108-4.25-8.046-8.644-14.565-9.036-14.318-11.182,6.643-12.193,1.114-12.193,1.114s-10.171,1.341-13.039,6.313c-3.982,6.849-8.314,27.418-12.585,27.109-1.96-.144-21.621-7.53-21.621-7.53s-3.28,3.074-2.641,6.829c0,0,9.717,6.5,17.928,10.666,4.353,2.187,8.273,3.734,10.109,3.3,3.734-.887,9.593-9.552,12.75-14.669,0-.021.021-.021.021-.041,4.023,22.818-1.444,28.017,1.32,30.43,2.93,2.538,7.118-1.217,16.319,2.785,6.045,2.62,14.421,6.416,20.074,7.076,2.95.351,5.178-.165,5.88-2.166C1082.966,934.353,1072.919,918.941,1075.436,908.4Z" transform="translate(-961.527 -834.165)" fill="#f1a34f"/>
        <path id="Caminho_24" data-name="Caminho 24" d="M1223.708,817.876s-.248,1.052-2.868.887c0,0-2.208-.144-2.146-1.3A7.057,7.057,0,0,1,1223.708,817.876Z" transform="translate(-1137.961 -793.073)" fill="#fff"/>
        <path id="Caminho_25" data-name="Caminho 25" d="M1304.063,1030.043c-.722,2-2.93,2.517-5.88,2.166-3.9-1.692-20.775-8.232-20.59-12.667.289-6.561,3.239-6.767,1.155-14.854-1.671-6.5,9.738-19.867,12.234-22.487,4.683,8.871,8.974,10.563,7.654,16.092C1296.1,1008.814,1306.147,1024.225,1304.063,1030.043Z" transform="translate(-1184.708 -924.037)" fill="#e58638"/>
        <path id="Caminho_26" data-name="Caminho 26" d="M1106.459,1025.194c-3.156,5.117-8.995,13.781-12.75,14.669-1.836.433-5.777-1.093-10.109-3.3a26.116,26.116,0,0,0,9.243.516c3.239-.309,4.188-4.291,9.3-10.254C1105.469,1022.946,1106.294,1023.936,1106.459,1025.194Z" transform="translate(-1030.738 -957.273)" fill="#e58638"/>
        <path id="Caminho_27" data-name="Caminho 27" d="M1234.145,1083.648s-2.827-2.208-5.488-1.671c-2.661.516-3.982,2.352-3.879,3.2s1.527,3.2,3.548,3.4c2.042.206,7.84-1.258,7.84-1.258Z" transform="translate(-1142.786 -1003.162)" fill="#ffb27d"/>
        <path id="Caminho_28" data-name="Caminho 28" d="M1271.676,869s10.872.66,14.648,5.921c5.3,7.386,14.5,37.589,12.007,44.5l-33.113-.144s-.8-3.755.31-5.57,19.249-4.745,20.094-5.591-10.46-16.319-10.46-18.836C1275.163,886.784,1271.676,869,1271.676,869Z" transform="translate(-1174.664 -834.191)" fill="#f1a34f"/>
      </g>
      <g id="Grupo_26" data-name="Grupo 26" transform="translate(424.779 295.166)">
        <path id="Caminho_29" data-name="Caminho 29" d="M1463.787,1096.275s-3.033-1.011-4.477-.7c-1.465.309-5.983,2.414-6.086,2.868a1.64,1.64,0,0,0,0,.784h10.584s2.373-.454,2.765-1.857C1466.964,1095.986,1463.787,1096.275,1463.787,1096.275Z" transform="translate(-1453.178 -1003.854)" fill="#ffb27d"/>
        <path id="Caminho_30" data-name="Caminho 30" d="M1604.319,1666.763a2.016,2.016,0,0,1-1.32,1.754h-.021c-1.4.619-3.775.474-6.313.124-.33-.041-.619-.083-.887-.1-.062,0-.144-.021-.206-.021a.452.452,0,0,1-.165-.021c-2.538-.165-2.352.619-7.2.6-5.529-.021-7.406-1.9-7.654-2.682-.206-.681,2.208-1.2,4.931-1.795.124-.021.268-.062.392-.083.351-.082.722-.165,1.093-.247,3.239-.763,6.437-1.712,7.489-4.828,1.114-3.3.867-13.059.867-13.059h9.8s-2.579,10.79-2.311,13.905c.144,1.65.949,2.125,1.238,3.569l.062.31A9.828,9.828,0,0,1,1604.319,1666.763Z" transform="translate(-1554.264 -1441.088)" fill="#ad7041"/>
        <g id="Grupo_25" data-name="Grupo 25" transform="translate(35.436 84.807)">
          <path id="Caminho_31" data-name="Caminho 31" d="M1650.969,1097.6c-.825,4.642-2,9.449-3.033,14.442-1.65,8.025-2.888,16.546-1.609,25.727a31.836,31.836,0,0,1,.268,3.879c.248,16.236-7.014,45.635-7.014,45.635a12.762,12.762,0,0,1-5.261.681,16.892,16.892,0,0,1-4.312-1.176s-.681-18.238-.722-42.768c-.021-17.784-3.528-41.179-4.229-54.94a175,175,0,0,1,.5-19.414s14.462-11.615,19.641-5.673C1650.33,1069.891,1654.064,1080.227,1650.969,1097.6Z" transform="translate(-1624.942 -1062.299)" fill="#5e5e5e"/>
        </g>
        <path id="Caminho_32" data-name="Caminho 32" d="M1678.756,1251.107a31.812,31.812,0,0,1,.268,3.879c-10.831-15.679-13.224-49.885-13.224-49.885l11.883,5.777s1.3,6.416,2.682,14.483C1678.735,1233.405,1677.477,1241.926,1678.756,1251.107Z" transform="translate(-1621.934 -1090.831)" fill="#5e5e5e"/>
        <path id="Caminho_33" data-name="Caminho 33" d="M1755.919,1664.382a2.016,2.016,0,0,1-1.321,1.754h-.021c-1.4.619-3.775.474-6.313.124-.33-.041-.619-.082-.887-.1-.062,0-.145-.021-.206-.021a.454.454,0,0,1-.165-.021c-2.538-.165-2.352.619-7.2.6-5.529-.021-7.406-1.9-7.654-2.682-.206-.681,2.208-1.2,4.931-1.795.124-.021.268-.062.392-.083.351-.082.722-.165,1.094-.247,3.239-.763,6.437-1.712,7.489-4.828,1.114-3.3-.475-12.915-.475-12.915l9.078-.763s-.557,10.955-.289,14.07c.144,1.65.99,2.579,1.3,4.023l.062.31A10.79,10.79,0,0,1,1755.919,1664.382Z" transform="translate(-1674.588 -1438.707)" fill="#ad7041"/>
        <path id="Caminho_34" data-name="Caminho 34" d="M1692.694,1234.32a21.326,21.326,0,0,1-4.023,1.444,19.433,19.433,0,0,1-5.178-.33,238.091,238.091,0,0,0-4.931-30.575,287.459,287.459,0,0,0-14.772-46.832c-1.444-3.383-7.344-19.434-8.355-23.5-3.033-12.234.021-10.914.021-10.914l26.531-3.115s3.26,1.671,4.766,18.96c.454,5.178.516,27.522,1.176,31.751a48.527,48.527,0,0,0,2.269,9.511C1695.17,1192.852,1692.694,1234.32,1692.694,1234.32Z" transform="translate(-1612.642 -1023.685)" fill="#5e5e5e"/>
        <path id="Caminho_35" data-name="Caminho 35" d="M1755.919,1734.068a2.017,2.017,0,0,1-1.321,1.754h-.021c-1.486.536-3.817.412-6.313.124-.33-.041-.619-.062-.887-.083-.062,0-.145-.021-.206-.021a.454.454,0,0,1-.165-.021c-2.538-.165-2.352.619-7.2.6-5.529-.021-7.406-1.9-7.654-2.682-.206-.681,2.208-1.2,4.931-1.795a16.373,16.373,0,0,0,8.356,1.485c3.734-.351,7.53-1.857,10.212-2.228l.062.309A9.615,9.615,0,0,1,1755.919,1734.068Z" transform="translate(-1674.588 -1508.393)" fill="#b84c42"/>
        <path id="Caminho_36" data-name="Caminho 36" d="M1604.319,1734.068a2.016,2.016,0,0,1-1.32,1.754h-.021c-1.485.536-3.817.412-6.313.124-.33-.041-.619-.062-.887-.083-.062,0-.144-.021-.206-.021a.454.454,0,0,1-.165-.021c-2.538-.165-2.352.619-7.2.6-5.529-.021-7.406-1.9-7.654-2.682-.206-.681,2.208-1.2,4.931-1.795a16.37,16.37,0,0,0,8.355,1.485c3.734-.351,7.53-1.857,10.212-2.228l.062.309A9.6,9.6,0,0,1,1604.319,1734.068Z" transform="translate(-1554.264 -1508.393)" fill="#b84c42"/>
        <path id="Caminho_37" data-name="Caminho 37" d="M1633.782,668.592c-.887-7.324,1.382-19.042,16.009-17.165,14.607,1.877,19.207,16.236,16.278,22.611-2.95,6.4,4.25,7.922,6.5,14.792,1.939,5.9,2.62,13.224,5.756,16.5,10.109,10.6-9.717,26.9-21.662,23.457-21.766-6.251-24.571-7.2-23.808-24.3.392-8.768,7.221-12.152,2.888-14.689C1625.262,683.694,1635.8,685.159,1633.782,668.592Z" transform="translate(-1594.332 -651.227)" fill="#636363"/>
        <path id="Caminho_38" data-name="Caminho 38" d="M1682.862,777.683l-4.023,10.4-8.706.433-4.332-6.478c4.91-3.734,4.7-10.852,4.456-13.348-.062-.557-.1-.887-.1-.887l10.873-3.3c.124,2.868.289,5.116.474,6.87C1682.1,777.518,1682.862,777.683,1682.862,777.683Z" transform="translate(-1621.934 -741.131)" fill="#ffb27d"/>
        <path id="Caminho_39" data-name="Caminho 39" d="M1630.54,824.739c.557,0,10.047-1.939,26.077,2.166,0,0-8.768,40.209-5.8,47.781a78.426,78.426,0,0,1,4.105,14.3l-32.349.392s.454-26.015-1.031-35.217C1620.06,844.978,1630.54,824.739,1630.54,824.739Z" transform="translate(-1586.695 -788.579)" fill="#ffb27d"/>
        <path id="Caminho_40" data-name="Caminho 40" d="M1647.855,871.351c.475,5.323,5.447,17.495,4.374,20.074-1.135,2.723-2.7,4.106-6.127,4.89a64.456,64.456,0,0,1-10.212,1.032c-9.738.474-20.177-.743-21.6-5.364-.681-2.228-.413-10.831-.062-14.792.743-8.211-.825-20.012-1.052-27.645-.186-6.375,3.652-20.858,3.652-20.858s1.733-1.093,7.159-2.187c0,0,.578,7.53,4.5,8.17,6.787,1.114,12.255-5.1,13.864-7.592,0,0,7.8,1.96,10.089,4.58,2.166,2.476-.8,20.775-1.465,22.529-.578,1.506-1.114,2.971-1.568,4.456A30.645,30.645,0,0,0,1647.855,871.351Z" transform="translate(-1580.161 -790.34)" fill="#f1a34f"/>
        <path id="Caminho_41" data-name="Caminho 41" d="M1904.968,1096.5s3.033-.99,4.477-.7c1.465.309,5.983,2.393,6.086,2.847a1.536,1.536,0,0,1,0,.763h-10.584s-2.372-.454-2.765-1.836C1901.812,1096.189,1904.968,1096.5,1904.968,1096.5Z" transform="translate(-1809.525 -1004.036)" fill="#ffb27d"/>
        <path id="Caminho_42" data-name="Caminho 42" d="M1698.326,774.57c-3.961-2.661-8.954-2.785-11.223-2.682-.062-.557-.1-.887-.1-.887l10.872-3.3C1698,770.568,1698.161,772.816,1698.326,774.57Z" transform="translate(-1638.76 -743.67)" fill="#e8945b"/>
        <path id="Caminho_43" data-name="Caminho 43" d="M1664.568,701.337s13.018,2.62,14.524-5.508,4.188-13.266-4.043-15.287c-8.252-2.022-10.439.784-11.595,3.383S1661.226,700.45,1664.568,701.337Z" transform="translate(-1619.176 -673.945)" fill="#ffb27d"/>
        <path id="Caminho_44" data-name="Caminho 44" d="M1677.425,664.414c-2.208-2.476-5.385-2.95-7.7-2.93,1.4-1.692-4.229-5.405-10.646.928-2.765,2.723-2.352,8.087-.866,11.2,0,0,2.269-6.664,6.416-8.108a9.181,9.181,0,0,0,2.6-1.506,17.77,17.77,0,0,0,3.569,5.282c4.271,4.683,3.445,14.132,3.445,14.132S1681.262,668.747,1677.425,664.414Z" transform="translate(-1614.991 -657.282)" fill="#636363"/>
        <path id="Caminho_45" data-name="Caminho 45" d="M1674.738,760.675s-.351.97-2.806.536c0,0-2.063-.371-1.877-1.444A6.565,6.565,0,0,1,1674.738,760.675Z" transform="translate(-1625.302 -737.285)" fill="#fff"/>
        <path id="Caminho_46" data-name="Caminho 46" d="M1577.314,863.326c-4.931-19-7.634-29.853-11.656-33.133-3.569-2.909-11.264-3.177-11.264-3.177a37.992,37.992,0,0,0,.268,6.849l-9.47,18.031a79.516,79.516,0,0,0-6.581,20.094c-1.3-10.419-2.6-20.094-2.6-20.094a110.988,110.988,0,0,1-1.609-11.8c1.135-4.394,1.031-9,1.547-13.6l-.6.041c-1.877.124-7.7.722-10.666,3.156-4.043,3.322-4.931,17.866-11.656,33.422,0,0-8.149,13.7-10.728,19.125a4.7,4.7,0,0,0,1.465,1.3,8.1,8.1,0,0,0,2.125.763s14.689-14.462,15.659-16.752c.31-.743,2.1-3.383,4.291-7.262h0s.578,20.672-.7,29.585a4.617,4.617,0,0,0,2.29,4.683c9.077,5.116,36.248,19.083,41.3,5.529.557-1.527-9.366-27.336-8-32.927.433-1.795,1.011-5.859,1.589-10.584,3.115,5.962,6.045,10.15,6.457,11.141.97,2.269,15.659,16.608,15.659,16.608a7.45,7.45,0,0,0,2.125-.743,4.7,4.7,0,0,0,1.465-1.3C1585.463,876.9,1577.314,863.326,1577.314,863.326Z" transform="translate(-1492.166 -790.34)" fill="#b64c41"/>
        <path id="Caminho_47" data-name="Caminho 47" d="M1718.886,828.8l-8.686,24.943,8.686-8.211-.66-2.558a5.929,5.929,0,0,0,2.806-.351c.8-.516,2.7-13.266,2.7-13.266s-1.774-.289-2.352-.371C1720.763,828.924,1718.886,828.8,1718.886,828.8Z" transform="translate(-1657.174 -792.165)" fill="#a53d38"/>
        <path id="Caminho_48" data-name="Caminho 48" d="M1644.311,826.5s-1.836,19.723.041,25.4c0,0-5.364-8.5-4.374-10.274l1.939-1.279s-3.755-.5-3.053-2.641c.7-2.166,3.734-10.914,3.734-10.914Z" transform="translate(-1600.486 -790.34)" fill="#a53d38"/>
      </g>
      <g id="Grupo_27" data-name="Grupo 27" transform="translate(276.819 403.369)">
        <path id="Caminho_49" data-name="Caminho 49" d="M736,1507.959h299.91v-67.979L736,1439.3Z" transform="translate(-736 -1384.917)" fill="#c9c9c9"/>
        <rect id="Retângulo_311" data-name="Retângulo 311" width="299.889" height="17.784" fill="#c9c9c9"/>
      </g>
      <path id="Caminho_50" data-name="Caminho 50" d="M946.739,1126.491H613.015a5.714,5.714,0,0,1-5.715-5.715v-1.362a5.714,5.714,0,0,1,5.715-5.715H946.759a5.714,5.714,0,0,1,5.715,5.715v1.362A5.732,5.732,0,0,1,946.739,1126.491Z" transform="translate(-357.033 -723.122)" fill="#7f7f7f"/>
      <path id="Caminho_51" data-name="Caminho 51" d="M932.8,1113.8a.451.451,0,0,1-.1.062l.021-.062Z" transform="translate(-615.3 -723.201)" fill="#565656"/>
      <g id="Grupo_28" data-name="Grupo 28" transform="translate(194.046 294.922)">
        <path id="Caminho_52" data-name="Caminho 52" d="M456.53,1726.8h-21.58a5.852,5.852,0,0,1-.557-2.249,31.993,31.993,0,0,1,.1-5.405s7.159-5.983,8.273-1.547c1.093,4.436,7.056,6.334,10.439,6.808C455.561,1724.74,456.3,1726.04,456.53,1726.8Z" transform="translate(-413.781 -1496.056)" fill="#4f4f4f"/>
        <path id="Caminho_53" data-name="Caminho 53" d="M362.473,1726.8h-22.24c-.908-2.022-.33-7.654-.33-7.654s7.159-5.983,8.273-1.547c1.093,4.436,7.056,6.334,10.439,6.808a7.049,7.049,0,0,1,.7.145A5.17,5.17,0,0,1,362.473,1726.8Z" transform="translate(-338.704 -1496.056)" fill="#4f4f4f"/>
        <path id="Caminho_54" data-name="Caminho 54" d="M389.8,1187.6s.021.8.041,2.249c.206,9.3.99,45.305,1.754,65.358.041.722.062,1.444.083,2.125.021.371.021.722.041,1.094a219.631,219.631,0,0,0,3.095,26.8c1.692,9.7,3.425,16.278,3.425,16.278,6.457,1.3,10.646-1.155,10.646-1.155s1.733-15.04,2.414-24.138c.227-2.95,1.279-13.018,2.62-25.293,1.032-9.47,2.228-20.26,3.322-30.059.062-.516.124-1.052.165-1.568,1.774-15.844,3.239-28.759,3.239-28.759l-11.429-1.094Z" transform="translate(-378.451 -1076.698)" fill="#636363"/>
        <path id="Caminho_55" data-name="Caminho 55" d="M394.813,1292.368,413.9,1258.08c1.032-9.47,2.228-20.26,3.322-30.059.062-.516.124-1.052.165-1.568,1.774-15.844,3.239-28.759,3.239-28.759l-11.429-1.093-19.393.392Z" transform="translate(-378.451 -1083.841)" fill="#4f4f4f"/>
        <path id="Caminho_56" data-name="Caminho 56" d="M374.877,1190s-10.687,52.794-19.393,78.273-8.809,32.556-8.809,32.556-7.984,1.733-11.512-.289c0,0-2-48.317,3.26-61.129,3.487-8.479,6.148-26.552,5.24-33.051s-1.754-19.558-1.754-19.558Z" transform="translate(-334.789 -1076.063)" fill="#636363"/>
        <path id="Caminho_57" data-name="Caminho 57" d="M427.542,773.911,417,770.94a41.736,41.736,0,0,0,2.414-8.954,13.22,13.22,0,0,0-.557-7.056c-.062-.124-.124-.248-.165-.351-.392-.743-.165-1.093.371-1.176a5.964,5.964,0,0,1,3.631,1.176,79.9,79.9,0,0,0,7.345,4.126h.021a.577.577,0,0,0,.021.124h0c.041.206.1.639.165,1.238C430.513,762.873,430.781,769.413,427.542,773.911Z" transform="translate(-400.039 -732.06)" fill="#ffb27d"/>
        <path id="Caminho_58" data-name="Caminho 58" d="M371.685,915.711c2.517,1.795,6.5,2.434,10.893,2.373a59.255,59.255,0,0,0,15.308-2.5,36.44,36.44,0,0,0,6.065-2.331c6.767-3.528,5.8-8.232,5.632-25.788-.165-17.928-11.2-41.117-13.183-45-3.528-6.911-19.414-4.353-19.414-4.353-3.487,1.671-4.724,7.241-5.055,14.5-.371,8.067.351,18.258.351,27.542,0,7.675-1.444,14.462-2.5,20.094C368.405,907.521,367.683,912.885,371.685,915.711Z" transform="translate(-361.698 -798.95)" fill="#c9c9c9"/>
        <path id="Caminho_59" data-name="Caminho 59" d="M373.9,919.033c3.053,6.437,9.078,13.678,12.791,17.846a59.252,59.252,0,0,0,15.308-2.5c1.9-4.559,2.744-12.172.97-24.736-1.341-9.573-11.12-48.132-11.12-48.132-7.9-1.032-12.812,3.28-15.824,9.882-.371,8.067.351,18.258.351,27.542C376.4,906.613,374.952,913.4,373.9,919.033Z" transform="translate(-365.831 -817.766)" fill="#919191"/>
        <path id="Caminho_60" data-name="Caminho 60" d="M407.831,1255.033h-7.18V1252.8a6.718,6.718,0,0,0-6.7-6.7H388a6.718,6.718,0,0,0-6.705,6.7v2.228H374.12a3.931,3.931,0,0,0-3.92,3.92v18.258a3.931,3.931,0,0,0,3.92,3.92h33.69a3.931,3.931,0,0,0,3.92-3.92v-18.258A3.9,3.9,0,0,0,407.831,1255.033Zm-23.87-2.228a4.05,4.05,0,0,1,4.044-4.043h5.942a4.05,4.05,0,0,1,4.044,4.043v2.228H383.961Z" transform="translate(-362.894 -1123.129)" fill="#919191"/>
        <path id="Caminho_61" data-name="Caminho 61" d="M449.24,1216.839s4.126,7.963,2.063,11.058-9.449-.887-10.027-2.661c-.6-1.774,0-10.336,0-10.336Z" transform="translate(-419.097 -1098.366)" fill="#ffb27d"/>
        <path id="Caminho_62" data-name="Caminho 62" d="M395.3,873.046s1.527,21.931,1.527,30.987c-.021,9.078,7.2,33.2,7.2,33.2a48.952,48.952,0,0,0,6.643.144,7.413,7.413,0,0,0,3.445-1.279s-1.589-28.491,1.444-39.425c3.033-10.914,3.177-32.865,3.177-32.865s-1.671-4.745-11.739-3.239C395.051,862.359,395.3,873.046,395.3,873.046Z" transform="translate(-382.815 -816.898)" fill="#c9c9c9"/>
        <path id="Caminho_63" data-name="Caminho 63" d="M410.073,796.34c-.763,2.641-1.836,6.746-1.465,7.757,0,0,14.9,1.568,20.858,7.365,0,0-2.146-7.922-4.539-10.006-1.733-1.527-8.438-4.766-11.966-6.437A2.072,2.072,0,0,0,410.073,796.34Z" transform="translate(-393.318 -764.949)" fill="#919191"/>
        <path id="Caminho_64" data-name="Caminho 64" d="M437.288,760.067c-1.176,0-8.541.021-10.625,1.774-.083.062-.144.1-.206.144a13.22,13.22,0,0,0-.557-7.056c.083-.6.144-1.114.206-1.527a5.964,5.964,0,0,1,3.631,1.176,79.9,79.9,0,0,0,7.345,4.126l.041.124h0C437.164,759.036,437.226,759.469,437.288,760.067Z" transform="translate(-407.103 -732.06)" fill="#e8945b"/>
        <path id="Caminho_65" data-name="Caminho 65" d="M446.471,706.1s-12.193,2.331-13.513-5.281c-1.341-7.613-3.817-12.44,3.92-14.235,7.716-1.815,9.738.825,10.811,3.26C448.741,692.277,449.607,705.316,446.471,706.1Z" transform="translate(-411.541 -678.567)" fill="#ffb27d"/>
        <path id="Caminho_66" data-name="Caminho 66" d="M405.872,675.617s.64-.474-1.836-4.229c-2.476-3.734-3.631-2.7-3.672-6.705-.021-3.982-1.506-6.375,3.115-8.974s3.879-4.993,6.664-5.57c2.764-.578,6.808,1.712,9.181,1.238s9.841,9.222,5.055,11.512a7.686,7.686,0,0,1-3.775-.846c-1.568-.97-7.283-1.939-7.943-.186S408.368,674.276,405.872,675.617Z" transform="translate(-386.642 -650.044)" fill="#4f4f4f"/>
      </g>
      <g id="Grupo_29" data-name="Grupo 29" transform="translate(379.326 354.466)">
        <path id="Caminho_68" data-name="Caminho 68" d="M1240.028,944.1l-6.478-.928a.81.81,0,0,1-.681-.908l.413-2.909a.809.809,0,0,1,.908-.681l6.478.928a.809.809,0,0,1,.681.908l-.413,2.909A.809.809,0,0,1,1240.028,944.1Z" transform="translate(-1232.861 -938.662)" fill="#e2e2e2"/>
        <rect id="Retângulo_312" data-name="Retângulo 312" width="2.125" height="2.868" transform="matrix(0.99, 0.141, -0.141, 0.99, 1.411, 0.849)" fill="#999"/>
        <path id="Caminho_69" data-name="Caminho 69" d="M1256.222,945.986l-2.62-.371a.372.372,0,0,1-.309-.413h0a.372.372,0,0,1,.413-.309l2.62.371a.372.372,0,0,1,.31.413h0A.385.385,0,0,1,1256.222,945.986Z" transform="translate(-1249.076 -943.605)" fill="#999"/>
        <path id="Caminho_70" data-name="Caminho 70" d="M1255.6,952.4l-3.074-.433a.151.151,0,0,1-.124-.144h0a.151.151,0,0,1,.144-.124l3.074.433a.151.151,0,0,1,.124.144h0C1255.742,952.36,1255.68,952.4,1255.6,952.4Z" transform="translate(-1248.369 -949.01)" fill="#999"/>
        <path id="Caminho_71" data-name="Caminho 71" d="M1255.3,954.5l-3.074-.433a.151.151,0,0,1-.124-.144h0a.151.151,0,0,1,.144-.124l3.074.433a.151.151,0,0,1,.124.144h0C1255.442,954.46,1255.38,954.5,1255.3,954.5Z" transform="translate(-1248.131 -950.677)" fill="#999"/>
      </g>
      <g id="Grupo_30" data-name="Grupo 30" transform="translate(484.756 351.791)">
        <path id="Caminho_72" data-name="Caminho 72" d="M1750.539,930.173l-5.962-.371a.732.732,0,0,1-.681-.763l.165-2.661a.732.732,0,0,1,.763-.681l5.962.371a.732.732,0,0,1,.681.763l-.165,2.661A.708.708,0,0,1,1750.539,930.173Z" transform="translate(-1743.895 -925.695)" fill="#e2e2e2"/>
        <rect id="Retângulo_313" data-name="Retângulo 313" width="1.939" height="2.62" transform="matrix(0.998, 0.061, -0.061, 0.998, 1.071, 0.704)" fill="#999"/>
        <path id="Caminho_73" data-name="Caminho 73" d="M1764.523,930.8l-2.414-.144a.34.34,0,0,1-.31-.351h0a.34.34,0,0,1,.351-.309l2.414.144a.34.34,0,0,1,.309.351h0A.338.338,0,0,1,1764.523,930.8Z" transform="translate(-1758.106 -929.112)" fill="#999"/>
        <path id="Caminho_74" data-name="Caminho 74" d="M1764.35,936.713l-2.826-.165a.133.133,0,0,1-.124-.124h0a.133.133,0,0,1,.124-.124l2.826.165a.133.133,0,0,1,.124.124h0A.119.119,0,0,1,1764.35,936.713Z" transform="translate(-1757.789 -934.112)" fill="#999"/>
        <path id="Caminho_75" data-name="Caminho 75" d="M1764.25,938.713l-2.826-.165a.133.133,0,0,1-.124-.124h0a.133.133,0,0,1,.124-.124l2.826.165a.133.133,0,0,1,.124.124h0A.133.133,0,0,1,1764.25,938.713Z" transform="translate(-1757.709 -935.7)" fill="#999"/>
      </g>
      <path id="Caminho_76" data-name="Caminho 76" d="M1684.2,1047.928a.928.928,0,1,1,.928.928A.925.925,0,0,1,1684.2,1047.928Z" transform="translate(-1211.76 -670.183)" fill="#a53d38"/>
      <path id="Caminho_77" data-name="Caminho 77" d="M1684.2,1076.428a.928.928,0,1,1,.928.928A.925.925,0,0,1,1684.2,1076.428Z" transform="translate(-1211.76 -692.803)" fill="#a53d38"/>
      <g id="Grupo_37" data-name="Grupo 37" transform="translate(780.12 431.99)">
        <g id="Grupo_32" data-name="Grupo 32" transform="translate(49.873 37.234)">
          <path id="Caminho_78" data-name="Caminho 78" d="M3459.167,1510.707s-6.519-7.613-.413-12.461c0,0,4.477-2.7,8.128-2.5,0,0-5.178,8.665-3.507,9.531s5.054-10.068,5.054-10.068,10.191-.99,13.451.578c0,0-8.706,7.118-6.87,7.551s11.244-6.561,11.244-6.561,9.469,1.609,8.975,7.386-3.776,7.572-5.2,7.406c-1.444-.144-9.82-3.363-10.006-2.187s4.869,5.013,8.417,5.2c0,0-6.685,7.365-11.12,5.24s-4.828-5.488-7.592-6.767c-2.765-1.259-5.137-1.259-3.982.021s6.148,2.538,7.737,5.343,3.012,4.683-1.588,4c-4.6-.7-12.069-4.044-12.4-7.9Z" transform="translate(-3448.13 -1494.905)" fill="#82b378"/>
          <g id="Grupo_31" data-name="Grupo 31" transform="translate(0 9.383)">
            <path id="Caminho_79" data-name="Caminho 79" d="M3480.235,1540.429s-25.747-.99-31.421,6.375a18.793,18.793,0,0,1-5.117,7.2l-.6,1.651s4.456-4.7,6.065-4.993C3449.145,1550.662,3446.648,1541.522,3480.235,1540.429Z" transform="translate(-3437.777 -1540.384)" fill="#82b378"/>
            <path id="Caminho_80" data-name="Caminho 80" d="M3423.2,1603.9a16.119,16.119,0,0,0-5.9,11.388l1.011.083s1.774-7.551,4.951-10.5S3423.2,1603.9,3423.2,1603.9Z" transform="translate(-3417.3 -1590.277)" fill="#82b378"/>
          </g>
        </g>
        <g id="Grupo_34" data-name="Grupo 34" transform="translate(0 16.602)">
          <path id="Caminho_81" data-name="Caminho 81" d="M3213.653,1421.76s10.377-5.818,5.529-13.7c0,0-3.879-4.848-8.025-6.086,0,0,2.208,11.76,0,12.048-2.208.268-1.527-13.286-1.527-13.286s-10.935-5.261-15.226-4.848c0,0,6.787,11.491,4.559,11.223-2.208-.268-9.82-11.9-9.82-11.9s-11.223-2.084-13.018,4.559,1.114,9.965,2.764,10.377c1.671.412,12.317.268,12.049,1.671-.268,1.382-7.469,3.59-11.491,2.352,0,0,4.436,10.934,10.253,10.377s7.613-4.147,11.223-4.436c3.59-.268,6.231.7,4.436,1.671s-7.9.309-10.79,2.785c-2.909,2.476-5.261,4,.144,5.1,5.406,1.114,15.1.412,17.021-3.734Z" transform="translate(-3175.56 -1394.899)" fill="#a8d29f"/>
          <g id="Grupo_33" data-name="Grupo 33" transform="translate(5.682 6.912)">
            <path id="Caminho_82" data-name="Caminho 82" d="M3203.1,1428.4s29.069,9.408,32.39,19.929a22.044,22.044,0,0,0,2.764,10.109v2.084s-3.053-7.056-4.7-8.025C3233.572,1452.5,3240.07,1443.357,3203.1,1428.4Z" transform="translate(-3203.1 -1428.4)" fill="#82b378"/>
            <path id="Caminho_83" data-name="Caminho 83" d="M3368.275,1569.161a19.192,19.192,0,0,1,1.919,15.1l-1.156-.309s1.114-9.139-1.217-13.719S3368.275,1569.161,3368.275,1569.161Z" transform="translate(-3333.1 -1539.102)" fill="#82b378"/>
          </g>
        </g>
        <g id="Grupo_36" data-name="Grupo 36" transform="translate(45.601 0)">
          <path id="Caminho_84" data-name="Caminho 84" d="M3405.589,1349.867s-13.678-7.675-7.3-18.073c0,0,5.117-6.4,10.584-8.025,0,0-2.929,15.514,0,15.886s2-17.516,2-17.516,14.421-6.932,20.074-6.4c0,0-8.933,15.143-6.024,14.792s12.956-15.7,12.956-15.7,14.792-2.744,17.165,6.024-1.465,13.142-3.652,13.678c-2.187.557-16.237.371-15.886,2.187.371,1.816,9.862,4.745,15.143,3.095,0,0-5.839,14.421-13.513,13.678-7.675-.722-10.047-5.467-14.792-5.839s-8.211.908-5.838,2.187,10.4.413,14.235,3.672,6.932,5.261-.186,6.726-19.888.557-22.446-4.931Z" transform="translate(-3396.592 -1314.429)" fill="#a8d29f"/>
          <g id="Grupo_35" data-name="Grupo 35" transform="translate(1.771 9.154)">
            <path id="Caminho_85" data-name="Caminho 85" d="M3468.857,1358.8s-38.332,12.42-42.706,26.284a29.068,29.068,0,0,1-3.652,13.328v2.744s4.023-9.3,6.21-10.584C3428.71,1390.551,3420.127,1378.5,3468.857,1358.8Z" transform="translate(-3418.926 -1358.8)" fill="#82b378"/>
            <path id="Caminho_86" data-name="Caminho 86" d="M3408.752,1544.249a25.33,25.33,0,0,0-2.538,19.909l1.527-.413s-1.486-12.028,1.609-18.093C3412.445,1539.607,3408.752,1544.249,3408.752,1544.249Z" transform="translate(-3405.178 -1504.638)" fill="#82b378"/>
          </g>
        </g>
        <path id="Caminho_87" data-name="Caminho 87" d="M3334.82,1658.92a26.819,26.819,0,0,0,26.82-26.82H3308A26.819,26.819,0,0,0,3334.82,1658.92Z" transform="translate(-3280.676 -1566.562)" fill="#f1a34f"/>
        <path id="Caminho_88" data-name="Caminho 88" d="M3354.041,1658.714a25.417,25.417,0,0,1-3.322.206,26.819,26.819,0,0,1-26.82-26.82h6.664A26.822,26.822,0,0,0,3354.041,1658.714Z" transform="translate(-3293.296 -1566.562)" fill="#ffb973"/>
        <path id="Caminho_89" data-name="Caminho 89" d="M3360.662,1756H3306.3a3.3,3.3,0,0,1,3.3-3.3h47.76a3.3,3.3,0,0,1,3.3,3.3Z" transform="translate(-3279.327 -1662.281)" fill="#f1a34f"/>
        <rect id="Retângulo_314" data-name="Retângulo 314" width="55.126" height="0.825" transform="translate(26.457 65.538)" fill="#d86713"/>
      </g>
      <g id="Grupo_38" data-name="Grupo 38" transform="translate(701.05 320.03)">
        <path id="Caminho_90" data-name="Caminho 90" d="M3145.554,1668.319s-7.159-8.19-9.181-11.925l-5.57-10.295-7.3,1.795,9.263,13.121,9.676,8.19Z" transform="translate(-3055.171 -1465.713)" fill="#ffb27d"/>
        <path id="Caminho_91" data-name="Caminho 91" d="M2836.553,773.262a9.523,9.523,0,0,0-5.116-.97,2.491,2.491,0,0,1,1.073-.516,8.085,8.085,0,0,0-2.826.743c-12.172-4.683-14.07,13.224-13.823,17.392s-4.085,5.529-10.419,8.809c-12.069,6.251-13.142,14.627-13.142,14.627.1.062.186.124.289.186.6-1.011,1.836-2.93,2.868-3.218a38.11,38.11,0,0,0-1.671,4.085c3.569,2.7,10.233,8.706,14.875,12.977a7.16,7.16,0,0,1,.31-2.641l.578,3.466c2.476,2.29,4.209,3.9,4.209,3.9-.31-3.363,15.2-21.105,23.313-26.428,1.98-2.909,2.661-8.025,2.723-8.438a22.011,22.011,0,0,1-1.651,7.633C2845.011,798.535,2841.009,775.779,2836.553,773.262Z" transform="translate(-2792.3 -771.745)" fill="#3f3f3f"/>
        <path id="Caminho_92" data-name="Caminho 92" d="M2962.947,891.186c.041.021-3.9,2.063-6.87,1.258-2.785-.763-4.621-4.394-4.58-4.394,1.176-.227,1.527-1.857,1.506-8.851l.536.1,9,1.774s-.207,2.826-.207,5.488C2962.308,888.834,2962.452,890.959,2962.947,891.186Z" transform="translate(-2918.653 -857.031)" fill="#ffb27d"/>
        <path id="Caminho_93" data-name="Caminho 93" d="M2957.7,784.932a7.19,7.19,0,0,1,10.006-.248C2967.726,784.685,2964.467,784.128,2957.7,784.932Z" transform="translate(-2923.576 -780.485)" fill="#e37970"/>
        <path id="Caminho_94" data-name="Caminho 94" d="M2970.395,881.495s-.206,2.826-.206,5.488c-5.034-.144-7.7-4.724-8.789-7.283Z" transform="translate(-2926.513 -857.428)" fill="#d68d5d"/>
        <path id="Caminho_95" data-name="Caminho 95" d="M2943.882,803.848a26.535,26.535,0,0,1-3.28-7.737c-.454-2.538.846-11.986,10.315-10.625a12.869,12.869,0,0,1,5.344,2.022c2.063,1.382,5.034,4.394,1.712,12.626l-.866,2.785Z" transform="translate(-2909.944 -782.546)" fill="#3f3f3f"/>
        <path id="Caminho_96" data-name="Caminho 96" d="M2982.44,1281.674l-4.765.144-5.158.165a101.714,101.714,0,0,1-18.609-34.557c-.165-.5-.33-.99-.5-1.506-3.652-10.666-11.244-24.076-15.246-36.187-.64-1.939-1.217-3.755-1.712-5.467-.165-.557-.33-1.094-.474-1.63a127.944,127.944,0,0,1-4.58-24.138l28.863.227A535.123,535.123,0,0,0,2982.44,1281.674Z" transform="translate(-2902.702 -1094.583)" fill="#7a7a7a"/>
        <path id="Caminho_97" data-name="Caminho 97" d="M2957.288,974.865a38.81,38.81,0,0,1-27.047,1.651c-.165-.062.969-56.8,5.137-58.365.949,1.2,3.8,2.393,6.334,2.331,2.929-.062,3.879-1.32,3.713-2.682,3.115,1.733,5.612,3.383,5.612,3.383C2953.677,925.784,2957.288,974.865,2957.288,974.865Z" transform="translate(-2901.77 -887.668)" fill="#f1a34f"/>
        <path id="Caminho_98" data-name="Caminho 98" d="M2893.9,1014.7c-1.258,1.795-3.672,12.647-9.7,14.008,3.095-7.737,5.467-11.141,5.818-13.513a58.143,58.143,0,0,0,.351-13.369c2.022-3.528,3.528-5.962,3.528-5.962.165-.578,3.2-9.985,4.188-1.568C2899.054,1002.736,2895.32,1012.721,2893.9,1014.7Z" transform="translate(-2865.24 -945.618)" fill="#565656"/>
        <path id="Caminho_99" data-name="Caminho 99" d="M2966.726,823.283s-11.9.206-11.925-7.221c0-7.427-1.547-12.4,6.045-12.832,7.613-.433,9.077,2.393,9.7,4.869S2969.82,823.035,2966.726,823.283Z" transform="translate(-2921.173 -796.699)" fill="#ffb27d"/>
        <path id="Caminho_100" data-name="Caminho 100" d="M2951.552,796.727s-3.26,8.706-8.273,9.985-7.18-.062-7.18-.062a14.226,14.226,0,0,0,4.642-8.376C2940.742,798.3,2949.077,792.6,2951.552,796.727Z" transform="translate(-2906.432 -790.382)" fill="#3f3f3f"/>
        <path id="Caminho_101" data-name="Caminho 101" d="M3007,800.536s2.435,1.939,3.033,3.837.866,5.777,2,5.653c0,0,2.455-5.921-.31-9.263C3008.795,797.193,3007,800.536,3007,800.536Z" transform="translate(-2962.706 -793.468)" fill="#3f3f3f"/>
        <path id="Caminho_102" data-name="Caminho 102" d="M3245.4,939.987a7.437,7.437,0,0,1,8.334-5.2c.763.248,2.992,1.135,1.568,3.507-1.052,1.754-1.506.846-3.156,3.218s-3.445,2.909-5.509,2.62Z" transform="translate(-3151.922 -901.086)" fill="#ffb27d"/>
        <path id="Caminho_103" data-name="Caminho 103" d="M2934.1,1671.864c-.413-2.228-1.176-6.086-1.176-6.086l.186-13.678H2924.8l3.115,13.1a13.484,13.484,0,0,1-.639,5.467s-.8,3.631,2.785,3.693C2933.63,1674.422,2934.5,1674.092,2934.1,1671.864Z" transform="translate(-2897.464 -1470.475)" fill="#ffb27d"/>
        <path id="Caminho_104" data-name="Caminho 104" d="M2942.4,1747.17h-7.448a20.057,20.057,0,0,1,.268-5.467c4.044,3.92,6.582-.1,6.582-.1C2942.422,1743.147,2942.4,1746.593,2942.4,1747.17Z" transform="translate(-2905.431 -1541.511)" fill="#c45446"/>
        <path id="Caminho_105" data-name="Caminho 105" d="M3174.658,1720.861h-9.18a15.241,15.241,0,0,1-2.5-4.106,4.451,4.451,0,0,0-2.991-2.042v6.148h-1.9l-1.753-6.54c-1.176-2.208-.268-4.188.557-5.921.949,0,3.714.66,8.583,6.292a6.291,6.291,0,0,0,5.137,2.455c.021.021.041.021.083.041C3173.44,1718.427,3174.348,1719.974,3174.658,1720.861Z" transform="translate(-3080.788 -1515.16)" fill="#c45446"/>
        <path id="Caminho_106" data-name="Caminho 106" d="M3053.8,926.647s-7.819,4.374-10.6,5.632c-1.589.722-5.261,2.434-7.84,3.652a4.018,4.018,0,0,1-4.766-1.032c-4.229-4.951-15.267-15.679-26.593-17,0,0,6.891,17.02,7.1,20.466s.8,56.343.8,56.343-.413,2.434,4.25,1.424,5.88-2.022,5.88-2.022-4.456-32.638-3.239-43.985a25.248,25.248,0,0,0-.475-7.345,57.752,57.752,0,0,0,15.081,6.065,84.418,84.418,0,0,0,14.462-8.789c2.62-1.919,7.221-9.243,7.221-9.243Z" transform="translate(-2960.324 -887.747)" fill="#b64c41"/>
        <path id="Caminho_107" data-name="Caminho 107" d="M2995.2,1362.3l-5.158.165a101.716,101.716,0,0,1-18.609-34.557c-.165-.5-.33-.99-.5-1.506-3.652-10.666-11.244-24.076-15.246-36.186-.64-1.939-1.217-3.755-1.712-5.467-.165-.557-.33-1.094-.474-1.63l4.25-3.218s12.771,20.672,16.711,40.127C2977.886,1336.923,2991.646,1357.245,2995.2,1362.3Z" transform="translate(-2920.243 -1175.063)" fill="#565656"/>
        <path id="Caminho_108" data-name="Caminho 108" d="M2891.037,1300.73c.083,9.469-.412,31.214-1.63,40.209h-4.58c-2.517,0-3.8-.041-3.8-.041-3.094-15.659-5.281-28.615-6.89-39.776-1.321-9.16-2.476-17.02-3.384-23.766-.908-6.808-1.527-12.5-1.754-17.309-.041-.763-.062-1.485-.082-2.208s-.021-1.423-.021-2.1l24.942-2.434C2893.574,1269.867,2891,1295.222,2891.037,1300.73Z" transform="translate(-2853.097 -1153.951)" fill="#7a7a7a"/>
        <path id="Caminho_109" data-name="Caminho 109" d="M2885.224,1366.893c-2.517,0-3.8-.041-3.8-.041-3.094-15.659-5.281-28.615-6.891-39.776-1.32-9.16-2.476-17.02-3.383-23.766-.908-6.808-1.527-12.5-1.754-17.309l9.16,5.385s-5.838,2.063-3.61,17.66S2882.129,1364.686,2885.224,1366.893Z" transform="translate(-2853.494 -1179.905)" fill="#565656"/>
        <path id="Caminho_110" data-name="Caminho 110" d="M2864.97,994.947s-1.754,6.354-7.84,5.529c-6.086-.8-14.73-4.456-14.73-4.456s2.6-8.211,5.838-19c.042-.1.062-.227.1-.351,3.817-12.729,8.479-28.945,10.79-39.487.042-.227.1-.454.145-.66a66.581,66.581,0,0,0,1.238-7.241l5.137-9.779s7.427,16.876,7.84,21.126C2873.9,944.9,2864.97,994.947,2864.97,994.947Z" transform="translate(-2832.064 -889.017)" fill="#b64c41"/>
        <path id="Caminho_111" data-name="Caminho 111" d="M2881.46,940.086l6.746-20.486c-.021,0-8.5,2.5-12.729,4.621,0,0-2.641,3.4-4.271,11.244,0,0-1.733,18.836,2.125,25.727,0,0,12.152,2.434,31.606-4.25v-4.456s-21.271,1.114-25.644,1.63Z" transform="translate(-2854.619 -889.096)" fill="#ffb27d"/>
        <path id="Caminho_112" data-name="Caminho 112" d="M2886.982,1017.658c-.268,6.808-1.857,19.909-15.782,27.13,3.817-12.729,8.479-28.945,10.79-39.487C2884.527,1009.178,2887.126,1014.068,2886.982,1017.658Z" transform="translate(-2854.922 -957.115)" fill="#a53d38"/>
        <path id="Caminho_113" data-name="Caminho 113" d="M2885.738,919.6s-12.44.866-15.411,7.489-3.92,28.636-.145,35.134c0,0,5.2,1.485,14.421-.248.1-.021.227-.041.351-.062,0,0,2.929-7.2.309-8.6,0,0-7.778.413-6.953-2.166C2879.115,948.566,2885.738,919.6,2885.738,919.6Z" transform="translate(-2852.151 -889.096)" fill="#b64c41"/>
        <path id="Caminho_114" data-name="Caminho 114" d="M3025.7,1052.151a10.846,10.846,0,0,0,2.063-4.147c.372-2.1,1.486-3.652,4.415-4.044s4.188-.433,4.167.392c0,.825-2.393,6.581-6.581,10.027C3025.553,1057.825,3025.7,1052.151,3025.7,1052.151Z" transform="translate(-2977.545 -987.586)" fill="#ffb27d"/>
      </g>
      <path id="Caminho_115" data-name="Caminho 115" d="M747.4,1298.5l297.558.681V1261.9H747.4Z" transform="translate(-468.229 -840.747)" fill="#d8d8d8" opacity="0.9"/>
      <g id="Grupo_40" data-name="Grupo 40" transform="translate(264.923 303.648)">
        <path id="Caminho_116" data-name="Caminho 116" d="M1013.553,1098.029H1000.8a.457.457,0,0,1-.1.062l.021-.062,1.382-2.641s.413-.206,1.052-.474c1.341-.557,3.631-1.341,4.786-.8C1009.551,1094.873,1013.078,1096.626,1013.553,1098.029Z" transform="translate(-934.194 -1011.079)" fill="#ffb27d"/>
        <path id="Caminho_117" data-name="Caminho 117" d="M887.555,921.034a5.558,5.558,0,0,1-2.393,3.074.45.45,0,0,1-.1.062l.021-.062H862.9a15.94,15.94,0,0,1-2.95-3.631c-.351-.578-.7-1.238-1.052-1.96a26.635,26.635,0,0,1-2.29-9.511c-.536-7.8-1.094-20.672-1.382-28.2-.144-3.631-.227-6-.227-6h0c.144.083,8.789,5.8,10.584,23.457,0,0,.454,14.194,2.042,15.308,1.568,1.114,18.382,5.653,19.909,7.468C887.535,921.013,887.535,921.013,887.555,921.034Z" transform="translate(-818.553 -837.157)" fill="#aa413e"/>
        <g id="Grupo_39" data-name="Grupo 39" transform="translate(0)">
          <path id="Caminho_118" data-name="Caminho 118" d="M744.158,703.866s-1.135-16.3-22.323-10.13c-4.807,1.4-4.188,15.906,7.448,21.435Z" transform="translate(-710.619 -692.342)" fill="#636363"/>
          <path id="Caminho_119" data-name="Caminho 119" d="M797.349,852.5s8.294,1.506,11.368,4.58,10.336,12.152,5.756,42.376c0,0-.371,9.119-10.6,9.985C793.615,910.328,797.349,852.5,797.349,852.5Z" transform="translate(-772.269 -819.458)" fill="#b64c41"/>
          <path id="Caminho_120" data-name="Caminho 120" d="M707.223,1137.292c1.424,9.923,11,35.712,10.707,44.624-.227,7.015-.1,23.251.825,34.041a62.5,62.5,0,0,0,.949,7.283c.825,3.982,1.877,8.562,2.455,11.45,1.258,6.478.6,10.253,1.63,13.74,1.135,3.8,14.173,3.115,10.254.8a11.627,11.627,0,0,1-4.456-4.828c-3.672-8.211,1.465-43.593,3.012-57.23.206-1.712.33-3.053.392-3.982.516-8.417,6.292-64.574,6.292-64.574C725.213,1110.76,705.82,1127.368,707.223,1137.292Z" transform="translate(-701.206 -1029.05)" fill="#d9935c"/>
          <path id="Caminho_121" data-name="Caminho 121" d="M707.225,1137.132c1.424,9.923,11,35.712,10.707,44.624-.227,7.015-.1,23.251.825,34.041l13.823-28.821c.206-1.713.33-3.053.392-3.982.516-8.417,6.437-64.6,6.437-64.6C725.38,1110.58,705.822,1127.209,707.225,1137.132Z" transform="translate(-701.208 -1028.891)" fill="#cb8757"/>
          <path id="Caminho_122" data-name="Caminho 122" d="M730.027,1119.313s-12.069,55.456-13.431,63.791-12.358,47.533-9.965,57.354c1.4,5.8,3.879,7.51,3.879,7.51.578,1.073-8.954,3.177-9.738-.887-.97-5.158-1.176-12.42-2.62-24.7-2.476-21.146,2.434-33.195,3.61-42.025,1.2-8.851-3.982-36.95-1.114-46.543C705.662,1117,716.864,1110.112,730.027,1119.313Z" transform="translate(-693.518 -1027.969)" fill="#d9935c"/>
          <path id="Caminho_123" data-name="Caminho 123" d="M730.8,1169.115a35.633,35.633,0,0,1-6.932,2h-.021a66.451,66.451,0,0,1-7.365.928,95.575,95.575,0,0,1-9.965.1l-.887-10.274-.928,3.714-1.589,6.375c-1.465-.1-2.785-.227-3.9-.33-2.393-.248-3.858-.475-3.858-.475-2.7-22.281.536-36.331,4.209-44.624h0a39.166,39.166,0,0,1,3.425-6.231c.578-.825,1.114-1.527,1.589-2.084.392-.454.722-.825,1.011-1.114a8.223,8.223,0,0,1,.867-.8c1.258.474,2.476.887,3.672,1.217.867.248,1.692.454,2.517.64h.041c.557.124,1.114.227,1.671.33.206.041.413.062.6.1.64.1,1.279.186,1.9.268a40.258,40.258,0,0,0,8.747.082,26.239,26.239,0,0,0,3.528-.557.639.639,0,0,0,.144-.041l.021.578.289,9.676Z" transform="translate(-691.049 -1028.834)" fill="#b64c41"/>
          <path id="Caminho_124" data-name="Caminho 124" d="M703.806,1705.363H692.418c-.887-1.609-2.063-6.375-2.95-7.386a1.306,1.306,0,0,1-.206-.248l-.083,7.633h-1.031a84.456,84.456,0,0,0-.7-10.5c-.619-1.155-1.052-2.29-.846-2.765.392-.99,4.044-3.2,4.044-3.2s2.7,13.513,3.982,13.843a20.616,20.616,0,0,0,6.973.371,4.126,4.126,0,0,1,2.042,1.4A1.134,1.134,0,0,1,703.806,1705.363Z" transform="translate(-684.854 -1483.302)" fill="#b64c41"/>
          <path id="Caminho_125" data-name="Caminho 125" d="M777.669,1705.363H766.26c-.867-1.589-2.022-6.272-2.909-7.345l-.083,7.345h-1.031c0-.206,0-.5-.021-.846a84.422,84.422,0,0,0-.6-9.036c-.784-1.362-1.424-2.826-1.2-3.4.392-.99,3.961-3.177,3.961-3.177s.021.124.062.309a.124.124,0,0,0,.021.083c0,.041.021.083.021.124s.021.062.021.1c.516,2.62,2.641,12.874,3.94,13.2a21.308,21.308,0,0,0,7.221.351h.021S777.958,1704.167,777.669,1705.363Z" transform="translate(-743.45 -1483.302)" fill="#b64c41"/>
          <path id="Caminho_126" data-name="Caminho 126" d="M769.659,902.463c-.371,2.084-.763,3.9-1.094,5.3-.021.1-.041.206-.062.289-.454,1.96-.784,3.074-.784,3.074a1.437,1.437,0,0,0-.165.062.124.124,0,0,1-.083.021.384.384,0,0,1-.144.041c-.784.247-1.547.474-2.311.66a30.925,30.925,0,0,1-11.037.784,27.11,27.11,0,0,1-4.5-.887,8.606,8.606,0,0,1-.867-.268c-.021,0-.021,0-.041-.021a18.054,18.054,0,0,1-1.919-.722,16.272,16.272,0,0,1-2.806-1.444h0a7.391,7.391,0,0,0,.371-1.32,23.3,23.3,0,0,0,.392-3.693c.124-2.517.083-5.694-.041-9.16a1.561,1.561,0,0,0-.021-.309c-.186-4.353-.5-9.181-.846-13.885-.268-3.61-.516-7.118-.743-10.274q-.093-1.454-.186-2.785c-.289-4.972-.371-8.644.062-9.614.681-1.465,2.765-2.352,4.972-2.888.309-.083.64-.144.949-.206.041,0-.1-.351-.041-.371.309-.062.784.227,1.093.186.124-.021.248-.041.392-.062,1.981-.289,3.714-.351,4.126-.371h.1a26.612,26.612,0,0,1,3.4,2.1c.144.1,2.1-1.155,2.269-1.052a17.648,17.648,0,0,1,6.231,8.747c1.692,5.529,4.209,8.273,4.724,13.719A92.232,92.232,0,0,1,769.659,902.463Z" transform="translate(-729.292 -821.125)" fill="#efefef"/>
          <path id="Caminho_127" data-name="Caminho 127" d="M712.4,913.25c4.25.866,11.017.433,16.03-1.011a17.468,17.468,0,0,0,4.25-1.754c4.477-2.765,6.664-23.189,5.88-30.9C737.8,871.865,724.8,856,724.8,856c-3.2,2.373-4.6,7.86-6.5,15.081C713.7,888.473,712.4,913.25,712.4,913.25Z" transform="translate(-705.372 -822.236)" fill="#b64c41"/>
          <path id="Caminho_128" data-name="Caminho 128" d="M712.4,971.349c4.25.866,11.017.433,16.03-1.011a25.485,25.485,0,0,0,4.106-9.717c2.29-11.264-6.726-23.5-14.235-31.421C713.7,946.571,712.4,971.349,712.4,971.349Z" transform="translate(-705.372 -880.334)" fill="#aa413e"/>
          <path id="Caminho_129" data-name="Caminho 129" d="M745.2,1020.513l-9.985-7.221a2.794,2.794,0,0,0-3.879.619l-11.141,15.452a2.794,2.794,0,0,0,.619,3.879l9.985,7.221a2.794,2.794,0,0,0,3.879-.619l11.141-15.453A2.813,2.813,0,0,0,745.2,1020.513Z" transform="translate(-711.143 -946.663)" fill="#4f4f4f"/>
          <path id="Caminho_130" data-name="Caminho 130" d="M788.574,1087.233s4.89-.5,5.488.33.062,4-2.682,4.333-5.88-1.919-5.88-1.919Z" transform="translate(-763.391 -1005.647)" fill="#da935b"/>
          <path id="Caminho_131" data-name="Caminho 131" d="M697.763,856s-8.685,1.031-12.461,8.851-7.819,27.955-6.808,29.853c1.011,1.877,13.183,12.028,23.189,13.327,0,0,2.166-2.744,2.022-5.22,0,0-13.472-8.4-14.627-10.728-1.155-2.311,10.295-21.58,10.15-24.922C699.084,863.84,697.763,856,697.763,856Z" transform="translate(-678.337 -822.236)" fill="#b64c41"/>
          <path id="Caminho_132" data-name="Caminho 132" d="M804.9,722.33a6.457,6.457,0,0,1,5.385,6.5s2.228-9.325-5.839-9.139C796.379,719.9,804.9,722.33,804.9,722.33Z" transform="translate(-775.674 -714.045)" fill="#636363"/>
          <path id="Caminho_133" data-name="Caminho 133" d="M784.047,819.977s-.454-4.91-.351-6.189h0c.062-.64.124-1.032.124-1.032l-.124-.041L773.5,809.6v.248c-.124,2.765-.289,4.89-.454,6.561-.021.206-.041.433-.062.619-.083.846-.186,1.547-.289,2.146a41.975,41.975,0,0,0,4.951,1.857c3.652,1.073,5.24.64,5.921,0A1.3,1.3,0,0,0,784.047,819.977Z" transform="translate(-753.232 -785.409)" fill="#ffb27d"/>
          <path id="Caminho_134" data-name="Caminho 134" d="M784.161,813.668v1.073s-5.88.062-9.862,2.62c.165-1.65.33-3.8.454-6.561Z" transform="translate(-754.502 -786.361)" fill="#e8945b"/>
          <path id="Caminho_135" data-name="Caminho 135" d="M776.663,749.82s-12.358,2.476-13.781-5.24-3.982-12.605,3.837-14.5c7.84-1.919,9.9.743,11.017,3.218C778.85,735.75,779.84,748.974,776.663,749.82Z" transform="translate(-744.198 -721.771)" fill="#ffb27d"/>
          <path id="Caminho_136" data-name="Caminho 136" d="M756,719.07s3.487,4.374-2.888,8.376-5.88,12.007-4.188,14.256c0,0-12.688-12.378-6.808-19.764C748,714.572,756,719.07,756,719.07Z" transform="translate(-727.725 -712.476)" fill="#636363"/>
        </g>
      </g>
      <g id="Grupo_48" data-name="Grupo 48" transform="translate(519.981 389.102)">
        <g id="Grupo_41" data-name="Grupo 41" transform="translate(4.408 112.718)">
          <path id="Caminho_137" data-name="Caminho 137" d="M1946.192,1658a5.1,5.1,0,1,1-5.1-5.1A5.094,5.094,0,0,1,1946.192,1658Z" transform="translate(-1936 -1652.9)" fill="#d86713"/>
          <path id="Caminho_138" data-name="Caminho 138" d="M1955.892,1658a5.1,5.1,0,1,1-5.1-5.1A5.094,5.094,0,0,1,1955.892,1658Z" transform="translate(-1943.699 -1652.9)" fill="#f1a34f"/>
        </g>
        <g id="Grupo_42" data-name="Grupo 42" transform="translate(38.407 126.334)">
          <circle id="Elipse_1" data-name="Elipse 1" cx="5.096" cy="5.096" r="5.096" fill="#d86713"/>
          <circle id="Elipse_2" data-name="Elipse 2" cx="5.096" cy="5.096" r="5.096" transform="translate(2.001)" fill="#f1a34f"/>
        </g>
        <path id="Caminho_139" data-name="Caminho 139" d="M1941.2,1650.8l5.653,5.261a6.778,6.778,0,0,0,1.96,1.259l38.023,15.824,7.076-5.075Z" transform="translate(-1935.719 -1538.516)" fill="#d86713"/>
        <g id="Grupo_43" data-name="Grupo 43" transform="translate(58.089 0)">
          <path id="Caminho_140" data-name="Caminho 140" d="M2223.66,1161.805l-1.815-1.259c8.335-12.069,24.448-35.836,25.788-39.446.846-2.269.846-4.167.021-5.632-1.32-2.352-4.415-2.991-4.436-2.991l-.124-.021-8.438-2.6c-9.676-3.858-13.8,3.734-13.988,4.064l-.062.1-22.57,34.082-1.836-1.217,22.55-34.061a13.115,13.115,0,0,1,3.982-4.25c2.5-1.671,6.705-3.177,12.688-.8l8.273,2.558c.557.124,4.147.99,5.859,4.044,1.176,2.063,1.217,4.58.145,7.489C2247.942,1126.63,2224.65,1160.381,2223.66,1161.805Z" transform="translate(-2196.2 -1106.544)" fill="#d86713"/>
        </g>
        <path id="Caminho_141" data-name="Caminho 141" d="M2160.246,1332.9l18.692,12.832s4.931,4.972-.722,14.916c-4.972,8.747-31.586,58.344-31.586,58.344s-5.55,10.315-27.129-2.6Z" transform="translate(-2077.235 -1286.201)" fill="#d86713"/>
        <path id="Caminho_142" data-name="Caminho 142" d="M2002.887,1308.2l-30.2,55.373a14.188,14.188,0,0,1-17.969,6.272l-19-7.984-.474-.206-11.9-5.013a14.518,14.518,0,0,1-3.26-1.9,8.589,8.589,0,0,1-.66-.557,14.206,14.206,0,0,1-2.62-18.155l32.246-51.556a14.187,14.187,0,0,1,16.34-5.983l3.487,1.114.825.268h0l.7.227,11.656,3.714,1.423.454,11.244,3.59a14.131,14.131,0,0,1,4.663,2.517c.083.062.165.144.268.227l.536.474A14.178,14.178,0,0,1,2002.887,1308.2Z" transform="translate(-1914.636 -1242.484)" fill="#f1a34f"/>
        <path id="Caminho_143" data-name="Caminho 143" d="M1967.906,1603.4a14.182,14.182,0,0,1-12.956.99l-19-7.984-.475-.206-11.9-5.013a14.515,14.515,0,0,1-3.26-1.9,8.585,8.585,0,0,1-.66-.557c-3.528-3.115-6.127-10.13-3.94-15.432,0,0,40.313,16.628,48.132,21.518C1967.906,1597.335,1967.906,1600.924,1967.906,1603.4Z" transform="translate(-1914.851 -1477.004)" fill="#d86713" opacity="0.4"/>
        <g id="Grupo_47" data-name="Grupo 47" transform="translate(3.793 37.147)">
          <g id="Grupo_44" data-name="Grupo 44">
            <path id="Caminho_144" data-name="Caminho 144" d="M1985.027,1287.1c-.1.021-11.182,1.609-14.359,5.818-3.26,4.332-35.32,57.312-35.63,57.828a14.22,14.22,0,0,0,.206,11.388l-.536-.392a8.56,8.56,0,0,1-.66-.557,12.736,12.736,0,0,1,.33-10.831c1.32-2.187,32.411-53.537,35.691-57.911,2.868-3.817,10.893-5.426,13.451-5.839l.825.268h0Z" transform="translate(-1933.021 -1286.6)" fill="#d86713"/>
          </g>
          <g id="Grupo_45" data-name="Grupo 45" transform="translate(16.619 4.209)">
            <path id="Caminho_145" data-name="Caminho 145" d="M2062.041,1307.454a18.571,18.571,0,0,0-11.945,8.252c-4.6,7.427-34.02,63.11-34.309,63.667l-.021.041-.021.041c-.021.021-2.022,2.847-.99,5.8l-.475-.206-.474-.206a6.734,6.734,0,0,1,1.32-5.88c.908-1.712,29.75-56.3,34.309-63.667a19.327,19.327,0,0,1,11.182-8.294Z" transform="translate(-2013.574 -1307)" fill="#d86713"/>
          </g>
          <g id="Grupo_46" data-name="Grupo 46" transform="translate(34.372 10.79)">
            <path id="Caminho_146" data-name="Caminho 146" d="M2147.053,1339.6a15.7,15.7,0,0,0-4.642,1.362,17.741,17.741,0,0,0-7.468,6.767c-4.6,7.427-32.948,63.316-33.236,63.873l-.021.041-.042.041c-.021.021-1.691,3.466-.66,6.416l-1.2-.5c-.66-2.558.928-6.024,1.238-6.4.908-1.795,28.677-56.528,33.257-63.894a17.746,17.746,0,0,1,11.987-8.417c.083.062.165.144.268.227Z" transform="translate(-2099.629 -1338.9)" fill="#d86713"/>
          </g>
        </g>
      </g>
      <g id="man_7_" transform="translate(612.026 275.664)">
        <g id="Grupo_49" data-name="Grupo 49" transform="translate(0 112.376)">
          <path id="Caminho_147" data-name="Caminho 147" d="M2364.154,1669.095s-4.064,3.755-3.26,6.437c.784,2.661,4.456,4.456,4.951,7.716s2.476,5.034,4.25,5.034h8.479s1.321-2.29-1.857-2.991c-3.157-.7-4.353-4.518-4.167-8.087a62.723,62.723,0,0,0-.289-8.314l-6.726-1.589Z" transform="translate(-2360.789 -1550.55)" fill="#4f4f4f"/>
          <path id="Caminho_148" data-name="Caminho 148" d="M2640.963,1721.968h-22.529a2.32,2.32,0,0,1-.433-.124c-1.506-.743-1.032-6.5-.846-8.273.041-.33.062-.516.062-.516s7.922-6.334,9-1.485c.041.144.082.309.124.454,1.362,4.539,7.51,6.6,11.058,7.159C2640.076,1719.6,2640.778,1721.184,2640.963,1721.968Z" transform="translate(-2564.09 -1584.237)" fill="#4f4f4f"/>
          <path id="Caminho_149" data-name="Caminho 149" d="M2582.345,1132.183s-1.2,15-2.62,33.009c-1.919,24.468-4.229,54.548-4.456,60.242-.392,9.882-1.98,25.706-1.98,25.706s-3.755,3.755-11.265,2.166a257.848,257.848,0,0,1-8.6-46.481c-.021-.392-.062-.784-.082-1.176-1.774-24.324-4.539-75.55-4.539-75.55Z" transform="translate(-2510.012 -1124.179)" fill="#636363"/>
          <path id="Caminho_150" data-name="Caminho 150" d="M2582.346,1132.184s-1.2,15-2.62,33.009l-26.3,41.633c-.021-.392-.062-.784-.082-1.176-1.774-24.324-4.539-75.55-4.539-75.55Z" transform="translate(-2510.012 -1124.179)" fill="#4f4f4f"/>
          <path id="Caminho_151" data-name="Caminho 151" d="M2440.581,1111.179s-21.662,54.28-35.9,79.8-18.692,32.638-18.692,32.638-8.149-3.26-8.892-5.488c0,0,5.446-49.246,14.978-61.253,5.385-6.788,11.719-27.15,12.007-34.268S2406,1101.4,2406,1101.4Z" transform="translate(-2373.735 -1101.4)" fill="#636363"/>
        </g>
        <path id="Caminho_152" data-name="Caminho 152" d="M2775.682,1076.2l1.238,2.476s6.292.887,4.56,7.448c0,0-.928,2.7-2.662,1.836-1.733-.846-.887-.784-3.363-1.939-2.5-1.155-3.92-3.363-3.363-5.385l-.392-2.146Z" transform="translate(-2686.926 -969.023)" fill="#ab7041"/>
        <path id="Caminho_153" data-name="Caminho 153" d="M2564.092,673.808a62.218,62.218,0,0,0,.99-9.057l-11-8.851c.413,12.172-7.386,18.031-7.386,18.031s14.648,7.2,23.107,4.539A19.586,19.586,0,0,0,2564.092,673.808Z" transform="translate(-2508.345 -635.434)" fill="#9c5f33"/>
        <path id="Caminho_154" data-name="Caminho 154" d="M2584.072,608.873s-13.988,2.331-15.288-6.4c-1.32-8.727-4-14.3,4.869-16.154s11.1,1.217,12.255,4.023C2587.043,593.132,2587.662,608.048,2584.072,608.873Z" transform="translate(-2524.736 -579.763)" fill="#ab7041"/>
        <path id="Caminho_155" data-name="Caminho 155" d="M2554.1,580.013s.289-11.7,13.018-13.575c8.727-1.279,3.445-8.582,2.434-9.738,0,0-6.664,1.279-13.492,2.765C2541.742,562.621,2552.594,578.259,2554.1,580.013Z" transform="translate(-2509.968 -556.7)" fill="#4f4f4f"/>
        <path id="Caminho_156" data-name="Caminho 156" d="M2594.525,838.9a23.6,23.6,0,0,0,3.26-4.415S2581.9,814.76,2580.62,812.7c-1.3-2.042-10.934-34.866-10.934-34.866L2545.3,772.9s20.363,42,23.726,47.121c5.57,8.459,22.24,21.064,22.24,21.064A10.106,10.106,0,0,0,2594.525,838.9Z" transform="translate(-2507.234 -728.296)" fill="#919191"/>
        <path id="Caminho_157" data-name="Caminho 157" d="M2552.017,812.924a1.386,1.386,0,0,1-.887.33c-3.177-.041-12.44,1.712-20.28.908-6.6-.64-12.461-2.6-18.753-5.405-.825-.371-2.764-1.4-2.7-2.331.021-1.011.124-2.5.247-4.374a233.923,233.923,0,0,0,.475-30.513c-.144-2.393-.206-4.766-.206-7.118-.062-17.433,3.342-32.865,10.274-38.064.6-.433,4.291,1.444,7.654,3.095a11.25,11.25,0,0,0,8.17.908l3.858,2.785a29.11,29.11,0,0,1,9.16,14.627c1.444,5.8,2.29,16.278,2.764,27.13.206,4.91.392,9.882.433,14.586v.165c.042.474.042.97.042,1.444C2552.389,803.186,2552.224,812.759,2552.017,812.924Z" transform="translate(-2478.735 -691.305)" fill="#999"/>
        <path id="Caminho_158" data-name="Caminho 158" d="M2510.6,902.241a233.922,233.922,0,0,0,.475-30.513c-.145-2.393-.206-4.766-.206-7.118,2.888-7.014,5.261-12.11,5.261-12.11h7.3C2523.391,852.521,2528.755,889.058,2510.6,902.241Z" transform="translate(-2479.693 -791.474)" fill="#919191"/>
        <g id="Grupo_50" data-name="Grupo 50" transform="translate(8.277 36.331)">
          <path id="Caminho_159" data-name="Caminho 159" d="M2409.343,1096.683l-1.383,2.393s2.724,5.756-3.734,7.9c0,0-2.764.7-3.012-1.217-.227-1.919.165-1.155-.227-3.879-.392-2.7.66-5.116,2.661-5.776l1.568-1.506Z" transform="translate(-2400.906 -1019.958)" fill="#ab7041"/>
          <path id="Caminho_160" data-name="Caminho 160" d="M2410.031,810.166a23.76,23.76,0,0,0,5.467.309s7.8-24.1,8.809-26.3,23.168-28.264,23.168-28.264l-9.243-23.107s-23.973,40.044-26.407,45.677c-4.023,9.3-5.426,30.142-5.426,30.142A9.941,9.941,0,0,0,2410.031,810.166Z" transform="translate(-2405.266 -732.8)" fill="#999"/>
        </g>
      </g>
      <g id="Grupo_51" data-name="Grupo 51" transform="translate(732.142 365.224)">
        <path id="Caminho_161" data-name="Caminho 161" d="M2948.822,993.981l-4.559,1.2a.573.573,0,0,1-.7-.413l-.536-2.042a.572.572,0,0,1,.413-.7l4.559-1.2a.572.572,0,0,1,.7.413l.536,2.042A.572.572,0,0,1,2948.822,993.981Z" transform="translate(-2943.005 -990.805)" fill="#e2e2e2"/>
        <rect id="Retângulo_315" data-name="Retângulo 315" width="1.527" height="2.063" transform="translate(0.694 1.776) rotate(-14.709)" fill="#999"/>
        <path id="Caminho_162" data-name="Caminho 162" d="M2958.625,994.554l-1.857.5a.244.244,0,0,1-.309-.186h0a.244.244,0,0,1,.186-.309l1.857-.5a.244.244,0,0,1,.309.186h0A.253.253,0,0,1,2958.625,994.554Z" transform="translate(-2953.675 -993.379)" fill="#999"/>
        <path id="Caminho_163" data-name="Caminho 163" d="M2959.769,998.864l-2.166.557a.1.1,0,0,1-.124-.062h0a.1.1,0,0,1,.062-.124l2.166-.557a.1.1,0,0,1,.124.062h0A.086.086,0,0,1,2959.769,998.864Z" transform="translate(-2954.488 -997.05)" fill="#999"/>
        <path id="Caminho_164" data-name="Caminho 164" d="M2960.169,1000.365l-2.166.557a.1.1,0,0,1-.124-.062h0a.1.1,0,0,1,.062-.124l2.166-.557a.1.1,0,0,1,.124.062h0A.087.087,0,0,1,2960.169,1000.365Z" transform="translate(-2954.806 -998.241)" fill="#999"/>
      </g>
      <g id="Grupo_52" data-name="Grupo 52" transform="translate(549.682 359.714)">
        <path id="Caminho_165" data-name="Caminho 165" d="M2065.243,964.1l-6.643,30.822h25.871l5.777-30.822Z" transform="translate(-2058.6 -964.1)" fill="#c9c9c9"/>
        <path id="Caminho_166" data-name="Caminho 166" d="M2072,968.8l-6,27.852h23.375l5.22-27.852Z" transform="translate(-2064.473 -967.83)" fill="#d8d8d8"/>
      </g>
      <g id="Grupo_53" data-name="Grupo 53" transform="translate(554.592 362.933)">
        <path id="Caminho_167" data-name="Caminho 167" d="M2118.982,979.7H2101.2a.6.6,0,0,0,0,1.2h17.784a.6.6,0,1,0,0-1.2Z" transform="translate(-2096.845 -979.7)" fill="#c9c9c9"/>
        <path id="Caminho_168" data-name="Caminho 168" d="M2114.582,993.3H2096.8a.6.6,0,1,0,0,1.2h17.783a.6.6,0,1,0,0-1.2Z" transform="translate(-2093.353 -990.494)" fill="#c9c9c9"/>
        <path id="Caminho_169" data-name="Caminho 169" d="M2111.882,1006.3H2094.1a.6.6,0,1,0,0,1.2h17.783a.6.6,0,1,0,0-1.2Z" transform="translate(-2091.21 -1000.812)" fill="#c9c9c9"/>
        <path id="Caminho_170" data-name="Caminho 170" d="M2107.882,1033.3H2090.1a.6.6,0,1,0,0,1.2h17.784a.6.6,0,1,0,0-1.2Z" transform="translate(-2088.035 -1022.242)" fill="#c9c9c9"/>
        <path id="Caminho_171" data-name="Caminho 171" d="M2103.482,1046.9H2085.7a.6.6,0,0,0,0,1.2h17.784a.6.6,0,1,0,0-1.2Z" transform="translate(-2084.543 -1033.036)" fill="#c9c9c9"/>
        <path id="Caminho_172" data-name="Caminho 172" d="M2100.782,1059.9H2083a.6.6,0,0,0,0,1.2h17.784a.6.6,0,0,0,.6-.6A.627.627,0,0,0,2100.782,1059.9Z" transform="translate(-2082.4 -1043.354)" fill="#c9c9c9"/>
      </g>
      <rect id="Retângulo_316" data-name="Retângulo 316" width="13.328" height="0.743" transform="matrix(0.289, -0.957, 0.957, 0.289, 541.45, 389.634)" fill="#a53d38"/>
      <path id="Caminho_173" data-name="Caminho 173" d="M2011.279,1103.3a2.554,2.554,0,0,0-2.579,2.125h5.158A2.552,2.552,0,0,0,2011.279,1103.3Z" transform="translate(-1469.312 -714.868)" fill="#b64c41"/>
      <g id="Grupo_54" data-name="Grupo 54" transform="translate(543.286 376.689)">
        <path id="Caminho_174" data-name="Caminho 174" d="M2029.642,1059.895a12.188,12.188,0,0,1-2.042-.186l.021-.165c.99.165,3.611.433,3.9-.392a4.477,4.477,0,0,0-.165-1.836,18.684,18.684,0,0,1-.227-7.18c.433-2.558.1-3.342-.227-3.549-.351-.206-.846.165-.846.186l-.1-.124c.021-.021.578-.454,1.031-.186.557.33.66,1.589.31,3.714a18.4,18.4,0,0,0,.227,7.118,4.117,4.117,0,0,1,.144,1.919C2031.5,1059.75,2030.571,1059.895,2029.642,1059.895Z" transform="translate(-2027.6 -1046.377)" fill="#b64c41"/>
      </g>
      <g id="Grupo_55" data-name="Grupo 55" transform="translate(495.217 407.227)">
        <path id="Caminho_175" data-name="Caminho 175" d="M1799.51,1194.4l1.527,3.074,3.4.5-2.476,2.393.6,3.363-3.053-1.589-3.033,1.589.578-3.363-2.455-2.393,3.4-.5Z" transform="translate(-1794.6 -1194.4)" fill="#f1a34f"/>
        <path id="Caminho_176" data-name="Caminho 176" d="M1865.51,1194.4l1.527,3.074,3.383.5-2.455,2.393.578,3.363-3.033-1.589-3.033,1.589.578-3.363-2.455-2.393,3.4-.5Z" transform="translate(-1846.983 -1194.4)" fill="#f1a34f"/>
        <path id="Caminho_177" data-name="Caminho 177" d="M1935.21,1194.4l1.527,3.074,3.383.5-2.455,2.393.578,3.363-3.033-1.589-3.033,1.589.578-3.363-2.455-2.393,3.4-.5Z" transform="translate(-1902.304 -1194.4)" fill="#f1a34f"/>
        <path id="Caminho_178" data-name="Caminho 178" d="M2005.21,1194.4l1.527,3.074,3.384.5-2.455,2.393.578,3.363-3.033-1.589-3.033,1.589.577-3.363-2.455-2.393,3.4-.5Z" transform="translate(-1957.863 -1194.4)" fill="#f1a34f"/>
        <path id="Caminho_179" data-name="Caminho 179" d="M2065.91,1194.4l1.527,3.074,3.384.5-2.455,2.393.578,3.363-3.033-1.589-3.033,1.589.578-3.363-2.455-2.393,3.4-.5Z" transform="translate(-2006.039 -1194.4)" fill="#f1a34f"/>
      </g>
    </g>
  </g>
</svg>
