<svg xmlns="http://www.w3.org/2000/svg" xmlns:xlink="http://www.w3.org/1999/xlink" width="1241" height="274" viewBox="0 0 1241 274">
  <defs>
    <clipPath id="clip-room_image">
      <rect width="1241" height="274"/>
    </clipPath>
  </defs>
  <g id="room_image" clip-path="url(#clip-room_image)">
    <rect width="1241" height="274" fill="#fff"/>
    <g id="Grupo_97" data-name="Grupo 97" transform="translate(-854 65)">
      <rect id="Retângulo_2" data-name="Retângulo 2" width="1241" height="192" transform="translate(854 17)" fill="#f6f6f6"/>
      <g id="room_img" transform="translate(1151.233 -57.581)">
        <g id="Grupo_84" data-name="Grupo 84" transform="translate(21.097 26.581)">
          <g id="Grupo_56" data-name="Grupo 56" transform="translate(394.947 189.241)">
            <path id="Caminho_180" data-name="Caminho 180" d="M1828.9,893.062l7.734,16.866h0l14.878,32.508a1.563,1.563,0,0,0,1.4.9h.131a1.662,1.662,0,0,0,1.595-2.1l-11.819-42.274-1.726-6.161Z" transform="translate(-1828.9 -892.8)" fill="#f9ddbf"/>
          </g>
          <path id="Caminho_181" data-name="Caminho 181" d="M1836.534,910.028c-.743-7.668,6.183-10.967,6.183-10.967l-1.726-6.161-12.19.262Z" transform="translate(-1433.875 -703.637)" fill="#eac3a2"/>
          <g id="Grupo_57" data-name="Grupo 57" transform="translate(474.731 189.241)">
            <path id="Caminho_182" data-name="Caminho 182" d="M2194.1,893.062l7.733,16.866h0l14.878,32.508a1.563,1.563,0,0,0,1.4.9h.131a1.662,1.662,0,0,0,1.595-2.1l-11.819-42.274-1.726-6.161Z" transform="translate(-2194.1 -892.8)" fill="#f9ddbf"/>
          </g>
          <path id="Caminho_183" data-name="Caminho 183" d="M2201.833,910.028c-.742-7.668,6.183-10.967,6.183-10.967l-1.726-6.161-12.191.262Z" transform="translate(-1719.369 -703.637)" fill="#eac3a2"/>
          <path id="Caminho_184" data-name="Caminho 184" d="M1028.3,745.09v28.182a3.208,3.208,0,0,1-3.19,3.19H672.59a3.208,3.208,0,0,1-3.19-3.19V745.09a3.208,3.208,0,0,1,3.19-3.19h352.5A3.212,3.212,0,0,1,1028.3,745.09Z" transform="translate(-527.767 -585.626)" fill="#f9ddbf"/>
          <path id="Caminho_185" data-name="Caminho 185" d="M693.736,892.8l-1.726,6.161-11.819,42.274a1.662,1.662,0,0,0,1.595,2.1h.131a1.516,1.516,0,0,0,1.4-.9l14.878-32.508h0l7.734-16.866Z" transform="translate(-536.154 -703.559)" fill="#eac3a2"/>
          <path id="Caminho_186" data-name="Caminho 186" d="M981.536,892.8l-1.726,6.161-11.819,42.274a1.662,1.662,0,0,0,1.595,2.1h.131a1.515,1.515,0,0,0,1.4-.9l14.878-32.508h0l7.734-16.866Z" transform="translate(-761.079 -703.559)" fill="#eac3a2"/>
          <path id="Caminho_187" data-name="Caminho 187" d="M783.147,278.9H651.17a3.678,3.678,0,0,0-3.67,3.67V410.964a3.678,3.678,0,0,0,3.67,3.67H783.147a3.678,3.678,0,0,0,3.67-3.67V282.57A3.707,3.707,0,0,0,783.147,278.9Z" transform="translate(-510.651 -223.776)" fill="#eac3a2"/>
          <path id="Caminho_188" data-name="Caminho 188" d="M808.7,282.5V391.5a3.427,3.427,0,0,1-3.19,3.6H672.59a3.427,3.427,0,0,1-3.19-3.6V282.5a3.427,3.427,0,0,1,3.19-3.6H805.505A3.413,3.413,0,0,1,808.7,282.5Z" transform="translate(-527.767 -223.776)" fill="#f9ddbf"/>
          <path id="Caminho_189" data-name="Caminho 189" d="M694.72,657.414s-24.468-1.944-25.32-2.556V632.421C674.556,627.549,684.693,622,684.693,622Z" transform="translate(-527.767 -491.92)" fill="#eac3a2"/>
          <path id="Caminho_190" data-name="Caminho 190" d="M817.3,390.538a2.033,2.033,0,1,1,2.01,2.338A2.191,2.191,0,0,1,817.3,390.538Z" transform="translate(-643.355 -309.198)" fill="#eac3a2"/>
          <path id="Caminho_191" data-name="Caminho 191" d="M1185.3,390.538a2.033,2.033,0,1,1,2.01,2.338A2.191,2.191,0,0,1,1185.3,390.538Z" transform="translate(-930.959 -309.198)" fill="#eac3a2"/>
          <path id="Caminho_192" data-name="Caminho 192" d="M817.3,592.838a2.033,2.033,0,1,1,2.01,2.338A2.164,2.164,0,0,1,817.3,592.838Z" transform="translate(-643.355 -467.302)" fill="#3a3a3a"/>
          <path id="Caminho_193" data-name="Caminho 193" d="M1185.3,592.838a2.033,2.033,0,1,1,2.01,2.338A2.164,2.164,0,0,1,1185.3,592.838Z" transform="translate(-930.959 -467.302)" fill="#eac3a2"/>
          <path id="Caminho_194" data-name="Caminho 194" d="M898.253,745.09v28.182a3.231,3.231,0,0,1-3.233,3.19H656.933a3.231,3.231,0,0,1-3.233-3.19V745.09a3.231,3.231,0,0,1,3.233-3.19H895.02A3.231,3.231,0,0,1,898.253,745.09Z" transform="translate(-515.497 -585.626)" fill="#eac3a2"/>
          <g id="Grupo_58" data-name="Grupo 58" transform="translate(213.589 111.784)">
            <path id="Caminho_195" data-name="Caminho 195" d="M1004.387,547.1s-8.957,26.019-4.26,42.8h15.468S1021.3,559.291,1004.387,547.1Z" transform="translate(-998.765 -545.168)" fill="#e2e2e2"/>
            <path id="Caminho_196" data-name="Caminho 196" d="M1024.5,540.188s31.132-4.348,48.3,0l12.89,42.8h-49.985S1041.409,557.359,1024.5,540.188Z" transform="translate(-1018.878 -538.256)" fill="#fff"/>
          </g>
          <path id="Caminho_197" data-name="Caminho 197" d="M1809.281,736.062c-.306-.175-.48-.262-.48-.262A1.108,1.108,0,0,1,1809.281,736.062Z" transform="translate(-1418.244 -580.858)" fill="#d67330"/>
          <g id="Grupo_59" data-name="Grupo 59" transform="translate(152.942 111.784)">
            <path id="Caminho_198" data-name="Caminho 198" d="M726.787,547.1s-8.957,26.019-4.26,42.8h15.468S743.7,559.291,726.787,547.1Z" transform="translate(-721.165 -545.168)" fill="#e2e2e2"/>
            <path id="Caminho_199" data-name="Caminho 199" d="M746.9,540.188s31.132-4.348,48.3,0l12.89,42.8H758.107S763.809,557.359,746.9,540.188Z" transform="translate(-741.278 -538.256)" fill="#fff"/>
          </g>
          <g id="Grupo_64" data-name="Grupo 64" transform="translate(20.952 131.019)">
            <path id="Caminho_200" data-name="Caminho 200" d="M217.189,628.026v2.709c0,.939-.306,1.726-.677,1.726H117.677c-.371,0-.677-.765-.677-1.726v-2.709c0-.939.306-1.726.677-1.726H216.49C216.884,626.3,217.189,627.065,217.189,628.026Z" transform="translate(-117 -626.3)" fill="#8c8c8c"/>
            <path id="Caminho_201" data-name="Caminho 201" d="M290.419,628.026v2.709c0,.939-.284,1.726-.634,1.726H211.334c-.35,0-.634-.765-.634-1.726v-2.709c0-.939.284-1.726.634-1.726h78.452C290.135,626.3,290.419,627.065,290.419,628.026Z" transform="translate(-190.23 -626.3)" fill="#afafaf"/>
            <rect id="Retângulo_317" data-name="Retângulo 317" width="70.15" height="102.243" transform="translate(5.025 6.139)" fill="#8c8c8c"/>
            <rect id="Retângulo_318" data-name="Retângulo 318" width="70.15" height="102.243" transform="translate(24.687 6.139)" fill="#d3d3d3"/>
            <g id="Grupo_63" data-name="Grupo 63" transform="translate(28.445 9.023)">
              <g id="Grupo_60" data-name="Grupo 60">
                <path id="Caminho_202" data-name="Caminho 202" d="M309.813,761.323H247.2V667.6h62.613Zm-61.936-.677h61.258V668.3H247.877Z" transform="translate(-247.2 -667.6)" fill="#8c8c8c"/>
              </g>
              <g id="Grupo_61" data-name="Grupo 61" transform="translate(0.35 31.022)">
                <rect id="Retângulo_319" data-name="Retângulo 319" width="61.936" height="0.677" fill="#8c8c8c"/>
              </g>
              <g id="Grupo_62" data-name="Grupo 62" transform="translate(0.35 62.613)">
                <rect id="Retângulo_320" data-name="Retângulo 320" width="61.936" height="0.677" fill="#8c8c8c"/>
              </g>
              <path id="Caminho_203" data-name="Caminho 203" d="M374.9,688.11H363.4a1,1,0,0,1-1.005-1h0A1,1,0,0,1,363.4,686.1H374.9a1,1,0,0,1,1,1.005h0A1.016,1.016,0,0,1,374.9,688.11Z" transform="translate(-337.232 -682.058)" fill="#8c8c8c"/>
              <path id="Caminho_204" data-name="Caminho 204" d="M374.9,829.61H363.4A1,1,0,0,1,362.4,828.6h0A1,1,0,0,1,363.4,827.6H374.9a1,1,0,0,1,1,1.005h0A1.017,1.017,0,0,1,374.9,829.61Z" transform="translate(-337.232 -792.645)" fill="#8c8c8c"/>
              <path id="Caminho_205" data-name="Caminho 205" d="M374.9,977.11H363.4a1,1,0,0,1-1.005-1h0A1,1,0,0,1,363.4,975.1H374.9a1,1,0,0,1,1,1.005h0A1.016,1.016,0,0,1,374.9,977.11Z" transform="translate(-337.232 -907.921)" fill="#8c8c8c"/>
            </g>
          </g>
          <g id="Grupo_71" data-name="Grupo 71" transform="translate(0 47.927)">
            <g id="Grupo_66" data-name="Grupo 66" transform="translate(44.218 32.969)">
              <path id="Caminho_206" data-name="Caminho 206" d="M258.613,410.855s-5.789-6.751-.35-11.033c0,0,3.954-2.4,7.188-2.207,0,0-4.588,7.668-3.1,8.433s4.479-8.914,4.479-8.914,9.023-.874,11.907.524c0,0-7.712,6.314-6.1,6.685s9.94-5.811,9.94-5.811,8.389,1.42,7.952,6.554c-.437,5.112-3.343,6.707-4.61,6.554-1.267-.131-8.7-2.971-8.87-1.923-.153,1.049,4.3,4.435,7.45,4.61,0,0-5.92,6.532-9.853,4.631-3.932-1.879-4.26-4.872-6.729-5.986-2.447-1.114-4.544-1.114-3.539.022s5.44,2.25,6.86,4.741c1.4,2.469,2.665,4.151-1.4,3.539s-10.683-3.583-10.967-6.991Z" transform="translate(-248.848 -396.865)" fill="#82b378"/>
              <g id="Grupo_65" data-name="Grupo 65" transform="translate(0 8.314)">
                <path id="Caminho_207" data-name="Caminho 207" d="M277.8,434.96s-22.786-.874-27.833,5.637a16.476,16.476,0,0,1-4.544,6.379l-.524,1.464s3.954-4.173,5.352-4.413C250.274,444,248.068,435.921,277.8,434.96Z" transform="translate(-240.225 -434.921)" fill="#82b378"/>
                <path id="Caminho_208" data-name="Caminho 208" d="M228.721,488.058a14.3,14.3,0,0,0-5.221,10.093l.9.087s1.573-6.685,4.391-9.307C231.583,486.311,228.721,488.058,228.721,488.058Z" transform="translate(-223.5 -476.004)" fill="#82b378"/>
              </g>
            </g>
            <g id="Grupo_68" data-name="Grupo 68" transform="translate(0 14.66)">
              <path id="Caminho_209" data-name="Caminho 209" d="M54.851,336.881s9.2-5.156,4.894-12.147c0,0-3.43-4.282-7.122-5.4,0,0,1.966,10.421,0,10.661s-1.355-11.775-1.355-11.775-9.678-4.653-13.479-4.282c0,0,6.008,10.181,4.042,9.94s-8.7-10.552-8.7-10.552-9.94-1.835-11.535,4.042.983,8.826,2.447,9.2,10.9.24,10.661,1.464-6.62,3.19-10.181,2.075c0,0,3.932,9.678,9.066,9.2,5.156-.481,6.751-3.67,9.94-3.932,3.19-.24,5.527.612,3.932,1.464s-6.991.284-9.569,2.469-4.653,3.539.131,4.522,13.37.371,15.074-3.321Z" transform="translate(-21.097 -313.059)" fill="#a8d29f"/>
              <g id="Grupo_67" data-name="Grupo 67" transform="translate(5.069 6.17)">
                <path id="Caminho_210" data-name="Caminho 210" d="M44.3,341.3s25.757,8.345,28.685,17.652a19.485,19.485,0,0,0,2.447,8.957v1.835s-2.687-6.248-4.173-7.1C71.281,362.622,77.048,354.539,44.3,341.3Z" transform="translate(-44.3 -341.3)" fill="#82b378"/>
                <path id="Caminho_211" data-name="Caminho 211" d="M182.461,459a16.949,16.949,0,0,1,1.7,13.37l-1.027-.284s.983-8.083-1.092-12.147S182.461,459,182.461,459Z" transform="translate(-151.307 -432.387)" fill="#82b378"/>
              </g>
            </g>
            <g id="Grupo_70" data-name="Grupo 70" transform="translate(40.42)">
              <path id="Caminho_212" data-name="Caminho 212" d="M214.085,277.338s-12.125-6.794-6.467-15.992c0,0,4.522-5.658,9.372-7.122,0,0-2.578,13.742,0,14.069s1.77-15.511,1.77-15.511,12.759-6.139,17.783-5.658c0,0-7.909,13.414-5.331,13.086s11.47-13.895,11.47-13.895,13.086-2.425,15.184,5.331-1.289,11.644-3.233,12.125-14.375.328-14.069,1.944c.328,1.617,8.717,4.195,13.414,2.753,0,0-5.178,12.759-11.95,12.125-6.794-.655-8.892-4.85-13.086-5.178s-7.275.808-5.178,1.944,9.219.371,12.606,3.255,6.139,4.653-.153,5.964c-6.314,1.289-17.609.481-19.881-4.369Z" transform="translate(-206.114 -245.957)" fill="#a8d29f"/>
              <g id="Grupo_69" data-name="Grupo 69" transform="translate(1.565 8.115)">
                <path id="Caminho_213" data-name="Caminho 213" d="M268.85,283.1s-33.95,10.989-37.817,23.267a25.88,25.88,0,0,1-3.233,11.8v2.425s3.561-8.236,5.505-9.372C233.305,311.217,225.7,300.534,268.85,283.1Z" transform="translate(-224.627 -283.1)" fill="#82b378"/>
                <path id="Caminho_214" data-name="Caminho 214" d="M216.448,438.214a22.36,22.36,0,0,0-2.25,17.63l1.354-.371s-1.311-10.661,1.442-16.014C219.725,434.106,216.448,438.214,216.448,438.214Z" transform="translate(-213.275 -403.15)" fill="#82b378"/>
              </g>
            </g>
            <path id="Caminho_215" data-name="Caminho 215" d="M179.495,511.6a23.747,23.747,0,1,1-47.495,0Z" transform="translate(-107.771 -453.565)" fill="#ea2d2d"/>
            <path id="Caminho_216" data-name="Caminho 216" d="M163.953,511.6c0,8.892-2.141,17.958-9.372,22.022-1.2.677-5.243-.065-6.554.415A23.749,23.749,0,0,1,132.1,511.6Z" transform="translate(-107.849 -453.566)" fill="#f26b6b"/>
            <path id="Caminho_217" data-name="Caminho 217" d="M178.728,615.327H130.6a2.909,2.909,0,0,1,2.927-2.927h42.3A2.923,2.923,0,0,1,178.728,615.327Z" transform="translate(-106.677 -532.344)" fill="#ea2d2d"/>
            <path id="Caminho_218" data-name="Caminho 218" d="M156.183,615.327H130.6a2.909,2.909,0,0,1,2.927-2.927h19.728A2.928,2.928,0,0,1,156.183,615.327Z" transform="translate(-106.677 -532.344)" fill="#f26b6b"/>
            <rect id="Retângulo_321" data-name="Retângulo 321" width="48.806" height="0.721" transform="translate(23.464 58.034)" fill="#b5453c"/>
          </g>
          <g id="Grupo_81" data-name="Grupo 81" transform="translate(80.338 102.445)">
            <path id="Caminho_219" data-name="Caminho 219" d="M399.5,523.364a11.164,11.164,0,1,1,11.164,11.164A11.17,11.17,0,0,1,399.5,523.364Z" transform="translate(-397.17 -508.553)" fill="#f26b6b"/>
            <g id="Grupo_72" data-name="Grupo 72" transform="translate(4.748 22.279)">
              <path id="Caminho_220" data-name="Caminho 220" d="M411.926,598.228l-1.311,4.063a1.071,1.071,0,0,0,1,1.4h.306a1.006,1.006,0,0,0,.721-.284l3.059-2.775a1.047,1.047,0,0,0-.153-1.682L413.5,597.66A1.039,1.039,0,0,0,411.926,598.228Z" transform="translate(-410.564 -597.481)" fill="#f26b6b"/>
              <path id="Caminho_221" data-name="Caminho 221" d="M472.515,598.228l1.311,4.063a1.071,1.071,0,0,1-1,1.4h-.306a1.006,1.006,0,0,1-.721-.284l-3.058-2.775a1.047,1.047,0,0,1,.153-1.682l2.054-1.289A1.039,1.039,0,0,1,472.515,598.228Z" transform="translate(-455.751 -597.481)" fill="#f26b6b"/>
            </g>
            <path id="Caminho_222" data-name="Caminho 222" d="M391.36,497.033a6.832,6.832,0,0,0-2.294,7.078,1.94,1.94,0,0,0,3.1,1.027l6.947-5.637a1.945,1.945,0,0,0-.262-3.211A6.84,6.84,0,0,0,391.36,497.033Z" transform="translate(-388.833 -495.505)" fill="#f26b6b"/>
            <path id="Caminho_223" data-name="Caminho 223" d="M473.226,499.555a6.787,6.787,0,0,0-7.275-1.573,1.935,1.935,0,0,0-.7,3.19l6.292,6.357a1.94,1.94,0,0,0,3.168-.59A6.867,6.867,0,0,0,473.226,499.555Z" transform="translate(-448.11 -497.088)" fill="#f26b6b"/>
            <path id="Caminho_224" data-name="Caminho 224" d="M409.1,530.866a9.066,9.066,0,1,1,9.066,9.066A9.072,9.072,0,0,1,409.1,530.866Z" transform="translate(-404.672 -516.055)" fill="#fff"/>
            <g id="Grupo_80" data-name="Grupo 80" transform="translate(5.87 7.165)">
              <g id="Grupo_73" data-name="Grupo 73" transform="translate(0.943 3.902)">
                <path id="Caminho_225" data-name="Caminho 225" d="M477.891,578.514a.45.45,0,1,1-.612.175A.456.456,0,0,1,477.891,578.514Z" transform="translate(-464.722 -571.406)" fill="#d3d3d3"/>
                <path id="Caminho_226" data-name="Caminho 226" d="M420.691,546.214a.45.45,0,1,1-.612.175A.456.456,0,0,1,420.691,546.214Z" transform="translate(-420.018 -546.162)" fill="#d3d3d3"/>
              </g>
              <g id="Grupo_79" data-name="Grupo 79">
                <g id="Grupo_74" data-name="Grupo 74" transform="translate(7.188)">
                  <path id="Caminho_227" data-name="Caminho 227" d="M448.6,528.759a.459.459,0,1,1,.459.459A.462.462,0,0,1,448.6,528.759Z" transform="translate(-448.6 -528.3)" fill="#d3d3d3"/>
                  <path id="Caminho_228" data-name="Caminho 228" d="M448.6,594.459a.459.459,0,1,1,.918,0,.459.459,0,0,1-.918,0Z" transform="translate(-448.6 -579.647)" fill="#d3d3d3"/>
                </g>
                <g id="Grupo_75" data-name="Grupo 75" transform="translate(3.385 1.091)">
                  <path id="Caminho_229" data-name="Caminho 229" d="M466.059,533.512a.461.461,0,1,1,.153.634A.461.461,0,0,1,466.059,533.512Z" transform="translate(-458.389 -533.292)" fill="#d3d3d3"/>
                  <path id="Caminho_230" data-name="Caminho 230" d="M431.259,589.212a.461.461,0,1,1,.153.634A.461.461,0,0,1,431.259,589.212Z" transform="translate(-431.192 -576.823)" fill="#d3d3d3"/>
                </g>
                <g id="Grupo_76" data-name="Grupo 76" transform="translate(0.922 3.674)">
                  <path id="Caminho_231" data-name="Caminho 231" d="M477.454,545.18a.45.45,0,1,1-.175.612A.437.437,0,0,1,477.454,545.18Z" transform="translate(-464.7 -545.118)" fill="#d3d3d3"/>
                  <path id="Caminho_232" data-name="Caminho 232" d="M420.154,577.28a.45.45,0,1,1-.175.612A.447.447,0,0,1,420.154,577.28Z" transform="translate(-419.918 -570.205)" fill="#d3d3d3"/>
                </g>
                <g id="Grupo_77" data-name="Grupo 77" transform="translate(0 7.188)">
                  <path id="Caminho_233" data-name="Caminho 233" d="M481.859,561.2a.461.461,0,0,1,.459.459.448.448,0,0,1-.459.459.459.459,0,1,1,0-.918Z" transform="translate(-467.047 -561.2)" fill="#d3d3d3"/>
                  <path id="Caminho_234" data-name="Caminho 234" d="M416.159,561.2a.462.462,0,0,1,.459.459.448.448,0,0,1-.459.459.462.462,0,0,1-.459-.459A.448.448,0,0,1,416.159,561.2Z" transform="translate(-415.7 -561.2)" fill="#d3d3d3"/>
                </g>
                <g id="Grupo_78" data-name="Grupo 78" transform="translate(3.674 0.725)">
                  <path id="Caminho_235" data-name="Caminho 235" d="M465.466,589.254a.45.45,0,1,1-.612-.175A.442.442,0,0,1,465.466,589.254Z" transform="translate(-457.605 -576.478)" fill="#d3d3d3"/>
                  <path id="Caminho_236" data-name="Caminho 236" d="M433.366,531.854a.45.45,0,1,1-.612-.175A.437.437,0,0,1,433.366,531.854Z" transform="translate(-432.518 -531.618)" fill="#d3d3d3"/>
                </g>
              </g>
            </g>
            <path id="Caminho_237" data-name="Caminho 237" d="M447.4,560.721a.721.721,0,1,1,.721.721A.727.727,0,0,1,447.4,560.721Z" transform="translate(-434.605 -545.91)" fill="#f26b6b"/>
            <path id="Caminho_238" data-name="Caminho 238" d="M429.266,561.462c1.464-.087,4.282-.262,4.282-.262v.765l-4.282-.393C429.178,561.571,429.178,561.462,429.266,561.462Z" transform="translate(-420.381 -546.848)" fill="#f26b6b"/>
            <path id="Caminho_239" data-name="Caminho 239" d="M449.446,539.355c.087,2.141.218,5.09.218,5.09H448.9l.328-5.09C449.228,539.115,449.446,539.115,449.446,539.355Z" transform="translate(-435.777 -529.635)" fill="#f26b6b"/>
          </g>
          <path id="Caminho_240" data-name="Caminho 240" d="M1090.115,632.409s-49.461-22.5-58.353-22.568c-8.914-.065-49.352,11.076-58.615,9.219-9.285-1.857-60.472-17.718-67.528-17.761s-116.531,11.622-132.872,30.957c-2.993,3.561,47.8,70.827,77.643,67.026,19.837-2.534,64.011-67.681,69.538-68.577s111.812,1.333,111.812,1.333C1055.619,632.016,1090.115,632.409,1090.115,632.409Z" transform="translate(-608.437 -475.742)" fill="#afafaf"/>
          <g id="Grupo_83" data-name="Grupo 83" transform="translate(245.331 0)">
            <path id="Caminho_241" data-name="Caminho 241" d="M1383.428,27.132s-8.542.612-11.819,8.87c-3.255,8.236-8.3,14.353-5.658,18.024,2.643,3.692,5.877,5.9,5.09,7.6s-5.986,1.726-10.028,5.92-11.448,16.32.219,18.679c8.913,1.791,2.294,13.021,8.127,17.39,7.494,5.593,33.207,11.12,41.64,4.522,8.411-6.62,5.4-19.924,2.665-24.49-2.731-4.588,6.1-11.1,7.428-13.37,5.44-9.241-12.038-10.377-9.481-15.577s5.2-10.224-3.233-15.009C1404.27,37.334,1401.845,23.7,1383.428,27.132Z" transform="translate(-1308.878 -26.581)" fill="#5e5e5e"/>
            <path id="Caminho_242" data-name="Caminho 242" d="M1535.608,542.786c-1.507,16.057-12.3,16.188-52.869,15.73-13.13-.153-25.517-.35-36.244-.568-22.415-.481-12.584-7.078-10.4-6.6a22.163,22.163,0,0,0,12.256-.2c11.776-3.583,28.772-11.863,36.462-11.448,11.885.612,27.33-.35,27.33-.35s-41.946-5.4-43.453-12.562c-1.508-7.144-24.053-18.482-19.16-19.4,4.894-.9,22.83,1.551,22.83,1.551a168.394,168.394,0,0,0,21.781,8.629C1512.909,523.452,1536.766,530.574,1535.608,542.786Z" transform="translate(-1369.148 -402.198)" fill="#e8945b"/>
            <path id="Caminho_243" data-name="Caminho 243" d="M1499.962,196.448c-3.6,1.682-10.7,1.442-13.807-1.07-1.617-1.289-2.338-1.9-1.354-3.1,1.638-1.136,3.386-7.253,1.682-16.975l.786.022,13.086.328s.393,4.042,1.027,7.777c.524,3.124,1.245,6.27,2.032,6.532C1505.446,190.833,1507.631,192.909,1499.962,196.448Z" transform="translate(-1410.01 -142.81)" fill="#ffb27d"/>
            <path id="Caminho_244" data-name="Caminho 244" d="M1510.686,175.728s.394,4.02,1.027,7.777c-7.122,1.027-11.972-4.784-14.113-8.105Z" transform="translate(-1420.362 -142.888)" fill="#e8945b"/>
            <g id="Grupo_82" data-name="Grupo 82" transform="translate(68.018 5.438)">
              <path id="Caminho_245" data-name="Caminho 245" d="M1491.006,89.229s-15.883,6.073-19.509-3.867S1463.37,69.5,1473.354,65.2s13.348-1.223,15.358,1.791C1490.744,70.026,1495.047,87.394,1491.006,89.229Z" transform="translate(-1464.68 -60.538)" fill="#ffb27d"/>
              <path id="Caminho_246" data-name="Caminho 246" d="M1471.261,56.112s-.131,13.261-6.2,17.434-9.656,3.43-9.656,3.43a20.177,20.177,0,0,0,2.141-13.479C1457.541,63.475,1465.952,51.743,1471.261,56.112Z" transform="translate(-1455.4 -54.337)" fill="#5e5e5e"/>
              <path id="Caminho_247" data-name="Caminho 247" d="M1524.6,54.581s4.216,1.42,5.92,3.67c1.726,2.25,4.216,4.3,5.418,6.6,0,0,.415-9.132-4.916-12.278C1525.386,49.228,1524.6,54.581,1524.6,54.581Z" transform="translate(-1509.482 -51.472)" fill="#5e5e5e"/>
              <path id="Caminho_248" data-name="Caminho 248" d="M1507.624,56.887s1.333,13.348-5.724,20.339c0,0,5.746-10.6,3.517-18.919S1507.624,56.887,1507.624,56.887Z" transform="translate(-1491.741 -53.604)" fill="#5e5e5e"/>
            </g>
            <path id="Caminho_249" data-name="Caminho 249" d="M1550.6,154.684s5.243-2.272,5.352-2.447c.131-.175.022,1,.284,1.573.262.59-1.617,1.507-2.534,1.944A2.321,2.321,0,0,1,1550.6,154.684Z" transform="translate(-1461.783 -124.772)" fill="#fff"/>
            <path id="Caminho_250" data-name="Caminho 250" d="M1558.4,115.963s7.056,1.4,16.887-6.925c3.867-3.277,20.3-13.851,25.189-17.193s20.645-9.744,20.645-9.744l2.971,3.037s-18.067,15.38-19.771,16.057-18.242,16.014-18.876,17.477c-.612,1.442-7.231,7.319-6.6,14.681C1579.22,137.635,1558.4,115.963,1558.4,115.963Z" transform="translate(-1467.88 -69.971)" fill="#ffb27d"/>
            <path id="Caminho_251" data-name="Caminho 251" d="M1269.889,129.165a12.746,12.746,0,0,1-9.962-4.216c-3.43-3.714-20.3-13.851-25.189-17.193S1209.591,97.4,1209.591,97.4l-1.791,2.818s21.388,16.21,23.092,16.888,14.419,12.693,16.494,16.363c1.966,3.474,7.8,11.928,9.962,15.686C1260.669,154.988,1269.889,129.165,1269.889,129.165Z" transform="translate(-1193.874 -81.928)" fill="#ffb27d"/>
            <path id="Caminho_252" data-name="Caminho 252" d="M1460.935,237.1s10.574,16.8,11.186,20.514c.612,3.736-4.566,21.148-4.763,23.638s-4.348,16.582-4.348,16.582H1431.7s-1.595-22.655-3.911-28.641-7.493-18.329-7.493-18.329l16.713-10.923Z" transform="translate(-1359.95 -191.108)" fill="#ffb27d"/>
            <path id="Caminho_253" data-name="Caminho 253" d="M1568.343,625.339l-8.193,1.442c-.765-1.464-1.573-2.906-2.425-4.348-6.991-11.71-16.909-22.742-23.442-31.044-19.334-24.556,6.03-33.251-35.479-32.486-41.509.743-57.632-6.314-57.807-18.548-.065-4.7,7.057-25.255,7.057-25.255h31.307s-3.168,2.359-1.857,5.265c1.289,2.906,44.677,15.38,50.685,17.215,10.464,3.211,11.644,11.885,19.6,31.066,4.129,9.984,13.894,37.6,18.307,50.226C1567.491,622.848,1568.343,625.339,1568.343,625.339Z" transform="translate(-1376.126 -408.374)" fill="#ffb27d"/>
            <path id="Caminho_254" data-name="Caminho 254" d="M1162.287,86.46s-4.894-3.364-7.515-3.845-5.374-.961-4.916,0c.481.961,3.583,1,3.343,2.119s-9.94-.524-9.088,1.726c.83,2.25,6.882,3.932,9.066,3.932a78.545,78.545,0,0,0,8.389-1.136Z" transform="translate(-1144.057 -69.939)" fill="#ffb27d"/>
            <path id="Caminho_255" data-name="Caminho 255" d="M1844,67.36s4.894-3.364,7.515-3.845,5.374-.961,4.916,0c-.481.961-3.583,1-3.343,2.119s9.94-.524,9.088,1.726c-.83,2.25-6.882,3.932-9.067,3.932a78.55,78.55,0,0,1-8.389-1.136Z" transform="translate(-1691.085 -55.012)" fill="#ffb27d"/>
            <path id="Caminho_256" data-name="Caminho 256" d="M1452.361,236.395s9.2,19.618-8.062,24.905l4.916,19.64s9.722,7.581,36.768.218c0,0,5.964-18.2,4.915-25.364-.983-6.663-16.167-20.995-16.167-20.995l-1.944.218s7.472,10.2,7.057,13.108-11.382,5.44-18.5.983c-2.054-1.289-6.947-12.562-6.947-12.562Z" transform="translate(-1378.707 -189.311)" fill="#fff"/>
            <path id="Caminho_257" data-name="Caminho 257" d="M1592.9,512.8l18.592,8.214s-1.551,4.26-9.787,4.872c-6.183.459-15.271-7.013-15.9-10.7Z" transform="translate(-1489.293 -406.577)" fill="#ea2d2d"/>
            <path id="Caminho_258" data-name="Caminho 258" d="M1472.24,508.77a1.768,1.768,0,0,1-.131-1.77,48.975,48.975,0,0,0,31.9.218s.437.59-.437,1.529A45.246,45.246,0,0,1,1472.24,508.77Z" transform="translate(-1400.311 -402.044)" fill="#ea2d2d"/>
            <path id="Caminho_259" data-name="Caminho 259" d="M1997.771,1018.12c-1.093,1.7-8.717,2.032-9.94,0-1.245-2.032-2.337-6.379-5.44-8.542-3.1-2.185-6.838-3.255-5.44-6.685s.874-4.785.874-4.785c-.765-1.464-1.573-2.906-2.425-4.347a31.189,31.189,0,0,0,8.367-3.561c1.4,3.954,2.25,6.445,2.25,6.445s5.549,9.241,6.576,13.589S1998.863,1016.394,1997.771,1018.12Z" transform="translate(-1793.779 -779.68)" fill="#fff"/>
            <path id="Caminho_260" data-name="Caminho 260" d="M1410.372,698.809c-22.415-.481-38.669-1.376-38.385-2.359.415-1.442,1.66-4.151,8.935-4.763s8.52-4.348,12.409-4.5,3.43,4.347,5.593,4.828c.765.175,5.593-1.311,12.059-3.277C1411.18,691.556,1411.988,695.423,1410.372,698.809Z" transform="translate(-1322.189 -542.863)" fill="#fff"/>
            <path id="Caminho_261" data-name="Caminho 261" d="M1441.677,515.047c1.857-.349,10.115,5.658,29.537.524a102.329,102.329,0,0,0,9.635,7.734,61.109,61.109,0,0,0,6.947,3.823s2.054,24.1-34.846,30.542c0,0-19.684-1.9-20.1-17.652C1432.436,523.917,1441.677,515.047,1441.677,515.047Z" transform="translate(-1369.749 -408.321)" fill="#f26b6b"/>
          </g>
          <path id="Caminho_262" data-name="Caminho 262" d="M2013.7,731.349s27.068,12.606,29.8,11.382c2.731-1.245,16.56-10.989,16.56-10.989l-22.764-3.343Z" transform="translate(-1578.38 -575.075)" fill="#afafaf"/>
          <path id="Caminho_263" data-name="Caminho 263" d="M1125.37,1049.7a7.266,7.266,0,0,0,0,7.035,7.746,7.746,0,0,0,4.763-1.9S1129.368,1049.918,1125.37,1049.7Z" transform="translate(-883.416 -826.181)" fill="#afafaf"/>
          <path id="Caminho_264" data-name="Caminho 264" d="M2145.294,792.1a6.514,6.514,0,0,0-.415,5.025s2.8.415,4.194-.568C2149.1,796.557,2147.785,792.34,2145.294,792.1Z" transform="translate(-1680.678 -624.859)" fill="#afafaf"/>
        </g>
      </g>
    </g>
  </g>
</svg>
